<svg xmlns="http://www.w3.org/2000/svg" xmlns:xlink="http://www.w3.org/1999/xlink" width="400" height="293" viewBox="0 0 400 293">
  <defs>
    <clipPath id="clip-path">
      <rect id="Rectángulo_415868" data-name="Rectángulo 415868" width="400" height="293" transform="translate(1020 707)" fill="#fff" stroke="#707070" stroke-width="1" opacity="0.69"/>
    </clipPath>
    <clipPath id="clip-path-2">
      <path id="Trazado_1045412" data-name="Trazado 1045412" d="M53.717,183.943l48.739-4.357s-3.223,24.57,7.653,43.5c0,0-23.765,9.264-50.753,7.653C49.689,215.032,53.717,183.943,53.717,183.943Z" transform="translate(-52.885 -179.586)"/>
    </clipPath>
    <clipPath id="clip-path-3">
      <path id="Trazado_1045433" data-name="Trazado 1045433" d="M193.693,428.53h98.674c16.315-3.333,28.793-17.887,26.27-34.006-3.415-21.812-23.8-54.11-35.37-66.334-20.632-21.8-44.437-17.017-44.437-17.017s-35.613,1.685-51.019,33.217c-6.982,14.291-15.358,31.507-19.719,47.051C163.337,408.4,176.084,425.2,193.693,428.53Z" transform="translate(-167.09 -310.728)"/>
    </clipPath>
    <clipPath id="clip-path-10">
      <path id="Trazado_1045448" data-name="Trazado 1045448" d="M268.041,271.536l5.5,33.612c2.162,13.223-10.764,24.306-23.265,19.486a21.278,21.278,0,0,1-2.832-1.343,17.333,17.333,0,0,1-8.345-11.888l-6.245-32.777Z" transform="translate(-232.85 -271.536)"/>
    </clipPath>
    <clipPath id="clip-path-11">
      <path id="Trazado_1045450" data-name="Trazado 1045450" d="M205.591,209.561A184.918,184.918,0,0,1,201.54,239.6c-3.156,14.919-3.164,33.556,13.436,42a34.493,34.493,0,0,0,22.014,2.789c22.654-4.256,27.333-25.212,27.333-25.212s9.113-.675,12.826-9.451-1.688-15.526-9.789-11.477C270.735,216.649,247.784,198.722,205.591,209.561Z" transform="translate(-199.913 -206.305)"/>
    </clipPath>
    <clipPath id="clip-path-13">
      <path id="Trazado_1045455" data-name="Trazado 1045455" d="M219.478,317.122l20.726,112.7H180.779S171.348,347.865,201.96,323Z" transform="translate(-179.408 -317.122)"/>
    </clipPath>
    <clipPath id="clip-path-14">
      <path id="Trazado_1045458" data-name="Trazado 1045458" d="M288.308,317.122l-20.726,112.7h59.425s6.766-81.5-21.181-108.232Z" transform="translate(-267.582 -317.122)"/>
    </clipPath>
    <clipPath id="clip-path-15">
      <path id="Trazado_1045483" data-name="Trazado 1045483" d="M136.932,106.756c5.407-8.691-23.149-18.46-23.149-18.46s-9.743,14.27-11.341,22.94c11.638,14.087,27.61,26.758,34.49,29.953,4.524,2.1,6.043-.43,6.554-2.41a4.764,4.764,0,0,0,.487.072c4.563.4,5.933-4.051,5.933-4.051s5.933.684,6.617-4.792l.156-.022a4.784,4.784,0,0,0,1.912-8.671C153.428,117.765,143.427,110.931,136.932,106.756Z" transform="translate(-102.442 -88.296)"/>
    </clipPath>
    <clipPath id="clip-path-16">
      <path id="Trazado_1045490" data-name="Trazado 1045490" d="M163.125,90.387s-15.027.228-25.426,5.249-22.493,13.059-20.9,16.912,8.9,1.014,14.6-2.473,10.268-1.643,10.268-1.643l16.707,11.19s10.676-5.227,11.588-16.432C166.776,94.038,163.125,90.387,163.125,90.387Z" transform="translate(-116.66 -90.387)"/>
    </clipPath>
    <clipPath id="clip-path-18">
      <path id="Trazado_1045498" data-name="Trazado 1045498" d="M381.07,140.326H346.014a12.3,12.3,0,0,1-12.268-12.268V116.32a12.3,12.3,0,0,1,12.268-12.268H381.07a12.3,12.3,0,0,1,12.267,12.268v11.738A12.3,12.3,0,0,1,381.07,140.326Z" transform="translate(-333.746 -104.052)"/>
    </clipPath>
  </defs>
  <g id="Enmascarar_grupo_1098867" data-name="Enmascarar grupo 1098867" transform="translate(-1020 -707)" clip-path="url(#clip-path)">
    <g id="Grupo_1200626" data-name="Grupo 1200626" transform="translate(-21.288 -27.266)">
      <circle id="Elipse_13419" data-name="Elipse 13419" cx="152.942" cy="152.942" r="152.942" transform="translate(1086.696 790.382)" fill="#e9f9fd" opacity="0.55"/>
      <g id="OBJECTS" transform="translate(1050.656 731.804)">
        <g id="Grupo_1200582" data-name="Grupo 1200582" transform="translate(42.084 31.688)">
          <g id="Grupo_1200581" data-name="Grupo 1200581">
            <g id="Grupo_1200574" data-name="Grupo 1200574" transform="translate(0 125.05)">
              <path id="Trazado_1045402" data-name="Trazado 1045402" d="M181.175,351.181V337.735l-9.342-1.062a47.663,47.663,0,0,0-2.443-9.179l7.545-5.581-6.723-11.644-8.63,3.755a48.306,48.306,0,0,0-6.705-6.713l3.752-8.624-11.644-6.723-5.593,7.562a47.658,47.658,0,0,0-9.167-2.462l-1.062-9.34H117.716l-1.062,9.34a47.694,47.694,0,0,0-9.175,2.452l-5.586-7.552-11.644,6.723L94,307.3a48.355,48.355,0,0,0-6.7,6.72l-8.634-3.756-6.723,11.644L79.5,327.5a47.651,47.651,0,0,0-2.458,9.169L67.7,337.735v13.445l9.342,1.063a47.665,47.665,0,0,0,2.443,9.179L71.943,367l6.723,11.644,8.63-3.755A48.309,48.309,0,0,0,94,381.606l-3.752,8.624,11.644,6.723,5.593-7.562a47.721,47.721,0,0,0,9.168,2.462l1.062,9.34h13.445l1.062-9.34A47.637,47.637,0,0,0,141.4,389.4l5.586,7.552,11.644-6.723-3.75-8.619a48.406,48.406,0,0,0,6.7-6.72l8.634,3.756L176.935,367l-7.559-5.592a47.665,47.665,0,0,0,2.458-9.169ZM124.44,383.39a38.933,38.933,0,1,1,38.933-38.933A38.933,38.933,0,0,1,124.44,383.39Z" transform="translate(-67.703 -287.723)" fill="none" stroke="#fff" stroke-linecap="round" stroke-linejoin="round" stroke-miterlimit="10" stroke-width="1"/>
              <g id="Grupo_1200573" data-name="Grupo 1200573" transform="translate(40.251 40.248)">
                <path id="Trazado_1045403" data-name="Trazado 1045403" d="M134.65,371.153a16.486,16.486,0,1,1,16.485-16.486A16.486,16.486,0,0,1,134.65,371.153Z" transform="translate(-118.164 -338.181)" fill="none" stroke="#fff" stroke-linecap="round" stroke-linejoin="round" stroke-miterlimit="10" stroke-width="1"/>
              </g>
            </g>
            <g id="Grupo_1200576" data-name="Grupo 1200576" transform="translate(153.57 118.09)">
              <path id="Trazado_1045404" data-name="Trazado 1045404" d="M401.554,358.033V341.287l-11.635-1.323a59.407,59.407,0,0,0-3.042-11.433l9.4-6.951-8.373-14.5-10.748,4.677a60.169,60.169,0,0,0-8.351-8.361l4.673-10.741-14.5-8.373-6.966,9.418a59.441,59.441,0,0,0-11.419-3.066L339.265,279H322.519L321.2,290.63a59.378,59.378,0,0,0-11.427,3.054l-6.957-9.406-14.5,8.373,4.67,10.735a60.216,60.216,0,0,0-8.343,8.37l-10.753-4.678-8.373,14.5,9.416,6.964a59.32,59.32,0,0,0-3.062,11.42l-11.634,1.323v16.746l11.635,1.323a59.406,59.406,0,0,0,3.042,11.433l-9.4,6.951,8.373,14.5,10.748-4.677a60.121,60.121,0,0,0,8.351,8.361l-4.673,10.741,14.5,8.373,6.966-9.418a59.326,59.326,0,0,0,11.418,3.066l1.323,11.632h16.746l1.323-11.632a59.375,59.375,0,0,0,11.427-3.054l6.957,9.406,14.5-8.373-4.67-10.735a60.213,60.213,0,0,0,8.343-8.37l10.753,4.678,8.373-14.5-9.416-6.964a59.32,59.32,0,0,0,3.062-11.42ZM330.892,398.15a48.49,48.49,0,1,1,48.49-48.49A48.49,48.49,0,0,1,330.892,398.15Z" transform="translate(-260.229 -278.998)" fill="none" stroke="#fff" stroke-linecap="round" stroke-linejoin="round" stroke-miterlimit="10" stroke-width="1"/>
              <g id="Grupo_1200575" data-name="Grupo 1200575" transform="translate(50.13 50.129)">
                <path id="Trazado_1045405" data-name="Trazado 1045405" d="M343.609,382.908a20.533,20.533,0,1,1,20.533-20.533A20.533,20.533,0,0,1,343.609,382.908Z" transform="translate(-323.076 -341.843)" fill="none" stroke="#fff" stroke-linecap="round" stroke-linejoin="round" stroke-miterlimit="10" stroke-width="1"/>
              </g>
            </g>
            <g id="Grupo_1200578" data-name="Grupo 1200578" transform="translate(51.754 50.5)">
              <path id="Trazado_1045406" data-name="Trazado 1045406" d="M211.371,238.325v-9.336l-6.487-.738a33.156,33.156,0,0,0-1.7-6.374L208.428,218l-4.668-8.085-5.992,2.607a33.571,33.571,0,0,0-4.656-4.661l2.605-5.988-8.085-4.668-3.883,5.25a33.109,33.109,0,0,0-6.365-1.709l-.738-6.485H167.31l-.737,6.485a33.048,33.048,0,0,0-6.37,1.7l-3.879-5.244-8.085,4.668,2.6,5.985a33.481,33.481,0,0,0-4.651,4.666l-6-2.608L135.528,218l5.249,3.882a33.088,33.088,0,0,0-1.707,6.367l-6.486.738v9.336l6.487.738a33.151,33.151,0,0,0,1.7,6.374l-5.239,3.875L140.2,257.4l5.992-2.607a33.571,33.571,0,0,0,4.656,4.661l-2.605,5.989,8.085,4.668,3.884-5.25a33.1,33.1,0,0,0,6.365,1.709l.737,6.485h9.336l.738-6.485a33.076,33.076,0,0,0,6.371-1.7l3.878,5.244,8.085-4.668-2.6-5.985a33.483,33.483,0,0,0,4.651-4.666l5.994,2.608,4.668-8.085-5.249-3.882a33.028,33.028,0,0,0,1.707-6.367Zm-39.394,22.365a27.033,27.033,0,1,1,27.033-27.033A27.033,27.033,0,0,1,171.977,260.689Z" transform="translate(-132.585 -194.262)" fill="none" stroke="#fff" stroke-linecap="round" stroke-linejoin="round" stroke-miterlimit="10" stroke-width="1"/>
              <g id="Grupo_1200577" data-name="Grupo 1200577" transform="translate(27.946 27.948)">
                <path id="Trazado_1045407" data-name="Trazado 1045407" d="M179.066,252.193a11.446,11.446,0,1,1,11.446-11.446A11.446,11.446,0,0,1,179.066,252.193Z" transform="translate(-167.62 -229.3)" fill="none" stroke="#fff" stroke-linecap="round" stroke-linejoin="round" stroke-miterlimit="10" stroke-width="1"/>
              </g>
            </g>
            <g id="Grupo_1200580" data-name="Grupo 1200580" transform="translate(131.302)">
              <path id="Trazado_1045408" data-name="Trazado 1045408" d="M349.575,196.532v-13.9l-9.655-1.1a49.32,49.32,0,0,0-2.525-9.487l7.8-5.767-6.948-12.033-8.919,3.88a49.966,49.966,0,0,0-6.929-6.938l3.877-8.912-12.033-6.948-5.78,7.815a49.29,49.29,0,0,0-9.474-2.545l-1.1-9.652H284l-1.1,9.652a49.267,49.267,0,0,0-9.481,2.534l-5.773-7.8-12.034,6.948,3.875,8.907a49.932,49.932,0,0,0-6.923,6.945l-8.922-3.881-6.948,12.033,7.812,5.778a49.227,49.227,0,0,0-2.541,9.475l-9.653,1.1v13.9l9.655,1.1a49.307,49.307,0,0,0,2.525,9.487l-7.8,5.767,6.948,12.033,8.919-3.88a49.915,49.915,0,0,0,6.929,6.937l-3.877,8.913,12.034,6.948,5.78-7.815a49.293,49.293,0,0,0,9.474,2.545l1.1,9.652h13.9l1.1-9.652a49.269,49.269,0,0,0,9.481-2.534l5.773,7.8,12.034-6.948L322.4,227.98a49.879,49.879,0,0,0,6.923-6.945l8.922,3.881,6.948-12.033-7.812-5.778a49.222,49.222,0,0,0,2.54-9.475Zm-58.632,33.286a40.234,40.234,0,1,1,40.234-40.234A40.234,40.234,0,0,1,290.943,229.819Z" transform="translate(-232.312 -130.952)" fill="none" stroke="#fff" stroke-linecap="round" stroke-linejoin="round" stroke-miterlimit="10" stroke-width="1"/>
              <g id="Grupo_1200579" data-name="Grupo 1200579" transform="translate(41.595 41.596)">
                <path id="Trazado_1045409" data-name="Trazado 1045409" d="M301.494,217.173a17.036,17.036,0,1,1,17.036-17.036A17.036,17.036,0,0,1,301.494,217.173Z" transform="translate(-284.458 -183.1)" fill="none" stroke="#fff" stroke-linecap="round" stroke-linejoin="round" stroke-miterlimit="10" stroke-width="1"/>
              </g>
            </g>
          </g>
        </g>
        <g id="Grupo_1200587" data-name="Grupo 1200587" transform="translate(0 145.887)">
          <g id="Grupo_1200585" data-name="Grupo 1200585" transform="translate(0 0)">
            <g id="Grupo_1200584" data-name="Grupo 1200584" transform="translate(0 2.417)">
              <path id="Trazado_1045410" data-name="Trazado 1045410" d="M53.717,183.943l48.739-4.357s-3.223,24.57,7.653,43.5c0,0-23.765,9.264-50.753,7.653C49.689,215.032,53.717,183.943,53.717,183.943Z" transform="translate(-52.885 -179.586)" fill="#839ec1"/>
              <g id="Grupo_1200583" data-name="Grupo 1200583" clip-path="url(#clip-path-2)">
                <path id="Trazado_1045411" data-name="Trazado 1045411" d="M78.674,195.73l46.421,10.789s-9.715,22.8-4.335,43.957a124.191,124.191,0,0,1-49.378-6.026C66.3,226.719,78.674,195.73,78.674,195.73Z" transform="translate(-56.379 -182.853)"/>
              </g>
            </g>
            <path id="Trazado_1045413" data-name="Trazado 1045413" d="M71.1,178.973l24.571-2.417v8.862L71.1,188.641Z" transform="translate(-56.57 -176.556)"/>
          </g>
          <g id="Grupo_1200586" data-name="Grupo 1200586" transform="translate(18.135 12.085)">
            <path id="Trazado_1045414" data-name="Trazado 1045414" d="M80.061,194.452l48.827,3.219s-6.977,23.779.846,44.162c0,0-24.91,5.485-51.325-.274C71.282,224.547,80.061,194.452,80.061,194.452Z" transform="translate(-75.62 -192.262)" fill="#e797b3"/>
            <path id="Trazado_1045415" data-name="Trazado 1045415" d="M98.615,191.706l24.649,1.4-1.368,8.756-24.774-.609Z" transform="translate(-79.971 -191.706)"/>
          </g>
          <path id="Trazado_1045416" data-name="Trazado 1045416" d="M93.008,223.084s7.208,2.872,11.1-3.8-11.4,4.425-5.55,8.757,17.13-6.046,13.736-7-8.186,10.13,7.088,5.04" transform="translate(-61.003 -184.778)" fill="none" stroke="#000" stroke-linecap="round" stroke-linejoin="round" stroke-miterlimit="10" stroke-width="1"/>
        </g>
        <g id="Grupo_1200594" data-name="Grupo 1200594" transform="translate(317.828 155.449)">
          <g id="Grupo_1200590" data-name="Grupo 1200590" transform="translate(0 7.733)">
            <path id="Trazado_1045417" data-name="Trazado 1045417" d="M394.9,190.978c-6.04-4.477-14.88-4.029-19.968,1.52-5.447,5.94-3.983,14.544.163,20.1a52.221,52.221,0,0,1,7.71,14.059l5.724-.617,5.725-.617a52.184,52.184,0,0,1,4.539-15.378C401.63,203.79,401.323,195.74,394.9,190.978Z" transform="translate(-371.388 -187.942)" fill="#fff"/>
            <g id="Grupo_1200588" data-name="Grupo 1200588" transform="translate(9.985 37.47)">
              <path id="Trazado_1045418" data-name="Trazado 1045418" d="M384.039,237.8h0a1.49,1.49,0,0,0,1.641,1.322l11.449-1.233a1.49,1.49,0,0,0,1.322-1.641h0a1.49,1.49,0,0,0-1.641-1.322l-11.449,1.233A1.49,1.49,0,0,0,384.039,237.8Z" transform="translate(-383.931 -234.916)" fill="#839ec1"/>
              <path id="Trazado_1045419" data-name="Trazado 1045419" d="M388.611,249.716l8.739-.941a1.137,1.137,0,0,0,1.009-1.252h0a1.137,1.137,0,0,0-1.252-1.009l-8.739.941a1.137,1.137,0,0,0-1.009,1.252h0A1.137,1.137,0,0,0,388.611,249.716Z" transform="translate(-384.603 -237.261)" fill="#839ec1"/>
              <path id="Trazado_1045420" data-name="Trazado 1045420" d="M387.322,245.924l9.436-1.016a3.086,3.086,0,0,0,2.738-3.4h0a3.086,3.086,0,0,0-3.4-2.738l-9.436,1.017a3.086,3.086,0,0,0-2.738,3.4h0A3.085,3.085,0,0,0,387.322,245.924Z" transform="translate(-383.906 -235.693)" fill="#abc2e6"/>
            </g>
            <g id="Grupo_1200589" data-name="Grupo 1200589" transform="translate(8.435 18.306)">
              <path id="Trazado_1045421" data-name="Trazado 1045421" d="M392.539,230.478s-1.321-21.112,2.316-19.5c1.636.726.028,4.357-5.774,4.982s-8.147-2.58-6.7-3.638c3.21-2.352,6.416,18.558,6.416,18.558" transform="translate(-381.963 -210.892)" fill="none" stroke="#000" stroke-linecap="round" stroke-linejoin="round" stroke-miterlimit="10" stroke-width="1"/>
            </g>
          </g>
          <g id="Grupo_1200593" data-name="Grupo 1200593" transform="translate(26.846 0)">
            <path id="Trazado_1045422" data-name="Trazado 1045422" d="M438.057,186.412c-5.385-7.639-15.995-10.556-24.163-5.989-8.746,4.89-10.37,15.616-7.642,23.788a64.873,64.873,0,0,1,3.621,19.6l7,1.5,7,1.5a64.878,64.878,0,0,1,11.351-16.384C441.01,204.16,443.785,194.538,438.057,186.412Z" transform="translate(-405.044 -178.247)" fill="#e797b3"/>
            <g id="Grupo_1200591" data-name="Grupo 1200591" transform="translate(0.641 45.523)">
              <path id="Trazado_1045423" data-name="Trazado 1045423" d="M408.331,236.78h0a1.852,1.852,0,0,0,1.421,2.2l14,3.006a1.852,1.852,0,0,0,2.2-1.421h0a1.852,1.852,0,0,0-1.421-2.2l-14-3.006A1.852,1.852,0,0,0,408.331,236.78Z" transform="translate(-406.342 -235.317)" fill="#839ec1"/>
              <path id="Trazado_1045424" data-name="Trazado 1045424" d="M409.153,252.514l10.683,2.295a1.414,1.414,0,0,0,1.679-1.085h0a1.414,1.414,0,0,0-1.085-1.679l-10.683-2.295a1.414,1.414,0,0,0-1.679,1.085h0A1.415,1.415,0,0,0,409.153,252.514Z" transform="translate(-406.29 -238.231)" fill="#839ec1"/>
              <path id="Trazado_1045425" data-name="Trazado 1045425" d="M408.878,247.718l11.535,2.478a3.836,3.836,0,0,0,4.556-2.945h0a3.836,3.836,0,0,0-2.945-4.556l-11.535-2.478a3.835,3.835,0,0,0-4.555,2.945h0A3.835,3.835,0,0,0,408.878,247.718Z" transform="translate(-405.847 -236.291)" fill="#abc2e6"/>
            </g>
            <g id="Grupo_1200592" data-name="Grupo 1200592" transform="translate(8.317 22.103)">
              <path id="Trazado_1045426" data-name="Trazado 1045426" d="M421.271,231.413s6.669-25.437,10.334-22.114c1.648,1.494-1.665,5.154-8.758,3.63s-8.612-6.222-6.5-6.907c4.705-1.524.341,24.408.341,24.408" transform="translate(-415.47 -205.957)" fill="none" stroke="#000" stroke-linecap="round" stroke-linejoin="round" stroke-miterlimit="10" stroke-width="1"/>
            </g>
          </g>
        </g>
        <g id="Grupo_1200595" data-name="Grupo 1200595" transform="translate(136.322 6)">
          <path id="Trazado_1045427" data-name="Trazado 1045427" d="M288.171,43.763c-3.347-9.483-3.9-13.388-13.666-10.041s-8.367,6.136-6.972,9.762,2.51,6.136,6.136,2.231c2.231,6.136,6.694,4.184,6.694,4.184s-10.041,12.83-12.272,23.707c-3.347-5.3-13.388-8.367-21.755,0-10.6-8.925-21.755-7.531-21.755-7.531V95.918s51.041-.837,54.388-6.136S291.518,53.245,288.171,43.763Z" transform="translate(-224.582 -32.542)" fill="#dca37c"/>
          <path id="Trazado_1045428" data-name="Trazado 1045428" d="M250.4,72.84l-2.765-5.371,6.038,1.35,2-6.282,4.589,4.932,3.2-5.277,3.016,4.775,6.282-2.262L269.5,71.081" transform="translate(-229.248 -38.541)" fill="none" stroke="#000" stroke-linecap="round" stroke-linejoin="round" stroke-miterlimit="10" stroke-width="1"/>
          <path id="Trazado_1045429" data-name="Trazado 1045429" d="M251.239,86.517s.033,3.6,2.69,5.116" transform="translate(-229.976 -43.463)" fill="none" stroke="#000" stroke-linecap="round" stroke-linejoin="round" stroke-miterlimit="10" stroke-width="1"/>
          <path id="Trazado_1045430" data-name="Trazado 1045430" d="M278.172,87.673s-.889,3.494-3.83,4.33" transform="translate(-234.65 -43.697)" fill="none" stroke="#000" stroke-linecap="round" stroke-linejoin="round" stroke-miterlimit="10" stroke-width="1"/>
        </g>
        <g id="Grupo_1200614" data-name="Grupo 1200614" transform="translate(60.805 72.925)">
          <path id="Trazado_1045431" data-name="Trazado 1045431" d="M263.444,234.106s13.4,10.329,19.72,19.454-.208,14.182,10.067,25.255a33.155,33.155,0,0,1,6.105,8.857c1.894,4.238-3.369,8.052-6.9,5.042h0s7.167,13.805-9.227,22.418c-52.7,15.857-72.595,6.942-78.489-6.629-4.869-8.718.081-16.8.081-16.8l0,0a5.539,5.539,0,0,1-8.623-6.244c1.642-4.581,4.065-9.338,5.974-14.155,4.983-12.576.2-35.045,17.563-45.956S263.444,234.106,263.444,234.106Z" transform="translate(-112.348 -190.622)"/>
          <g id="Grupo_1200603" data-name="Grupo 1200603" transform="translate(60.555 102.163)">
            <path id="Trazado_1045432" data-name="Trazado 1045432" d="M193.693,428.53h98.674c16.315-3.333,28.793-17.887,26.27-34.006-3.415-21.812-23.8-54.11-35.37-66.334-20.632-21.8-44.437-17.017-44.437-17.017s-35.613,1.685-51.019,33.217c-6.982,14.291-15.358,31.507-19.719,47.051C163.337,408.4,176.084,425.2,193.693,428.53Z" transform="translate(-167.09 -310.728)" fill="#fff"/>
            <g id="Grupo_1200596" data-name="Grupo 1200596" clip-path="url(#clip-path-3)">
              <line id="Línea_625" data-name="Línea 625" y2="101.71" transform="translate(74.876 17.462)" fill="none" stroke="#000" stroke-linecap="round" stroke-linejoin="round" stroke-miterlimit="10" stroke-width="1"/>
            </g>
            <g id="Grupo_1200597" data-name="Grupo 1200597" clip-path="url(#clip-path-3)">
              <path id="Trazado_1045434" data-name="Trazado 1045434" d="M269.211,344.407a2.295,2.295,0,1,0-2.295,2.295A2.295,2.295,0,0,0,269.211,344.407Z" transform="translate(-186.824 -317.079)" fill="#abc2e6"/>
            </g>
            <g id="Grupo_1200598" data-name="Grupo 1200598" clip-path="url(#clip-path-3)">
              <path id="Trazado_1045436" data-name="Trazado 1045436" d="M269.211,373.2a2.295,2.295,0,1,0-2.295,2.295A2.295,2.295,0,0,0,269.211,373.2Z" transform="translate(-186.824 -322.904)" fill="#abc2e6"/>
            </g>
            <g id="Grupo_1200599" data-name="Grupo 1200599" clip-path="url(#clip-path-3)">
              <path id="Trazado_1045438" data-name="Trazado 1045438" d="M269.211,401.985a2.295,2.295,0,1,0-2.295,2.295A2.295,2.295,0,0,0,269.211,401.985Z" transform="translate(-186.824 -328.729)" fill="#abc2e6"/>
            </g>
            <g id="Grupo_1200600" data-name="Grupo 1200600" clip-path="url(#clip-path-3)">
              <path id="Trazado_1045440" data-name="Trazado 1045440" d="M269.211,430.773a2.295,2.295,0,1,0-2.295,2.295A2.295,2.295,0,0,0,269.211,430.773Z" transform="translate(-186.824 -334.554)" fill="#abc2e6"/>
            </g>
            <g id="Grupo_1200601" data-name="Grupo 1200601" clip-path="url(#clip-path-3)">
              <path id="Trazado_1045442" data-name="Trazado 1045442" d="M233.878,304.882l18.9,25.825-9.479,12.7L221.64,316.24Z" transform="translate(-178.127 -309.545)"/>
            </g>
            <g id="Grupo_1200602" data-name="Grupo 1200602" clip-path="url(#clip-path-3)">
              <path id="Trazado_1045444" data-name="Trazado 1045444" d="M278.886,302.922l-18.2,27.388,9.152,12.7L292.267,314.5Z" transform="translate(-186.027 -309.149)"/>
            </g>
          </g>
          <g id="Grupo_1200605" data-name="Grupo 1200605" transform="translate(113.01 70.901)">
            <path id="Trazado_1045446" data-name="Trazado 1045446" d="M268.041,271.536l5.5,33.612c2.162,13.223-10.764,24.306-23.265,19.486a21.278,21.278,0,0,1-2.832-1.343,17.333,17.333,0,0,1-8.345-11.888l-6.245-32.777Z" transform="translate(-232.85 -271.536)" fill="#dca37c"/>
            <g id="Grupo_1200604" data-name="Grupo 1200604" clip-path="url(#clip-path-10)">
              <path id="Trazado_1045447" data-name="Trazado 1045447" d="M200.4,275.624l57.175,5.367s.817,24.649-34.811,24.649S200.4,275.624,200.4,275.624Z" transform="translate(-225.795 -272.363)"/>
            </g>
          </g>
          <g id="Grupo_1200608" data-name="Grupo 1200608" transform="translate(86.737 18.869)">
            <path id="Trazado_1045449" data-name="Trazado 1045449" d="M205.591,209.561A184.918,184.918,0,0,1,201.54,239.6c-3.156,14.919-3.164,33.556,13.436,42a34.493,34.493,0,0,0,22.014,2.789c22.654-4.256,27.333-25.212,27.333-25.212s9.113-.675,12.826-9.451-1.688-15.526-9.789-11.477C270.735,216.649,247.784,198.722,205.591,209.561Z" transform="translate(-199.913 -206.305)" fill="#dca37c"/>
            <g id="Grupo_1200606" data-name="Grupo 1200606" clip-path="url(#clip-path-11)">
              <circle id="Elipse_13416" data-name="Elipse 13416" cx="12.955" cy="12.955" r="12.955" transform="translate(-11.773 37.793)" fill="#d68c72"/>
            </g>
            <g id="Grupo_1200607" data-name="Grupo 1200607" clip-path="url(#clip-path-11)">
              <circle id="Elipse_13417" data-name="Elipse 13417" cx="12.955" cy="12.955" r="12.955" transform="translate(38.41 37.793)" fill="#d68c72"/>
            </g>
          </g>
          <path id="Trazado_1045452" data-name="Trazado 1045452" d="M277.441,236.8s1.715-37.214-23.513-47.37-67.2,1.886-52.161,44.159c9.669-23.97,37.327-11.163,53.241-23.686,3.953,16.952,12.085,24.246,12.085,24.246S272.786,230.041,277.441,236.8Z" transform="translate(-112.91 -183.335)"/>
          <g id="Grupo_1200610" data-name="Grupo 1200610" transform="translate(70.381 107.263)">
            <path id="Trazado_1045453" data-name="Trazado 1045453" d="M219.478,317.122l20.726,112.7H180.779S171.348,347.865,201.96,323Z" transform="translate(-179.408 -317.122)" fill="#7a94f0"/>
            <g id="Grupo_1200609" data-name="Grupo 1200609" clip-path="url(#clip-path-13)">
              <path id="Trazado_1045454" data-name="Trazado 1045454" d="M158.079,374.641l23.263-7.061s20.929,50.915,26.393,84.794S149.93,512.959,158.079,374.641Z" transform="translate(-174.946 -327.332)"/>
            </g>
          </g>
          <g id="Grupo_1200612" data-name="Grupo 1200612" transform="translate(140.714 107.263)">
            <path id="Trazado_1045456" data-name="Trazado 1045456" d="M288.308,317.122l-20.726,112.7h59.425s6.766-81.5-21.181-108.232Z" transform="translate(-267.582 -317.122)" fill="#7a94f0"/>
            <g id="Grupo_1200611" data-name="Grupo 1200611" clip-path="url(#clip-path-14)">
              <path id="Trazado_1045457" data-name="Trazado 1045457" d="M347.463,361.225,324.2,354.164s-20.929,50.915-26.393,84.794S355.613,499.543,347.463,361.225Z" transform="translate(-273.63 -324.617)"/>
            </g>
          </g>
          <path id="Trazado_1045459" data-name="Trazado 1045459" d="M156.209,324.88s-.469-20.174-8.445-30.025-28.618-22.989-29.556-16.89,14.375,13.137,13.756,15.952c-17.978-3.753-21.262-4.692-28.3-12.667s-15.013-8.914-11.729-2.346,17.359,22.989,25.334,27.211,20.643,7.507,20.643,7.507l1.877,15.951Z" transform="translate(-91.173 -201.245)" fill="#dca37c"/>
          <path id="Trazado_1045460" data-name="Trazado 1045460" d="M146.442,334.12l23.263-7.061s20.929,50.915,26.393,84.794S138.292,472.439,146.442,334.12Z" transform="translate(-102.209 -211.87)" fill="#7a94f0"/>
          <path id="Trazado_1045461" data-name="Trazado 1045461" d="M341.613,324.762s.469-20.174,8.445-30.025,28.618-22.989,29.556-16.89S365.24,290.984,365.859,293.8c17.978-3.753,21.262-4.692,28.3-12.667s15.013-8.914,11.729-2.346S388.528,301.774,380.552,306,359.91,313.5,359.91,313.5l-1.877,15.951Z" transform="translate(-141.847 -201.222)" fill="#dca37c"/>
          <path id="Trazado_1045462" data-name="Trazado 1045462" d="M355.012,334l-23.263-7.061s-20.929,50.915-26.393,84.794S363.161,472.322,355.012,334Z" transform="translate(-134.443 -211.846)" fill="#7a94f0"/>
          <path id="Trazado_1045463" data-name="Trazado 1045463" d="M226.9,317.122l-10.819,50.726L246.8,425.356Z" transform="translate(-116.447 -209.859)" fill="none" stroke="#000" stroke-linecap="round" stroke-linejoin="round" stroke-miterlimit="10" stroke-width="1"/>
          <path id="Trazado_1045464" data-name="Trazado 1045464" d="M288.517,317.122l-19.9,108.234,29.251-58.48Z" transform="translate(-127.076 -209.859)" fill="none" stroke="#000" stroke-linecap="round" stroke-linejoin="round" stroke-miterlimit="10" stroke-width="1"/>
          <line id="Línea_626" data-name="Línea 626" x1="28.019" y2="6.935" transform="translate(43.733 126.024)" fill="none" stroke="#000" stroke-linecap="round" stroke-linejoin="round" stroke-miterlimit="10" stroke-width="1"/>
          <line id="Línea_627" data-name="Línea 627" x2="27.931" y2="8.55" transform="translate(193.137 124.315)" fill="none" stroke="#000" stroke-linecap="round" stroke-linejoin="round" stroke-miterlimit="10" stroke-width="1"/>
          <circle id="Elipse_13418" data-name="Elipse 13418" cx="2.378" cy="2.378" r="2.378" transform="translate(47.118 123.57)"/>
          <path id="Trazado_1045465" data-name="Trazado 1045465" d="M363.394,339.827a2.378,2.378,0,1,0-2.378,2.378A2.378,2.378,0,0,0,363.394,339.827Z" transform="translate(-145.292 -213.972)"/>
          <path id="Trazado_1045466" data-name="Trazado 1045466" d="M291.191,250.348s-4.875-.79-7.035,6.41c3.158,0,4.209,2.659,3.517,4.32" transform="translate(-130.222 -196.343)" fill="none" stroke="#000" stroke-linecap="round" stroke-linejoin="round" stroke-miterlimit="10" stroke-width="1"/>
          <g id="Grupo_1200613" data-name="Grupo 1200613" transform="translate(96.497 52.049)">
            <path id="Trazado_1045467" data-name="Trazado 1045467" d="M212.149,249.586s3.884-3.788,7.768,0" transform="translate(-212.149 -247.902)" fill="none" stroke="#000" stroke-linecap="round" stroke-linejoin="round" stroke-miterlimit="10" stroke-width="1"/>
            <path id="Trazado_1045468" data-name="Trazado 1045468" d="M218.685,253.729c0-2.523-1-3.771-2.234-3.771s-2.234,1.247-2.234,3.771,1,3.771,2.234,3.771S218.685,256.252,218.685,253.729Z" transform="translate(-212.567 -248.318)"/>
            <path id="Trazado_1045469" data-name="Trazado 1045469" d="M243.813,249.586s3.884-3.788,7.768,0" transform="translate(-218.556 -247.902)" fill="none" stroke="#000" stroke-linecap="round" stroke-linejoin="round" stroke-miterlimit="10" stroke-width="1"/>
            <path id="Trazado_1045470" data-name="Trazado 1045470" d="M250.349,253.729c0-2.523-1-3.771-2.234-3.771s-2.234,1.247-2.234,3.771,1,3.771,2.234,3.771S250.349,256.252,250.349,253.729Z" transform="translate(-218.974 -248.318)"/>
          </g>
          <path id="Trazado_1045471" data-name="Trazado 1045471" d="M227.9,277.58s5.932,2.318,11.864-2.976" transform="translate(-118.839 -201.256)" fill="none" stroke="#000" stroke-linecap="round" stroke-linejoin="round" stroke-miterlimit="10" stroke-width="1"/>
          <path id="Trazado_1045472" data-name="Trazado 1045472" d="M229.792,253.685s-.682,5.029-3.273,7.347-.955,5.182,1.637,5.046" transform="translate(-118.295 -197.023)" fill="none" stroke="#000" stroke-linecap="round" stroke-linejoin="round" stroke-miterlimit="10" stroke-width="1"/>
          <path id="Trazado_1045473" data-name="Trazado 1045473" d="M219.918,240.317c0-1.315-1.739-2.38-3.884-2.38s-3.884,1.066-3.884,2.38.84,1.265,2.985,1.265S219.918,241.632,219.918,240.317Z" transform="translate(-115.652 -193.837)"/>
          <path id="Trazado_1045474" data-name="Trazado 1045474" d="M251.582,240.317c0-1.315-1.739-2.38-3.884-2.38s-3.884,1.066-3.884,2.38.84,1.265,2.985,1.265S251.582,241.632,251.582,240.317Z" transform="translate(-122.059 -193.837)"/>
          <path id="Trazado_1045475" data-name="Trazado 1045475" d="M235.166,306.882l18.9,25.826-9.479,7.945-17.676-25.6Z" transform="translate(-118.64 -207.787)" fill="#d0def5"/>
          <path id="Trazado_1045476" data-name="Trazado 1045476" d="M279.162,304.922l-18.2,27.389,9.152,7.166,18.443-26.17Z" transform="translate(-125.528 -207.39)" fill="#d0def5"/>
          <path id="Trazado_1045477" data-name="Trazado 1045477" d="M284.156,270.232a2.226,2.226,0,1,0,2.226-2.226A2.226,2.226,0,0,0,284.156,270.232Z" transform="translate(-130.222 -199.921)" fill="#fff"/>
          <path id="Trazado_1045478" data-name="Trazado 1045478" d="M251.483,182.65s11.083-.191,20.009,9.952c1.525-7.027-3.162-9.952-3.162-9.952" transform="translate(-123.611 -182.65)" fill="none" stroke="#000" stroke-linecap="round" stroke-linejoin="round" stroke-miterlimit="10" stroke-width="1"/>
          <line id="Línea_628" data-name="Línea 628" x2="0.822" y2="4.468" transform="translate(130.356 215.497)" fill="none" stroke="#000" stroke-linecap="round" stroke-linejoin="round" stroke-miterlimit="10" stroke-width="1"/>
          <line id="Línea_629" data-name="Línea 629" x1="0.822" y2="4.468" transform="translate(140.714 215.497)" fill="none" stroke="#000" stroke-linecap="round" stroke-linejoin="round" stroke-miterlimit="10" stroke-width="1"/>
          <path id="Trazado_1045479" data-name="Trazado 1045479" d="M187.531,357.961s13.631,44.15,21.287,72.542" transform="translate(-110.67 -218.122)" fill="none" stroke="#000" stroke-linecap="round" stroke-linejoin="round" stroke-miterlimit="10" stroke-width="1"/>
          <path id="Trazado_1045480" data-name="Trazado 1045480" d="M325.194,346.771s-13.631,44.15-21.287,72.541" transform="translate(-134.218 -215.858)" fill="none" stroke="#000" stroke-linecap="round" stroke-linejoin="round" stroke-miterlimit="10" stroke-width="1"/>
        </g>
        <g id="Grupo_1200620" data-name="Grupo 1200620" transform="translate(29.915 55.717)">
          <g id="Grupo_1200616" data-name="Grupo 1200616" transform="translate(10.411 5.862)">
            <path id="Trazado_1045481" data-name="Trazado 1045481" d="M136.932,106.756c5.407-8.691-23.149-18.46-23.149-18.46s-9.743,14.27-11.341,22.94c11.638,14.087,27.61,26.758,34.49,29.953,4.524,2.1,6.043-.43,6.554-2.41a4.764,4.764,0,0,0,.487.072c4.563.4,5.933-4.051,5.933-4.051s5.933.684,6.617-4.792l.156-.022a4.784,4.784,0,0,0,1.912-8.671C153.428,117.765,143.427,110.931,136.932,106.756Z" transform="translate(-102.442 -88.296)" fill="#dca37c"/>
            <g id="Grupo_1200615" data-name="Grupo 1200615" clip-path="url(#clip-path-15)">
              <path id="Trazado_1045482" data-name="Trazado 1045482" d="M118.1,87.336l-12.161,30.375L93.693,109.47,111.72,80.947Z" transform="translate(-100.672 -86.809)"/>
            </g>
          </g>
          <path id="Trazado_1045484" data-name="Trazado 1045484" d="M130.238,138.866c-2.8,3.605-3.7,6.641-1.708,8.189s4.712-.069,7.514-3.675,3.7-6.641,1.708-8.189S133.041,135.261,130.238,138.866Z" transform="translate(-97.092 -91.804)" fill="#873915"/>
          <path id="Trazado_1045485" data-name="Trazado 1045485" d="M135.764,144.628c-2.114,2.718-2.668,5.1-.9,6.475s3.939.248,6.053-2.47,2.668-5.1.9-6.475S137.878,141.909,135.764,144.628Z" transform="translate(-98.377 -93.214)" fill="#873915"/>
          <path id="Trazado_1045486" data-name="Trazado 1045486" d="M123.815,133.293c-3.2,4.123-4.362,7.492-2.37,9.041s4.971-.4,8.177-4.527,4.362-7.492,2.37-9.04S127.021,129.17,123.815,133.293Z" transform="translate(-95.677 -90.516)" fill="#873915"/>
          <path id="Trazado_1045487" data-name="Trazado 1045487" d="M117.553,128.2c-2.948,3.793-3.939,6.948-1.947,8.5s4.805-.19,7.753-3.983,3.939-6.948,1.947-8.5S120.5,124.408,117.553,128.2Z" transform="translate(-94.484 -89.588)" fill="#873915"/>
          <g id="Grupo_1200619" data-name="Grupo 1200619" transform="translate(21.752 7.53)">
            <path id="Trazado_1045488" data-name="Trazado 1045488" d="M163.125,90.387s-15.027.228-25.426,5.249-22.493,13.059-20.9,16.912,8.9,1.014,14.6-2.473,10.268-1.643,10.268-1.643l16.707,11.19s10.676-5.227,11.588-16.432C166.776,94.038,163.125,90.387,163.125,90.387Z" transform="translate(-116.66 -90.387)" fill="#873915"/>
            <g id="Grupo_1200617" data-name="Grupo 1200617" clip-path="url(#clip-path-16)">
              <path id="Trazado_1045489" data-name="Trazado 1045489" d="M148.022,113.009s21.465,7.328,25.6,15.01-24.086,1.5-25.6-15.01" transform="translate(-123.006 -94.964)"/>
            </g>
            <g id="Grupo_1200618" data-name="Grupo 1200618" clip-path="url(#clip-path-16)">
              <path id="Trazado_1045491" data-name="Trazado 1045491" d="M160.135,88.085l14.144,29.777,13.7-7.643L169.947,81.7Z" transform="translate(-125.457 -88.628)"/>
            </g>
          </g>
          <path id="Trazado_1045493" data-name="Trazado 1045493" d="M160.637,87.336l18.027,27.61,9.812-5.477L170.449,80.947Z" transform="translate(-103.806 -80.947)" fill="#7a94f0"/>
          <path id="Trazado_1045494" data-name="Trazado 1045494" d="M117.229,87.336,99.2,114.946,89.39,109.47l18.027-28.523Z" transform="translate(-89.39 -80.947)" fill="#7a94f0"/>
        </g>
        <g id="Grupo_1200625" data-name="Grupo 1200625" transform="translate(271.969 63.377)">
          <g id="Grupo_1200623" data-name="Grupo 1200623" transform="translate(0 22.742)">
            <path id="Trazado_1045495" data-name="Trazado 1045495" d="M338.352,143.031l-4.606,14.394,15.834-11.8Z" transform="translate(-333.746 -111.939)" fill="#abc2e6"/>
            <g id="Grupo_1200622" data-name="Grupo 1200622">
              <path id="Trazado_1045496" data-name="Trazado 1045496" d="M381.07,140.326H346.014a12.3,12.3,0,0,1-12.268-12.268V116.32a12.3,12.3,0,0,1,12.268-12.268H381.07a12.3,12.3,0,0,1,12.267,12.268v11.738A12.3,12.3,0,0,1,381.07,140.326Z" transform="translate(-333.746 -104.052)" fill="#abc2e6"/>
              <g id="Grupo_1200621" data-name="Grupo 1200621" clip-path="url(#clip-path-18)">
                <path id="Trazado_1045497" data-name="Trazado 1045497" d="M403.173,117.589H368.117a12.3,12.3,0,0,1-12.268-12.268V93.584a12.3,12.3,0,0,1,12.268-12.268h35.056A12.3,12.3,0,0,1,415.44,93.584v11.738A12.3,12.3,0,0,1,403.173,117.589Z" transform="translate(-338.218 -99.452)"/>
              </g>
            </g>
            <line id="Línea_630" data-name="Línea 630" x2="39.097" transform="translate(9.827 13.003)" fill="none" stroke="#000" stroke-linecap="round" stroke-linejoin="round" stroke-miterlimit="10" stroke-width="1"/>
            <line id="Línea_631" data-name="Línea 631" x2="39.097" transform="translate(9.827 23.271)" fill="none" stroke="#000" stroke-linecap="round" stroke-linejoin="round" stroke-miterlimit="10" stroke-width="1"/>
          </g>
          <g id="Grupo_1200624" data-name="Grupo 1200624" transform="translate(17.631)">
            <path id="Trazado_1045499" data-name="Trazado 1045499" d="M422.11,114.519l4.606,14.394-15.834-11.8Z" transform="translate(-366.985 -83.428)" fill="#e797b3"/>
            <path id="Trazado_1045500" data-name="Trazado 1045500" d="M403.173,111.814H368.117a12.3,12.3,0,0,1-12.268-12.268V87.809a12.3,12.3,0,0,1,12.268-12.268h35.056A12.3,12.3,0,0,1,415.44,87.809V99.547A12.3,12.3,0,0,1,403.173,111.814Z" transform="translate(-355.849 -75.541)" fill="#e797b3"/>
          </g>
          <line id="Línea_632" data-name="Línea 632" x2="39.097" transform="translate(28.122 13.003)" fill="none" stroke="#000" stroke-linecap="round" stroke-linejoin="round" stroke-miterlimit="10" stroke-width="1"/>
          <line id="Línea_633" data-name="Línea 633" x2="39.097" transform="translate(28.122 23.271)" fill="none" stroke="#000" stroke-linecap="round" stroke-linejoin="round" stroke-miterlimit="10" stroke-width="1"/>
        </g>
      </g>
    </g>
  </g>
</svg>
