<svg xmlns="http://www.w3.org/2000/svg" xmlns:xlink="http://www.w3.org/1999/xlink" width="113" height="113" viewBox="0 0 113 113">
  <defs>
    <filter id="Trazado_982547" x="0" y="0" width="113" height="113" filterUnits="userSpaceOnUse">
      <feOffset dy="3" input="SourceAlpha"/>
      <feGaussianBlur stdDeviation="3" result="blur"/>
      <feFlood flood-opacity="0.161"/>
      <feComposite operator="in" in2="blur"/>
      <feComposite in="SourceGraphic"/>
    </filter>
  </defs>
  <g id="Grupo_1200715" data-name="Grupo 1200715" transform="translate(-155 -1792)">
    <g id="Grupo_1200318" data-name="Grupo 1200318" transform="translate(0 -3239)">
      <g id="Grupo_1185978" data-name="Grupo 1185978" transform="translate(164 5037)">
        <g id="Grupo_1180760" data-name="Grupo 1180760">
          <g id="Grupo_1174888" data-name="Grupo 1174888">
            <g id="Grupo_1166845" data-name="Grupo 1166845">
              <g id="Grupo_1166720" data-name="Grupo 1166720">
                <g id="Grupo_1164305" data-name="Grupo 1164305">
                  <g id="Grupo_1163948" data-name="Grupo 1163948">
                    <g id="Grupo_1158168" data-name="Grupo 1158168">
                      <g id="Grupo_1152576" data-name="Grupo 1152576">
                        <g id="Grupo_1148633" data-name="Grupo 1148633">
                          <g id="Grupo_1148525" data-name="Grupo 1148525">
                            <g transform="matrix(1, 0, 0, 1, -9, -6)" filter="url(#Trazado_982547)">
                              <g id="Trazado_982547-2" data-name="Trazado 982547" transform="translate(9 6)" fill="#e9f9fd">
                                <path d="M 47.5 93.5 C 41.28937149047852 93.5 35.26533508300781 92.28397369384766 29.59518623352051 89.88570404052734 C 24.11771965026855 87.56893157958984 19.19813346862793 84.25196075439453 14.97309303283691 80.02691650390625 C 10.74804019927979 75.80186462402344 7.431066513061523 70.88229370117188 5.114293098449707 65.40481567382812 C 2.716026782989502 59.73468017578125 1.5 53.71062850952148 1.5 47.5 C 1.5 41.28937149047852 2.716026782989502 35.26533508300781 5.114293098449707 29.59518623352051 C 7.431066513061523 24.11771965026855 10.74804019927979 19.19813346862793 14.97309303283691 14.97309303283691 C 19.19813346862793 10.74804019927979 24.11771965026855 7.431066513061523 29.59518623352051 5.114293098449707 C 35.26533508300781 2.716026782989502 41.28937149047852 1.5 47.5 1.5 C 53.71062850952148 1.5 59.73468017578125 2.716026782989502 65.40481567382812 5.114293098449707 C 70.88229370117188 7.431066513061523 75.80186462402344 10.74804019927979 80.02691650390625 14.97309303283691 C 84.25196075439453 19.19813346862793 87.56893157958984 24.11771965026855 89.88570404052734 29.59518623352051 C 92.28397369384766 35.26533508300781 93.5 41.28937149047852 93.5 47.5 C 93.5 53.71062850952148 92.28397369384766 59.73468017578125 89.88570404052734 65.40481567382812 C 87.56893157958984 70.88229370117188 84.25196075439453 75.80186462402344 80.02691650390625 80.02691650390625 C 75.80186462402344 84.25196075439453 70.88229370117188 87.56893157958984 65.40481567382812 89.88570404052734 C 59.73468017578125 92.28397369384766 53.71062850952148 93.5 47.5 93.5 Z" stroke="none"/>
                                <path d="M 47.5 3 C 41.49121475219727 3 35.66376876831055 4.176155090332031 30.17950439453125 6.495796203613281 C 24.88084411621094 8.736953735351562 20.12152099609375 11.94598388671875 16.03375244140625 16.03375244140625 C 11.94598388671875 20.12152099609375 8.736953735351562 24.88084411621094 6.495796203613281 30.17950439453125 C 4.176155090332031 35.66376876831055 3 41.49121475219727 3 47.5 C 3 53.50878524780273 4.176155090332031 59.33623123168945 6.495796203613281 64.82049560546875 C 8.736953735351562 70.11915588378906 11.94598388671875 74.87847900390625 16.03375244140625 78.96624755859375 C 20.12152099609375 83.05401611328125 24.88084411621094 86.26304626464844 30.17950439453125 88.50419616699219 C 35.66376876831055 90.82384490966797 41.49121475219727 92 47.5 92 C 53.50878524780273 92 59.33623123168945 90.82384490966797 64.82049560546875 88.50419616699219 C 70.11915588378906 86.26304626464844 74.87847900390625 83.05401611328125 78.96624755859375 78.96624755859375 C 83.05401611328125 74.87847900390625 86.26304626464844 70.11915588378906 88.50419616699219 64.82049560546875 C 90.82384490966797 59.33623123168945 92 53.50878524780273 92 47.5 C 92 41.49121475219727 90.82384490966797 35.66376876831055 88.50419616699219 30.17950439453125 C 86.26304626464844 24.88084411621094 83.05401611328125 20.12152099609375 78.96624755859375 16.03375244140625 C 74.87847900390625 11.94598388671875 70.11915588378906 8.736953735351562 64.82049560546875 6.495796203613281 C 59.33623123168945 4.176155090332031 53.50878524780273 3 47.5 3 M 47.5 0 C 73.7335205078125 0 95 21.2664794921875 95 47.5 C 95 73.7335205078125 73.7335205078125 95 47.5 95 C 21.2664794921875 95 0 73.7335205078125 0 47.5 C 0 21.2664794921875 21.2664794921875 0 47.5 0 Z" stroke="none" fill="#36ceef"/>
                              </g>
                            </g>
                          </g>
                        </g>
                      </g>
                    </g>
                  </g>
                </g>
              </g>
            </g>
          </g>
        </g>
      </g>
    </g>
    <g id="lider_2_" data-name="lider (2)" transform="translate(179.237 1803.762)">
      <g id="Grupo_1200713" data-name="Grupo 1200713" transform="translate(0.945 9.151)">
        <g id="Grupo_1200709" data-name="Grupo 1200709" transform="translate(0 13.099)">
          <g id="Grupo_1200703" data-name="Grupo 1200703" transform="translate(0 15.087)">
            <g id="Grupo_1200695" data-name="Grupo 1200695" transform="translate(42.089)">
              <g id="Grupo_1200694" data-name="Grupo 1200694">
                <g id="Grupo_1200693" data-name="Grupo 1200693">
                  <g id="Grupo_1200692" data-name="Grupo 1200692">
                    <path id="Trazado_1045528" data-name="Trazado 1045528" d="M362.016,358.638H341.47v-8.173a7.134,7.134,0,0,1,7.134-7.134h6.277a7.134,7.134,0,0,1,7.134,7.134v8.173Z" transform="translate(-341.47 -330.227)" fill="#27d1b3"/>
                    <g id="Grupo_1200689" data-name="Grupo 1200689" transform="translate(7.067 13.103)">
                      <g id="Grupo_1200688" data-name="Grupo 1200688">
                        <path id="Trazado_1045529" data-name="Trazado 1045529" d="M403.7,352.9l-2.453,2.157a.752.752,0,0,1-.993,0L397.8,352.9a.752.752,0,0,1-.232-.752l2.26-8.82h1.845l2.26,8.82A.753.753,0,0,1,403.7,352.9Z" transform="translate(-397.548 -343.331)" fill="#fb4a59"/>
                      </g>
                    </g>
                    <path id="Trazado_1045530" data-name="Trazado 1045530" d="M429.272,350.465v8.173h-3.713v-8.173a7.136,7.136,0,0,0-7.134-7.134h3.713A7.136,7.136,0,0,1,429.272,350.465Z" transform="translate(-408.726 -330.227)" fill="#20b69f"/>
                    <g id="Grupo_1200691" data-name="Grupo 1200691" transform="translate(4.457)">
                      <g id="Grupo_1200690" data-name="Grupo 1200690">
                        <path id="Trazado_1045531" data-name="Trazado 1045531" d="M382.649,253.092a5.816,5.816,0,0,1-5.816-5.816v-2.1a5.816,5.816,0,0,1,11.633,0v2.1A5.816,5.816,0,0,1,382.649,253.092Z" transform="translate(-376.833 -239.36)" fill="#ffcec0"/>
                        <path id="Trazado_1045532" data-name="Trazado 1045532" d="M416.037,245.181v2.1a5.82,5.82,0,0,1-7.657,5.519,5.82,5.82,0,0,0,3.974-5.519v-2.1a5.821,5.821,0,0,0-3.974-5.519,5.817,5.817,0,0,1,7.657,5.519Z" transform="translate(-404.404 -239.364)" fill="#fdb0a0"/>
                      </g>
                    </g>
                  </g>
                </g>
              </g>
            </g>
            <g id="Grupo_1200702" data-name="Grupo 1200702">
              <g id="Grupo_1200701" data-name="Grupo 1200701">
                <g id="Grupo_1200700" data-name="Grupo 1200700">
                  <path id="Trazado_1045533" data-name="Trazado 1045533" d="M28.046,358.638H7.5v-8.173a7.134,7.134,0,0,1,7.134-7.134h6.277a7.134,7.134,0,0,1,7.135,7.134v8.173Z" transform="translate(-7.5 -330.227)" fill="#fb4a59"/>
                  <g id="Grupo_1200697" data-name="Grupo 1200697" transform="translate(7.067 13.103)">
                    <g id="Grupo_1200696" data-name="Grupo 1200696">
                      <path id="Trazado_1045534" data-name="Trazado 1045534" d="M69.734,352.9,67.28,355.06a.752.752,0,0,1-.993,0L63.833,352.9a.752.752,0,0,1-.232-.752l2.26-8.82h1.845l2.26,8.82A.753.753,0,0,1,69.734,352.9Z" transform="translate(-63.578 -343.331)" fill="#f8f3f1"/>
                    </g>
                  </g>
                  <path id="Trazado_1045535" data-name="Trazado 1045535" d="M95.3,350.465v8.173H91.589v-8.173a7.136,7.136,0,0,0-7.134-7.134h3.713A7.136,7.136,0,0,1,95.3,350.465Z" transform="translate(-74.756 -330.227)" fill="#f82f40"/>
                  <g id="Grupo_1200699" data-name="Grupo 1200699" transform="translate(4.457)">
                    <g id="Grupo_1200698" data-name="Grupo 1200698">
                      <path id="Trazado_1045536" data-name="Trazado 1045536" d="M48.679,253.092a5.816,5.816,0,0,1-5.816-5.816v-2.1a5.816,5.816,0,0,1,11.633,0v2.1A5.816,5.816,0,0,1,48.679,253.092Z" transform="translate(-42.863 -239.36)" fill="#ffcec0"/>
                      <path id="Trazado_1045537" data-name="Trazado 1045537" d="M82.067,245.181v2.1A5.82,5.82,0,0,1,74.41,252.8a5.82,5.82,0,0,0,3.974-5.519v-2.1a5.821,5.821,0,0,0-3.974-5.519,5.817,5.817,0,0,1,7.657,5.519Z" transform="translate(-70.434 -239.364)" fill="#fdb0a0"/>
                    </g>
                  </g>
                </g>
              </g>
            </g>
          </g>
          <g id="Grupo_1200708" data-name="Grupo 1200708" transform="translate(16.882 0)">
            <path id="Trazado_1045538" data-name="Trazado 1045538" d="M170.329,339.687H141.458V327.129A10.025,10.025,0,0,1,151.483,317.1h8.82a10.025,10.025,0,0,1,10.025,10.025v12.557Z" transform="translate(-141.458 -292.219)" fill="#0d5f7f"/>
            <path id="Trazado_1045539" data-name="Trazado 1045539" d="M264.833,327.129v12.557h-5.218V327.129A10.027,10.027,0,0,0,249.59,317.1h5.218A10.027,10.027,0,0,1,264.833,327.129Z" transform="translate(-235.962 -292.219)" fill="#094c66"/>
            <path id="Trazado_1045540" data-name="Trazado 1045540" d="M210.312,317.663l-7.7,14.662-7.7-14.662a10.037,10.037,0,0,1,3.289-.552h8.818A10.037,10.037,0,0,1,210.312,317.663Z" transform="translate(-188.179 -292.225)" fill="#fff"/>
            <path id="Trazado_1045541" data-name="Trazado 1045541" d="M232.684,324.841l-3.929,7.484-3.929-7.484,2.83-7.73h2.2Z" transform="translate(-214.319 -292.225)" fill="#fb4a59"/>
            <g id="Grupo_1200707" data-name="Grupo 1200707" transform="translate(1.181)">
              <g id="Grupo_1200704" data-name="Grupo 1200704" transform="translate(0 12.175)">
                <circle id="Elipse_13420" data-name="Elipse 13420" cx="3.095" cy="3.095" r="3.095" fill="#fdb0a0"/>
              </g>
              <g id="Grupo_1200705" data-name="Grupo 1200705" transform="translate(20.318 12.175)">
                <circle id="Elipse_13421" data-name="Elipse 13421" cx="3.095" cy="3.095" r="3.095" fill="#f69583"/>
              </g>
              <g id="Grupo_1200706" data-name="Grupo 1200706" transform="translate(5.081 6.473)">
                <path id="Trazado_1045542" data-name="Trazado 1045542" d="M199.322,190.3a8.173,8.173,0,0,1-8.173-8.173v-2.95a8.173,8.173,0,1,1,16.346,0v2.95A8.173,8.173,0,0,1,199.322,190.3Z" transform="translate(-191.149 -171.008)" fill="#ffcec0"/>
                <path id="Trazado_1045543" data-name="Trazado 1045543" d="M250.559,179.179v2.95a8.172,8.172,0,0,1-8.173,8.173,8.09,8.09,0,0,1-1.963-.239,8.173,8.173,0,0,0,6.208-7.935v-2.95a8.177,8.177,0,0,0-6.208-7.935,8.172,8.172,0,0,1,10.136,7.935Z" transform="translate(-234.213 -171.006)" fill="#fdb0a0"/>
              </g>
              <path id="Trazado_1045544" data-name="Trazado 1045544" d="M265.425,143.191a22.919,22.919,0,0,1-7.7-.424,4.584,4.584,0,0,1-3.354-4.434v-3.119a2.864,2.864,0,0,1,2.864-2.864h2.154a7.085,7.085,0,0,1,7.085,7.084v2.6A1.164,1.164,0,0,1,265.425,143.191Z" transform="translate(-241.323 -130.75)" fill="#7a7179"/>
              <path id="Trazado_1045545" data-name="Trazado 1045545" d="M279.9,139.433v2.6a1.163,1.163,0,0,1-1.051,1.158,26.768,26.768,0,0,1-5.02.042c.166-.015.319-.027.462-.042a1.163,1.163,0,0,0,1.049-1.158v-2.6a7.084,7.084,0,0,0-5.607-6.93,2.819,2.819,0,0,1,.927-.155h2.154A7.085,7.085,0,0,1,279.9,139.433Z" transform="translate(-254.747 -130.746)" fill="#685e67"/>
              <path id="Trazado_1045546" data-name="Trazado 1045546" d="M162.636,132.41a27.281,27.281,0,0,0,9.273-.479,5.4,5.4,0,0,0,3.953-5.226v-3.677a3.376,3.376,0,0,0-3.376-3.376h-2.539A8.351,8.351,0,0,0,161.6,128v3.249A1.163,1.163,0,0,0,162.636,132.41Z" transform="translate(-160.24 -119.651)" fill="#9b8f99"/>
              <path id="Trazado_1045547" data-name="Trazado 1045547" d="M191.061,123.022V126.7a5.4,5.4,0,0,1-3.952,5.227,25.738,25.738,0,0,1-8.122.581,19.389,19.389,0,0,0,3.526-.581,5.4,5.4,0,0,0,3.954-5.227v-3.677a3.377,3.377,0,0,0-2.582-3.281,8.339,8.339,0,0,1,1.261-.094h2.54A3.376,3.376,0,0,1,191.061,123.022Z" transform="translate(-175.438 -119.647)" fill="#8b8088"/>
            </g>
          </g>
        </g>
        <g id="Grupo_1200712" data-name="Grupo 1200712" transform="translate(5.178 0)">
          <g id="Grupo_1200710" data-name="Grupo 1200710">
            <circle id="Elipse_13422" data-name="Elipse 13422" cx="11.525" cy="11.525" r="11.525" fill="#27d1b3"/>
            <path id="Trazado_1045548" data-name="Trazado 1045548" d="M130.341,27.234a11.533,11.533,0,0,1-14.582,11.115,11.114,11.114,0,0,0,0-22.228,11.535,11.535,0,0,1,14.585,11.114Z" transform="translate(-107.291 -15.709)" fill="#20b69f"/>
          </g>
          <g id="Grupo_1200711" data-name="Grupo 1200711" transform="translate(4.134 5.822)">
            <path id="Trazado_1045549" data-name="Trazado 1045549" d="M85.695,73.242l-4.136-4.136a.593.593,0,0,1,0-.839l1.708-1.708a.593.593,0,0,1,.839,0l2.428,2.428,6.914-6.914a.593.593,0,0,1,.839,0l1.708,1.708a.593.593,0,0,1,0,.839l-8.622,8.622A1.186,1.186,0,0,1,85.695,73.242Z" transform="translate(-81.385 -61.9)" fill="#bcea73"/>
          </g>
        </g>
      </g>
      <g id="Grupo_1200714" data-name="Grupo 1200714" transform="translate(0 8.206)">
        <path id="Trazado_1045550" data-name="Trazado 1045550" d="M58.37,49.729a6.732,6.732,0,0,0,1.7-4.475v-2.1a6.762,6.762,0,0,0-13.523,0v2.1a6.732,6.732,0,0,0,1.7,4.476,8.082,8.082,0,0,0-2.588,1.144,11.023,11.023,0,0,0-5.336-4.059.938.938,0,0,0-.1-.036,10.88,10.88,0,0,0-1.59-.414,9.1,9.1,0,0,0,2.618-4.978,4.04,4.04,0,0,0,3.688-7.027,2.113,2.113,0,0,0,.169-.827v-2.6a8.039,8.039,0,0,0-8.03-8.03H34.922c-.1,0-.2.005-.3.013a4.314,4.314,0,0,0-3.364-1.614H30.1c.01-.209.018-.419.018-.63A12.468,12.468,0,1,0,19.42,33.02v.831a2.121,2.121,0,0,0,.08.58,4.04,4.04,0,0,0,3.777,6.956A9.105,9.105,0,0,0,25.9,46.366a10.865,10.865,0,0,0-1.564.406.946.946,0,0,0-.156.055,11.053,11.053,0,0,0-5.306,4.053,8.042,8.042,0,0,0-2.59-1.152,6.732,6.732,0,0,0,1.7-4.475v-2.1a6.762,6.762,0,1,0-13.523,0v2.1a6.732,6.732,0,0,0,1.7,4.475A8.093,8.093,0,0,0,0,57.575v8.173a.945.945,0,0,0,1.89,0V57.575A6.2,6.2,0,0,1,8.08,51.386h.295a6.745,6.745,0,0,0,.638.258L7.121,59.026a1.69,1.69,0,0,0,.524,1.7L10.1,62.879a1.7,1.7,0,0,0,2.241,0l2.454-2.157a1.69,1.69,0,0,0,.523-1.7l-1.892-7.383a6.745,6.745,0,0,0,.638-.258h.294a6.154,6.154,0,0,1,3.563,1.132,10.877,10.877,0,0,0-1.036,4.569.945.945,0,0,0,.939.952h.006a.945.945,0,0,0,.945-.939,9.1,9.1,0,0,1,5.352-8.212l7.191,13.7v7.127a.945.945,0,0,0,1.89,0V62.583l7.192-13.7a9.091,9.091,0,0,1,5.352,8.276V69.718a.945.945,0,0,0,1.89,0V57.161a10.905,10.905,0,0,0-1.035-4.648,6.193,6.193,0,0,1,3.56-1.127h.294a6.724,6.724,0,0,0,.638.258l-1.892,7.383a1.69,1.69,0,0,0,.524,1.7l2.454,2.157a1.7,1.7,0,0,0,2.241,0l2.453-2.157a1.69,1.69,0,0,0,.524-1.7l-.3-1.179a.945.945,0,1,0-1.831.469l.273,1.065-2.237,1.967L51.07,59.381l1.89-7.375q.173.009.348.009t.348-.009l.48,1.874a.945.945,0,0,0,1.831-.469l-.453-1.768a6.7,6.7,0,0,0,.642-.26l.042,0h.248a6.2,6.2,0,0,1,6.189,6.189v8.173a.945.945,0,0,0,1.89,0V57.575a8.093,8.093,0,0,0-6.156-7.846ZM6.347,43.154a4.871,4.871,0,0,1,9.742,0v2.1a4.871,4.871,0,1,1-9.742,0v-2.1Zm7.108,16.227-2.237,1.967L8.981,59.381l1.889-7.375q.173.009.348.009t.348-.009ZM42.422,39.671a2.134,2.134,0,0,1-1.041-.27V36.9a9.145,9.145,0,0,0-.072-1.137c.735-.026,1.385-.076,1.9-.127.065-.006.13-.016.193-.028a2.151,2.151,0,0,1-.975,4.067ZM37.076,24.8a6.146,6.146,0,0,1,6.139,6.139v2.6a.219.219,0,0,1-.2.219,21.913,21.913,0,0,1-7.358-.4,3.56,3.56,0,0,1-1.133-.541,6.393,6.393,0,0,0,1.05-3.512V25.627a4.328,4.328,0,0,0-.081-.83h1.58ZM24.586,31.038a.945.945,0,1,0-1.053-1.57,10.581,10.581,0,1,1,2.957-2.983.945.945,0,0,0,1.579,1.04A12.4,12.4,0,0,0,29.86,23.2h1.4a2.433,2.433,0,0,1,2.43,2.43V29.3a4.461,4.461,0,0,1-3.256,4.314,26.67,26.67,0,0,1-8.926.451.217.217,0,0,1-.193-.218V32.6A12.4,12.4,0,0,0,24.586,31.038Zm-4.633,6.483a2.146,2.146,0,0,1,.831-1.7,2.113,2.113,0,0,0,.521.125c.518.055,1.156.11,1.876.147-.024.268-.037.535-.037.8V39.4a2.149,2.149,0,0,1-3.191-1.881Zm5.081,2.326V36.9a7.168,7.168,0,0,1,.042-.755,23.114,23.114,0,0,0,5.85-.7,6.229,6.229,0,0,0,2.335-1.213,5.46,5.46,0,0,0,1.9.951,18.774,18.774,0,0,0,4.236.583,7.289,7.289,0,0,1,.091,1.133v2.95a7.228,7.228,0,1,1-14.456,0Zm7.228,20.47-2.9-5.519,2.148-5.867c.248.02.5.033.75.033s.5-.013.75-.033L35.16,54.8Zm-4.41-12.236h.5a9.055,9.055,0,0,0,1.281.5l-1.451,3.963-2.234-4.254A9.032,9.032,0,0,1,27.853,48.081Zm8.494,4.459L34.9,48.576a9.056,9.056,0,0,0,1.283-.5h.495a9.082,9.082,0,0,1,1.908.2Zm12.09-7.286v-2.1a4.871,4.871,0,1,1,9.742,0v2.1a4.871,4.871,0,1,1-9.742,0Z" transform="translate(0 -8.206)"/>
        <path id="Trazado_1045551" data-name="Trazado 1045551" d="M134.9,424.906a.945.945,0,0,0-.945.945V433.9a.945.945,0,1,0,1.89,0v-8.052A.945.945,0,0,0,134.9,424.906Z" transform="translate(-117.076 -372.391)"/>
        <path id="Trazado_1045552" data-name="Trazado 1045552" d="M277.5,445.24h-.024a.945.945,0,0,0,0,1.89h.024a.945.945,0,0,0,0-1.89Z" transform="translate(-241.682 -390.162)"/>
        <path id="Trazado_1045553" data-name="Trazado 1045553" d="M90.112,56.559,88.4,54.851a1.538,1.538,0,0,0-2.175,0L79.983,61.1l-1.759-1.759a1.538,1.538,0,0,0-2.175,0l-1.708,1.708a1.54,1.54,0,0,0,0,2.175l4.136,4.136a2.134,2.134,0,0,0,3.014,0l8.622-8.622a1.54,1.54,0,0,0,0-2.175Zm-9.958,9.46a.241.241,0,0,1-.341,0l-3.887-3.887,1.21-1.21L79.315,63.1a.945.945,0,0,0,1.337,0l6.665-6.664,1.21,1.21Z" transform="translate(-64.579 -48.578)"/>
      </g>
    </g>
  </g>
</svg>
