<svg xmlns="http://www.w3.org/2000/svg" xmlns:xlink="http://www.w3.org/1999/xlink" width="190" height="175" viewBox="0 0 190 175">
  <defs>
    <clipPath id="clip-path">
      <rect id="Rectángulo_415883" data-name="Rectángulo 415883" width="190" height="175" transform="translate(180 4199)" fill="#fff" stroke="#707070" stroke-width="1" opacity="0.6"/>
    </clipPath>
  </defs>
  <g id="Enmascarar_grupo_1098869" data-name="Enmascarar grupo 1098869" transform="translate(-180 -4199)" clip-path="url(#clip-path)">
    <g id="Grupo_1200771" data-name="Grupo 1200771">
      <ellipse id="Elipse_13427" data-name="Elipse 13427" cx="5.5" cy="5" rx="5.5" ry="5" transform="translate(335 4240)" fill="#e9f9fd" opacity="0.73"/>
      <ellipse id="Elipse_13428" data-name="Elipse 13428" cx="25.5" cy="25" rx="25.5" ry="25" transform="translate(184 4303)" fill="#e9f9fd" opacity="0.73"/>
      <ellipse id="Elipse_13429" data-name="Elipse 13429" cx="8.5" cy="7.5" rx="8.5" ry="7.5" transform="translate(344 4248)" fill="#e9f9fd" opacity="0.73"/>
      <ellipse id="Elipse_13430" data-name="Elipse 13430" cx="2.5" cy="2" rx="2.5" ry="2" transform="translate(349 4241)" fill="#e9f9fd" opacity="0.73"/>
      <g id="ecology_11191797" transform="translate(185.808 4199.414)">
        <g id="Grupo_1200737" data-name="Grupo 1200737" transform="translate(2.297 3.795)">
          <path id="Trazado_1046054" data-name="Trazado 1046054" d="M158.412,81.6A77.445,77.445,0,0,1,148.2,120.225a78.369,78.369,0,0,1-46.212,36.536A78.285,78.285,0,0,1,1.86,81.6a78.267,78.267,0,0,1,140.33-47.68,79.117,79.117,0,0,1,9,14.84,77.47,77.47,0,0,1,7.222,32.84Z" transform="translate(-1.86 -3.34)" fill="#509dff"/>
        </g>
        <g id="Grupo_1200738" data-name="Grupo 1200738" transform="translate(11.325 20.018)">
          <path id="Trazado_1046055" data-name="Trazado 1046055" d="M21.169,25.03a2.909,2.909,0,0,0,.31,3.386,18.889,18.889,0,0,0,2.737,2.426,10.727,10.727,0,0,1,3.668,8.379c-.085,1.806-.818,3.809-2.511,4.429a4.147,4.147,0,0,1-3.357-.423,15.6,15.6,0,0,1-2.737-2.2A26.979,26.979,0,0,0,5.06,34.707,78.513,78.513,0,0,1,26.643,9.09a12.65,12.65,0,0,1,3.95,9.226c-.028,2.483-1.241,5.3-3.668,5.84a13.252,13.252,0,0,1-2.991-.028,3.133,3.133,0,0,0-2.765.9Z" transform="translate(-5.06 -9.09)" fill="#308cef"/>
        </g>
        <g id="Grupo_1200739" data-name="Grupo 1200739" transform="translate(6.951 13.317)">
          <path id="Trazado_1046056" data-name="Trazado 1046056" d="M32.626,61.914a12.7,12.7,0,0,1-7.9-3.244,40.215,40.215,0,0,1-4.345-4.429c-.536-.621-1.1-1.241-1.636-1.834a17.175,17.175,0,0,0-6.63-4.768,12.7,12.7,0,0,0-7.73.085A.688.688,0,1,1,4.018,46.4,14.126,14.126,0,0,1,12.6,46.34a18.321,18.321,0,0,1,7.166,5.135c.564.621,1.129,1.241,1.665,1.862A35.06,35.06,0,0,0,25.6,57.6a10.9,10.9,0,0,0,7.335,2.934c2.37-.113,5.107-1.806,5.558-4.4.282-1.721-.423-3.414-1.185-5.219-.282-.649-.536-1.3-.762-1.918-1.044-2.906-.677-6.63,2.116-7.759,2.031-.846,3.922.226,5.755,1.241a9.2,9.2,0,0,0,3.752,1.5,4.45,4.45,0,0,0,4.288-3.555,6.287,6.287,0,0,0-2.088-5.7,10.662,10.662,0,0,0-6.038-2.455c-.592-.056-1.185-.085-1.777-.141a16.756,16.756,0,0,1-3.329-.395,5.626,5.626,0,0,1-4.288-3.5c-.592-1.89.2-4.091,2.172-6.066.451-.423.9-.846,1.382-1.241a12.352,12.352,0,0,0,2.68-2.906,7.262,7.262,0,0,0-.705-7.73,9.526,9.526,0,0,0-2.426-2.313.689.689,0,1,1,.79-1.129A10.669,10.669,0,0,1,41.57,9.494a8.62,8.62,0,0,1,.79,9.254A14.15,14.15,0,0,1,39.4,21.993c-.451.395-.9.79-1.3,1.185-.762.762-2.426,2.708-1.834,4.683a4.354,4.354,0,0,0,3.273,2.567,18.021,18.021,0,0,0,3.1.339c.621.028,1.241.056,1.862.141A11.953,11.953,0,0,1,51.331,33.7a7.661,7.661,0,0,1,2.511,7,5.769,5.769,0,0,1-5.727,4.627A10.4,10.4,0,0,1,43.77,43.66c-1.665-.959-3.132-1.777-4.542-1.185-2.116.846-2.06,4.034-1.326,6.038.226.621.48,1.241.734,1.862.79,1.89,1.636,3.865,1.27,5.981a7.229,7.229,0,0,1-6.856,5.53c-.169,0-.282.028-.423.028Z" transform="translate(-3.51 -6.715)" fill="#308cef"/>
        </g>
        <g id="Grupo_1200740" data-name="Grupo 1200740" transform="translate(21.115 49.161)">
          <path id="Trazado_1046057" data-name="Trazado 1046057" d="M146.265,52.316a77.445,77.445,0,0,1-10.213,38.623,78.369,78.369,0,0,1-46.212,36.535A77.365,77.365,0,0,1,68,130.578,78.123,78.123,0,0,1,8.53,103.212a37.259,37.259,0,0,0,6.827,3.527c6.545,2.511,14.558,2.426,19.975-2,3.386-2.737,5.53-6.912,9.31-9.056,5.953-3.357,13.316-.564,19.551,2.229,6.207,2.765,13.683,5.445,19.523,1.947,9.621-5.784,5.925-22.486,14.981-29.116,5.135-3.752,12.78-2.878,17.548-7.081,7.194-6.4,2.511-18.79,6.912-27.366,2.934-5.755,9.367-8.69,13.542-13.57a19.111,19.111,0,0,0,2.285-3.3A77.111,77.111,0,0,1,146.265,52.316Z" transform="translate(-8.53 -19.42)" fill="#308cef"/>
        </g>
        <g id="Grupo_1200741" data-name="Grupo 1200741" transform="translate(58.155 3.852)">
          <path id="Trazado_1046058" data-name="Trazado 1046058" d="M106.131,33.858a15.09,15.09,0,0,1-3.837,7.759c-2.2,2.088-5.643,3.047-8.323,1.721-2.567-1.3-3.809-4.2-4.57-7-.762-2.765-1.3-5.727-3.132-7.9a6.471,6.471,0,0,0-3.752-2.172,2.282,2.282,0,0,0-2.342,3.216,6.431,6.431,0,0,1-.2,5.107,6.329,6.329,0,0,1-6.6,3.273,31.923,31.923,0,0,0-3.611-.846c-3.075-.113-5.417,3.216-5.36,6.291.056,3.1,1.806,5.9,3.527,8.464,2.116,3.1,4.429,6.348,4.034,10.3a5.822,5.822,0,0,1-2.821,4.6c-3.583,1.975-7.138-1.1-8.407-4.429-1.1-2.878-1.1-6.066-1.975-9s-3.075-5.9-6.122-6.066c-3.5-.2-6.094,3.273-7.11,6.63-.649,2.06-.959,4.288-1.552,6.348a10.463,10.463,0,0,1-9.423,7.561c-7.871.48-11.539-8.661-8.069-14.247,1.467-2.342,3.893-3.922,6.122-5.5,2.821-1.975,5.7-4.2,6.291-7.843a5.2,5.2,0,0,0-1.467-4.683c-3.978-3.611-9.677,2.144-13.852-1.749a6.586,6.586,0,0,1-1.918-4.937c.085-3.837,2.426-6.912,4.514-9.931,1.749-2.567,3.442-5.445,3.357-8.52A6.65,6.65,0,0,0,26.91,5.25a78.475,78.475,0,0,1,79.221,28.608Z" transform="translate(-21.659 -3.36)" fill="#d3dc5e"/>
        </g>
        <g id="Grupo_1200742" data-name="Grupo 1200742" transform="translate(15.731 70.796)">
          <path id="Trazado_1046059" data-name="Trazado 1046059" d="M7.52,33.215a7.885,7.885,0,0,1,2.031-4.6,4.756,4.756,0,0,1,4.655-1.354c4.232,1.326,4.458,8.915,8.887,9.169,3.893.226,6.15-5.925,9.987-5.276,2.511.423,3.555,3.527,3.47,6.066s-.734,5.248.395,7.533c1.608,3.216,5.784,3.893,9.338,4.26s7.758,1.3,9.084,4.627c1.27,3.216-.959,6.686-3.3,9.2-2.257,2.4-5.276,4.74-8.52,4.175-2.934-.536-4.853-3.216-6.912-5.332-2.06-2.144-5.332-3.95-7.871-2.4-2.342,1.439-2.4,4.994-1.044,7.392,1.326,2.4,3.639,4.091,5.473,6.15s3.273,4.909,2.313,7.5c-.987,2.68-4.345,3.95-7.081,3.16a9.609,9.609,0,0,1-5.84-5.812A26.27,26.27,0,0,1,21.147,69.3a18.137,18.137,0,0,0-1.157-6.4c-.9-1.975-2.849-3.668-5.022-3.639-2.483.056-5.05,2.2-7.138.9-1.918-1.213-1.326-4.288.2-5.981s3.724-2.737,4.965-4.655c1.918-2.991-.508-4.655-2.285-6.6A12.068,12.068,0,0,1,7.52,33.215Z" transform="translate(-6.622 -27.088)" fill="#d3dc5e"/>
        </g>
        <g id="Grupo_1200743" data-name="Grupo 1200743" transform="translate(83.027 73.712)">
          <path id="Trazado_1046060" data-name="Trazado 1046060" d="M96.084,75.119a78.369,78.369,0,0,1-46.212,36.535c.282-.339.592-.649.875-.987,2.6-2.906,5.219-5.9,6.545-9.536,1.354-3.639,1.072-8.153-1.665-10.918-3.5-3.555-9.592-3.019-13.57-6.009-4.317-3.273-4.542-10.636-.423-14.163,1.1-.959,2.511-1.749,2.849-3.188.48-2-1.636-3.724-3.639-4.119-2.031-.395-4.175-.056-6.122-.705A6.231,6.231,0,0,1,37.007,49.9c5.078.254,8.774,6.461,13.8,5.727,3.132-.48,5.248-3.583,5.784-6.686.564-3.1-.056-6.291-.254-9.423-.2-3.16.169-6.574,2.257-8.915a7.3,7.3,0,0,1,12.16,1.862c1.3,2.906,1.129,7.138,4.119,8.182,2.934,1.044,5.84-2.257,8.915-1.89,3.329.423,4.6,4.881,3.442,8.012-1.129,3.16-3.724,5.53-5.36,8.436-1.665,2.906-2.06,7.138.621,9.141a16.4,16.4,0,0,1,2.737,1.806c1.354,1.467.818,3.893-.395,5.473-1.185,1.58-2.934,2.708-4.147,4.26-1.241,1.58-1.89,3.922-.649,5.5,1.665,2.088,5.135.987,7.053-.875s3.414-4.429,5.953-5.276A4.92,4.92,0,0,1,96.084,75.119Z" transform="translate(-30.475 -28.122)" fill="#d3dc5e"/>
        </g>
        <g id="Grupo_1200744" data-name="Grupo 1200744" transform="translate(1.62 3.09)">
          <path id="Trazado_1046061" data-name="Trazado 1046061" d="M71.305,160.461h-.085A78.956,78.956,0,1,1,157.3,63.409a.681.681,0,0,1-1.326.31A77.625,77.625,0,0,0,80.587,4.472a76.51,76.51,0,0,0-17.012,1.89C28.479,14.178,3,46.03,3,82.057A77.538,77.538,0,0,0,71.39,159.078a.69.69,0,0,1,.592.762A.676.676,0,0,1,71.305,160.461Z" transform="translate(-1.62 -3.09)"/>
        </g>
        <g id="Grupo_1200761" data-name="Grupo 1200761" transform="translate(86.711 66.79)">
          <g id="Grupo_1200746" data-name="Grupo 1200746" transform="translate(0.673 0.772)">
            <g id="Grupo_1200745" data-name="Grupo 1200745">
              <path id="Trazado_1046062" data-name="Trazado 1046062" d="M117.534,43.146a16.694,16.694,0,0,1-15.348-10.975,1.635,1.635,0,0,0-1.665-1.157,70.573,70.573,0,0,1-31.57-4.853,2.9,2.9,0,0,0-3.442.959A70.859,70.859,0,0,1,41.05,47.66a1.636,1.636,0,0,0-.818,1.862A16.692,16.692,0,0,1,32.84,66.873a1.69,1.69,0,0,0-.762,1.89,97.169,97.169,0,0,0,17.407,35.266,72.49,72.49,0,0,0,16.928,15.517,59.613,59.613,0,0,0,28.128,9.987,4.189,4.189,0,0,0,2.821-.79c14.163-10.1,22.993-27.253,25.279-45.2a95.763,95.763,0,0,0-1.975-33.6c-.423-1.862-.931-3.752-1.467-5.586a1.727,1.727,0,0,0-1.665-1.213Z" transform="translate(-32.019 -25.942)" fill="#1b38ab"/>
            </g>
          </g>
          <g id="Grupo_1200747" data-name="Grupo 1200747" transform="translate(35.039 24.775)">
            <path id="Trazado_1046063" data-name="Trazado 1046063" d="M98.453,34.45a95.1,95.1,0,0,1,1.975,33.6c-2.285,17.943-11.116,35.1-25.279,45.2a4.232,4.232,0,0,1-2.821.79A59.613,59.613,0,0,1,44.2,104.051a15.15,15.15,0,0,0,14.106-2.342,48.681,48.681,0,0,0,12.019,3.1A2.536,2.536,0,0,0,72.1,104.3C82.739,96.01,90.159,82.13,92.133,66.754a79.769,79.769,0,0,0-.028-19.918c.9-.9,1.834-1.777,2.624-2.737a16.663,16.663,0,0,0,3.724-9.649Z" transform="translate(-44.2 -34.45)" fill="#142f84"/>
          </g>
          <g id="Grupo_1200748" data-name="Grupo 1200748">
            <path id="Trazado_1046064" data-name="Trazado 1046064" d="M95.286,130.737a1.609,1.609,0,0,1-.367-.028,60.33,60.33,0,0,1-28.467-10.1,72.6,72.6,0,0,1-17.069-15.686A96.577,96.577,0,0,1,31.864,69.4a2.413,2.413,0,0,1,1.072-2.68A15.95,15.95,0,0,0,40.017,50.1,2.354,2.354,0,0,1,41.2,47.481,70.259,70.259,0,0,0,65.437,27.14a3.522,3.522,0,0,1,4.26-1.185,70.094,70.094,0,0,0,31.26,4.824,2.318,2.318,0,0,1,2.37,1.636,15.992,15.992,0,0,0,9.367,9.508.7.7,0,1,1-.508,1.3A17.326,17.326,0,0,1,102.029,32.9a1,1,0,0,0-.959-.705,71.649,71.649,0,0,1-31.88-4.909,2.19,2.19,0,0,0-2.624.734A71.673,71.673,0,0,1,41.851,48.779a.958.958,0,0,0-.451,1.1,17.3,17.3,0,0,1-7.7,18.056,1.062,1.062,0,0,0-.48,1.157A96.026,96.026,0,0,0,50.484,104.1,71.567,71.567,0,0,0,67.243,119.48a58.549,58.549,0,0,0,27.79,9.874,3.548,3.548,0,0,0,2.37-.677,55.473,55.473,0,0,0,12.78-12.893.685.685,0,0,1,.959-.169.711.711,0,0,1,.169.959A56.628,56.628,0,0,1,98.22,129.806a5.244,5.244,0,0,1-2.934.931Z" transform="translate(-31.78 -25.669)"/>
          </g>
          <g id="Grupo_1200749" data-name="Grupo 1200749" transform="translate(10.638 11)">
            <path id="Trazado_1046065" data-name="Trazado 1046065" d="M107.885,75.646c-1.975,15.376-9.395,29.285-20.031,37.551a2.639,2.639,0,0,1-1.777.508,47.264,47.264,0,0,1-11.99-3.1,60.9,60.9,0,0,1-24.6-18.62,83.918,83.918,0,0,1-13.8-26.069,2.7,2.7,0,0,1,.649-2.737,22.815,22.815,0,0,0,6.179-14.783,2.633,2.633,0,0,1,1.241-2.2q2.074-1.227,4.063-2.624A73.645,73.645,0,0,0,58.287,34.85c1.411-1.411,2.765-2.906,4.063-4.429a2.445,2.445,0,0,1,2.6-.734A74.477,74.477,0,0,0,89.039,33.5a2.632,2.632,0,0,1,2.172,1.241,23.2,23.2,0,0,0,13.006,9.451,2.737,2.737,0,0,1,1.975,2c.734,3.216,1.3,6.376,1.721,9.536a83.961,83.961,0,0,1-.028,19.918Z" transform="translate(-35.551 -29.568)" fill="#f4eded"/>
          </g>
          <g id="Grupo_1200750" data-name="Grupo 1200750" transform="translate(22.851 16.255)">
            <path id="Trazado_1046066" data-name="Trazado 1046066" d="M58.924,38.145a1.24,1.24,0,0,1-.508,1.129c-.818.48-1.806-.508-2.737-.423A1.7,1.7,0,0,0,54.3,40.6a4.328,4.328,0,0,0,.818,2.285,6.906,6.906,0,0,1,1.016,2.229,1.954,1.954,0,0,1-.959,2.088,2.057,2.057,0,0,1-2.285-.9,16.975,16.975,0,0,1-1.129-2.4,2.747,2.747,0,0,0-1.947-1.665c-1.044-.113-1.918.762-2.567,1.58a4.214,4.214,0,0,1-2.426,1.947c-1.3.2-2.4-.959-3.132-2.06a17.565,17.565,0,0,1-1.806-3.555A73.646,73.646,0,0,0,50.347,31.43a11.873,11.873,0,0,1,1.439.339,11.706,11.706,0,0,1,6.63,5.135,2.646,2.646,0,0,1,.508,1.241Z" transform="translate(-39.88 -31.43)" fill="#d8d6d6"/>
          </g>
          <g id="Grupo_1200751" data-name="Grupo 1200751" transform="translate(19.306 12.384)">
            <path id="Trazado_1046067" data-name="Trazado 1046067" d="M60.281,58.869a3.928,3.928,0,0,1-3.16-1.918,14,14,0,0,1-.959-1.806,11.134,11.134,0,0,0-.649-1.3C55.231,53.4,54.441,52.3,53.4,52.3a4.165,4.165,0,0,0-1.665.564c-.2.085-.395.2-.564.282a8.894,8.894,0,0,1-12.526-8.633.712.712,0,0,1,.734-.649.694.694,0,0,1,.649.734,7.587,7.587,0,0,0,2.991,6.432,7.743,7.743,0,0,0,7.561.846c.169-.085.367-.169.536-.254a4.661,4.661,0,0,1,2.313-.705A4.164,4.164,0,0,1,56.7,53.142a11.274,11.274,0,0,1,.705,1.439,8.655,8.655,0,0,0,.846,1.608,2.626,2.626,0,0,0,2.2,1.326,1.443,1.443,0,0,0,.987-.649A3.564,3.564,0,0,0,62,54.355a11.638,11.638,0,0,0-.649-2.229,14.671,14.671,0,0,1-.734-2.539,4.792,4.792,0,0,1,.79-3.5A2.871,2.871,0,0,1,63.356,44.9a4.517,4.517,0,0,1,1.862.2,2.625,2.625,0,0,0,1.523.085A1.454,1.454,0,0,0,67.5,44a4.013,4.013,0,0,0-.339-1.834c-1.693-4.486-6.009-7.194-10.185-9.79-.564-.367-1.129-.705-1.665-1.044a.693.693,0,0,1,.762-1.157c.536.339,1.1.705,1.665,1.044,4.175,2.6,8.915,5.558,10.749,10.5a5.745,5.745,0,0,1,.423,2.483,2.831,2.831,0,0,1-1.58,2.313,3.5,3.5,0,0,1-2.4-.028,3.959,3.959,0,0,0-1.354-.169,1.552,1.552,0,0,0-1.044.649A3.481,3.481,0,0,0,62,49.446a12.3,12.3,0,0,0,.677,2.285,13.68,13.68,0,0,1,.734,2.511,4.746,4.746,0,0,1-.818,3.527,2.876,2.876,0,0,1-1.918,1.185.672.672,0,0,0-.395-.085Z" transform="translate(-38.623 -30.058)" fill="#d8d6d6"/>
          </g>
          <g id="Grupo_1200752" data-name="Grupo 1200752" transform="translate(49.145 37.132)">
            <path id="Trazado_1046068" data-name="Trazado 1046068" d="M83,38.83a79.769,79.769,0,0,1,.028,19.918C81.052,74.124,73.632,88.033,63,96.3a2.536,2.536,0,0,1-1.777.508A47.467,47.467,0,0,1,49.2,93.7a12.834,12.834,0,0,0,3.047-3.244c2.172-3.244,3.583-7.166,8.069-7.11,3.978.056,7.928-1.721,9.423-5.671.987-2.652.677-5.586.564-8.407s.028-5.868,1.749-8.125c1.467-1.918,3.837-2.962,5.5-4.74,3.3-3.583,1.326-7.392,1.806-11.567.282-2.426,1.89-4.26,3.639-6.009Z" transform="translate(-49.2 -38.83)" fill="#d8d6d6"/>
          </g>
          <g id="Grupo_1200753" data-name="Grupo 1200753" transform="translate(9.93 10.371)">
            <path id="Trazado_1046069" data-name="Trazado 1046069" d="M78.889,113.208a.48.48,0,0,1-.2-.028c-1.467-.451-2.962-.959-4.429-1.523A61.8,61.8,0,0,1,49.378,92.839,84.169,84.169,0,0,1,35.469,66.544a3.391,3.391,0,0,1,.79-3.414A22.164,22.164,0,0,0,42.24,48.77a3.263,3.263,0,0,1,1.552-2.737,73.509,73.509,0,0,0,18.451-15.6A3.133,3.133,0,0,1,65.6,29.5a71.9,71.9,0,0,0,23.868,3.781,3.263,3.263,0,0,1,2.765,1.552A22.388,22.388,0,0,0,104.816,44a3.411,3.411,0,0,1,2.455,2.511c.734,3.216,1.326,6.461,1.721,9.621a81.125,81.125,0,0,1,.028,20.087.682.682,0,1,1-1.354-.169,79.766,79.766,0,0,0-.028-19.749c-.395-3.1-.959-6.291-1.693-9.479a2.071,2.071,0,0,0-1.467-1.5A23.6,23.6,0,0,1,91.1,35.6a1.917,1.917,0,0,0-1.608-.931,74.565,74.565,0,0,1-24.291-3.837,1.677,1.677,0,0,0-1.862.536,75.2,75.2,0,0,1-18.79,15.912,1.937,1.937,0,0,0-.9,1.608A23.523,23.523,0,0,1,37.3,64.146a1.975,1.975,0,0,0-.48,2.031A82.644,82.644,0,0,0,50.507,92.049a60.564,60.564,0,0,0,24.319,18.395c1.411.564,2.878,1.072,4.317,1.5a.667.667,0,0,1,.451.846.818.818,0,0,1-.705.423Z" transform="translate(-35.3 -29.344)"/>
          </g>
          <g id="Grupo_1200760" data-name="Grupo 1200760" transform="translate(23.89 20.655)">
            <g id="Grupo_1200754" data-name="Grupo 1200754" transform="translate(24.512)">
              <path id="Trazado_1046070" data-name="Trazado 1046070" d="M70.444,50.2c.028.395.028.762.028,1.157-.028,5.3-1.947,11.68-6.4,14.332-2.06,1.241-5.445,2.06-7.815,1.016a13.582,13.582,0,0,1-5.586-5.276,12.268,12.268,0,0,1-1.58-4.712,12.858,12.858,0,0,1,1.326-7.956c1.636-3.019,4.458-5.135,6.827-7.617,1.975-2.031,3.7-4.627,3.978-7.448a.8.8,0,0,1,1.382-.451A27.072,27.072,0,0,1,70.444,50.2Z" transform="translate(-48.937 -32.99)" fill="#d3dc5e"/>
            </g>
            <g id="Grupo_1200755" data-name="Grupo 1200755" transform="translate(24.663 18.367)">
              <path id="Trazado_1046071" data-name="Trazado 1046071" d="M70.375,39.5c-.028,5.3-1.947,11.68-6.4,14.332-2.06,1.241-5.445,2.06-7.815,1.016a13.582,13.582,0,0,1-5.586-5.276,12.268,12.268,0,0,1-1.58-4.712,9.768,9.768,0,0,0,2.567,2.991,3.556,3.556,0,0,0,4.4,0c.705-.677,1.1-1.806,2.031-2,.846-.2,1.665.451,2.37,1.016s1.608,1.129,2.4.734c1.185-.592.734-2.6,1.636-3.583.734-.79,2-.592,3.047-.875a4.464,4.464,0,0,0,2.765-2.878c.056-.282.141-.508.169-.762Z" transform="translate(-48.99 -39.5)" fill="#c6c945"/>
            </g>
            <g id="Grupo_1200756" data-name="Grupo 1200756" transform="translate(0 19.867)">
              <path id="Trazado_1046072" data-name="Trazado 1046072" d="M61.215,50.72a10.59,10.59,0,0,1-.621,5.925c-.846,1.806-3.244,3.047-5.078,3.386-2.6.508-5.389-.564-7.73-2.229-.028,0-.028,0-.056-.028a17.074,17.074,0,0,1-3.611-3.5,20.379,20.379,0,0,1-3.837-13.429.793.793,0,0,1,1.3-.621,10.147,10.147,0,0,0,5.755,2.088c2.624.226,5.276.028,7.758.931a9.781,9.781,0,0,1,5.191,4.74,10.117,10.117,0,0,1,.931,2.737Z" transform="translate(-40.248 -40.032)" fill="#d3dc5e"/>
            </g>
            <g id="Grupo_1200757" data-name="Grupo 1200757" transform="translate(7.537 27.818)">
              <path id="Trazado_1046073" data-name="Trazado 1046073" d="M56.349,45.587a10.59,10.59,0,0,1-.621,5.925c-.846,1.806-3.244,3.047-5.078,3.386-2.6.508-5.389-.564-7.73-2.229.254.113.508.2.762.282a3.654,3.654,0,0,0,4.26-1.5c.367-.734.508-1.721,1.241-2.031.846-.395,2.031.395,2.68-.282.48-.48.254-1.3,0-1.947s-.536-1.411-.141-1.947c.508-.734,1.636-.395,2.455-.677a2.111,2.111,0,0,0,1.213-1.523.418.418,0,0,0,.028-.2,10.117,10.117,0,0,1,.931,2.737Z" transform="translate(-42.92 -42.85)" fill="#c6c945"/>
            </g>
            <g id="Grupo_1200758" data-name="Grupo 1200758" transform="translate(30.413 18.565)">
              <path id="Trazado_1046074" data-name="Trazado 1046074" d="M54.87,89.224A.9.9,0,0,1,54,88.547a78.088,78.088,0,0,1,1.862-48.385.92.92,0,1,1,1.721.649,76.583,76.583,0,0,0-1.806,47.256.915.915,0,0,1-.621,1.129c-.113,0-.2.028-.282.028Z" transform="translate(-51.028 -39.57)" fill="#b2b234"/>
            </g>
            <g id="Grupo_1200759" data-name="Grupo 1200759" transform="translate(10.548 30.293)">
              <path id="Trazado_1046075" data-name="Trazado 1046075" d="M64.788,61.594a.862.862,0,0,1-.762-.423c-4.965-7.7-12.019-13.373-19.382-15.63a.928.928,0,0,1,.536-1.777c7.758,2.37,15.178,8.323,20.37,16.392a.919.919,0,0,1-.282,1.27.766.766,0,0,1-.48.169Z" transform="translate(-43.987 -43.727)" fill="#b2b234"/>
            </g>
          </g>
        </g>
        <g id="Grupo_1200762" data-name="Grupo 1200762" transform="translate(60.81 118.085)">
          <path id="Trazado_1046076" data-name="Trazado 1046076" d="M31.684,49.239a4.19,4.19,0,0,0-3.216,1.58,5.938,5.938,0,0,0-1.326,3.809c0-2.962-2.031-5.389-4.542-5.389a4.19,4.19,0,0,0,3.216-1.58,5.938,5.938,0,0,0,1.326-3.809,5.938,5.938,0,0,0,1.326,3.809,4.282,4.282,0,0,0,3.216,1.58Z" transform="translate(-22.6 -43.85)" fill="#fff"/>
        </g>
        <g id="Grupo_1200763" data-name="Grupo 1200763" transform="translate(163.815 98.534)">
          <path id="Trazado_1046077" data-name="Trazado 1046077" d="M68.194,42.309a4.19,4.19,0,0,0-3.216,1.58A5.938,5.938,0,0,0,63.652,47.7c0-2.962-2.031-5.389-4.542-5.389a4.19,4.19,0,0,0,3.216-1.58,5.938,5.938,0,0,0,1.326-3.809,5.938,5.938,0,0,0,1.326,3.809A4.19,4.19,0,0,0,68.194,42.309Z" transform="translate(-59.11 -36.92)" fill="#fff"/>
        </g>
        <g id="Grupo_1200764" data-name="Grupo 1200764" transform="translate(72.462 124.461)">
          <path id="Trazado_1046078" data-name="Trazado 1046078" d="M31.752,49.072a2.317,2.317,0,0,0-1.777.875,3.235,3.235,0,0,0-.734,2.088,2.768,2.768,0,0,0-2.511-2.962,2.317,2.317,0,0,0,1.777-.875,3.235,3.235,0,0,0,.734-2.088,3.235,3.235,0,0,0,.734,2.088,2.317,2.317,0,0,0,1.777.875Z" transform="translate(-26.73 -46.11)" fill="#fff"/>
        </g>
        <g id="Grupo_1200767" data-name="Grupo 1200767" transform="translate(75.368 9.031)">
          <g id="Grupo_1200765" data-name="Grupo 1200765">
            <path id="Trazado_1046079" data-name="Trazado 1046079" d="M51.346,9.609c-.2.621-1.608.79-3.724.762s-4.937-.141-8.125-.339A50.135,50.135,0,0,1,31.174,8.96C29.03,8.424,27.732,7.747,27.76,7.1c.056-.649,1.411-1.157,3.555-1.5a39.256,39.256,0,0,1,8.492-.31A26.472,26.472,0,0,1,48.327,7.1C50.443,7.973,51.544,8.988,51.346,9.609Z" transform="translate(-27.76 -5.196)" fill="#fff"/>
          </g>
          <g id="Grupo_1200766" data-name="Grupo 1200766" transform="translate(26.552 5.229)">
            <path id="Trazado_1046080" data-name="Trazado 1046080" d="M43.459,11.171c-.395.423-1.862-.282-3.527-1.27C38.3,8.886,36.971,7.87,37.2,7.334c.2-.536,2-.339,3.809.79,1.834,1.1,2.821,2.652,2.455,3.047Z" transform="translate(-37.171 -7.049)" fill="#fff"/>
          </g>
        </g>
        <g id="Grupo_1200770" data-name="Grupo 1200770" transform="translate(106.081 119.811)">
          <g id="Grupo_1200768" data-name="Grupo 1200768">
            <path id="Trazado_1046081" data-name="Trazado 1046081" d="M48.306,58.732c-.931.9-4.458-1.3-7.11-5.473-2.652-4.147-3.132-8.295-1.918-8.746,1.241-.48,3.555,2.454,5.953,6.207C47.6,54.444,49.265,57.83,48.306,58.732Z" transform="translate(-38.646 -44.462)" fill="#fff"/>
          </g>
          <g id="Grupo_1200769" data-name="Grupo 1200769" transform="translate(11.034 15.772)">
            <path id="Trazado_1046082" data-name="Trazado 1046082" d="M46.543,53.77c-.367.423-1.58.028-2.68-.987-1.072-1.016-1.58-2.2-1.157-2.6s1.552.113,2.567,1.072C46.317,52.247,46.91,53.319,46.543,53.77Z" transform="translate(-42.557 -50.052)" fill="#fff"/>
          </g>
        </g>
      </g>
    </g>
  </g>
</svg>
