<svg xmlns="http://www.w3.org/2000/svg" xmlns:xlink="http://www.w3.org/1999/xlink" width="190" height="161" viewBox="0 0 190 161">
  <defs>
    <clipPath id="clip-path">
      <rect id="Rectángulo_415882" data-name="Rectángulo 415882" width="190" height="161" transform="translate(810 4515)" fill="#fff" stroke="#707070" stroke-width="1" opacity="0.51"/>
    </clipPath>
  </defs>
  <g id="Enmascarar_grupo_1098868" data-name="Enmascarar grupo 1098868" transform="translate(-810 -4515)" clip-path="url(#clip-path)">
    <g id="Grupo_1200734" data-name="Grupo 1200734" transform="translate(811.119 4551.577)">
      <path id="Trazado_1045608" data-name="Trazado 1045608" d="M1520.516,1251.168s-62.907-19.539-32.333-72.219c0,0,11.916-16.463-3.621-37.965-10.095-13.971-11.192-44.377,33.582-57.408,21.871-6.365,31.658-27.009,31.658-27.009s17.2-56.328,78.264,1.4c89.247,84.365-2.194,120.352-2.194,120.352s-27.038,8.043-38.853,46.532C1578.212,1253.531,1543.662,1259.013,1520.516,1251.168Z" transform="translate(-1478.289 -1036.878)" fill="#fff"/>
      <g id="Grupo_1200730" data-name="Grupo 1200730" transform="translate(0 -34.725)">
        <path id="Trazado_1045722" data-name="Trazado 1045722" d="M1636.91,1621.13l2.213.407.047.031-2.256-.419Z" transform="translate(-1486.937 -1434.965)" fill="none"/>
        <path id="Trazado_1045723" data-name="Trazado 1045723" d="M1612.022,1621.6l6.782,1.251a4.565,4.565,0,0,1,3.66,5.317,4.639,4.639,0,0,1-.205.736,4.561,4.561,0,0,1-5.112,2.924l-5.594-1.032-1.787-9.612Z" transform="translate(-1459.79 -1435)" fill="#74160d"/>
        <path id="Trazado_1045724" data-name="Trazado 1045724" d="M1872.146,1578.132l3.606.663-.032,9.234-4.623-.853a4.562,4.562,0,0,1,1.049-9.043Z" transform="translate(-1812.829 -1408.627)" fill="#74160d"/>
        <path id="Trazado_1045725" data-name="Trazado 1045725" d="M1648.949,1647.841c-.182-.043-.451-.11-.8-.2-.69-.189-1.685-.488-2.9-.929a45,45,0,0,1-9.192-4.619,42.161,42.161,0,0,1-6.195-4.959l18.039,3.328-3.595-19.337h0l0,.022,1.787,9.612,3.2,17.2a.166.166,0,0,0-.076-.051S1649.131,1647.884,1648.949,1647.841Z" transform="translate(-1494.341 -1434.96)" fill="#6997b2"/>
        <path id="Trazado_1045726" data-name="Trazado 1045726" d="M1608.189,1687.79a31.882,31.882,0,0,0,4.228,1.288h0a.166.166,0,0,0,.18-.1l8.369,45.018h-4.437c0-.011.009-.02.007-.031Z" transform="translate(-1457.604 -1475.792)" fill="#6997b2"/>
        <path id="Trazado_1045727" data-name="Trazado 1045727" d="M1843.993,1643.839l.056-16,9.12,1.683C1851.12,1635.062,1848.159,1640.565,1843.993,1643.839Z" transform="translate(-1781.189 -1439.077)" fill="#6997b2"/>
        <path id="Trazado_1045728" data-name="Trazado 1045728" d="M1864.324,1665.05v55.019H1861.9l.185-52.993A19.256,19.256,0,0,0,1864.324,1665.05Z" transform="translate(-1799.284 -1461.865)" fill="#6997b2"/>
        <path id="Trazado_1045729" data-name="Trazado 1045729" d="M1758.875,1632.35l22.675,4.184a46.468,46.468,0,0,0,5,8.132l7.655,55.375h-42.266V1644.65A37.959,37.959,0,0,0,1758.875,1632.35Z" transform="translate(-1686.549 -1441.837)" fill="#6997b2"/>
        <path id="Trazado_1045730" data-name="Trazado 1045730" d="M1620.512,1645.21l35.567,6.562a42.214,42.214,0,0,0,6.628,5.364,45.315,45.315,0,0,0,8.677,4.433l8.378,46.35h-50.591c0-.008.007-.015.006-.024Z" transform="translate(-1521.175 -1449.714)" fill="#6997b2"/>
        <path id="Trazado_1045731" data-name="Trazado 1045731" d="M1775.484,1644.006l.928,6.711c-.246-.325-.595-.8-1.02-1.429a52.143,52.143,0,0,1-3.256-5.535c-.067-.131-.134-.269-.2-.4Z" transform="translate(-1676.508 -1448.575)" fill="#6997b2"/>
        <path id="Trazado_1045732" data-name="Trazado 1045732" d="M1832.881,1579.85l13.387,2.46a.163.163,0,0,0-.1.126s-.041.371-.133,1.041-.238,1.637-.446,2.824a87.76,87.76,0,0,1-2.112,9.14c-.444,1.531-.959,3.11-1.544,4.688l-9.12-1.683h0l.032-9.363Z" transform="translate(-1769.956 -1409.683)" fill="#48788e"/>
        <path id="Trazado_1045733" data-name="Trazado 1045733" d="M1662.9,1632.958l-18.039-3.328a40.239,40.239,0,0,1-11.342-20.688.162.162,0,0,0-.047-.068l25.833,4.747Z" transform="translate(-1509.332 -1427.459)" fill="#48788e"/>
        <path id="Trazado_1045734" data-name="Trazado 1045734" d="M1708.781,1601.045a40.67,40.67,0,0,0,11.057,20.5l-35.567-6.562-2.643-19.122,27.246,5.006A.178.178,0,0,0,1708.781,1601.045Z" transform="translate(-1584.936 -1419.489)" fill="#48788e"/>
        <path id="Trazado_1045735" data-name="Trazado 1045735" d="M1807.265,1608.326l-22.675-4.184c.579-1.568,1.089-3.136,1.531-4.655a85.185,85.185,0,0,0,2.7-13.065h0a.173.173,0,0,0-.037-.125l12.752,2.343c0,.017-.016.03-.014.048A58.235,58.235,0,0,0,1807.265,1608.326Z" transform="translate(-1712.265 -1413.632)" fill="#48788e"/>
        <path id="Trazado_1045736" data-name="Trazado 1045736" d="M1783.695,1612.869l-3.549-.654a57.952,57.952,0,0,1-5.816-19.7l6.743,1.239c0,.018-.017.033-.014.052Z" transform="translate(-1684.718 -1417.438)" fill="#48788e"/>
        <path id="Trazado_1045737" data-name="Trazado 1045737" d="M1721.714,1181.76c2.507-2.449,3.162-5.845,1.462-7.585s-5.111-1.165-7.618,1.285c-.084.082-.161.168-.241.252a5.787,5.787,0,0,1-3.6-6.67,92.754,92.754,0,0,1-19.838-1.824q-.851-.172-1.518-.321a10.324,10.324,0,0,1-1.695-.365c-.106-.033-.206-.078-.31-.114l-.125-.033.005-.011a10.329,10.329,0,0,1,5.705-19.81,9.041,9.041,0,0,1,15.945-1.825h0c1.938,2.077,2.776,6.3,4.241,9.83a8.184,8.184,0,0,0,4.079,4.271,14.3,14.3,0,0,1-3.1,28.053l-.572-3.483C1716.331,1184.678,1719.4,1184.019,1721.714,1181.76Z" transform="translate(-1593.675 -1140.751)" fill="#383851"/>
        <path id="Trazado_1045738" data-name="Trazado 1045738" d="M1889.289,1335.314c.83-1.528,11.741,2.774,24.982,9.758a.168.168,0,0,0-.03.082,45.1,45.1,0,0,0,.689,6.048,5.716,5.716,0,0,0-2.333,1.368c-1.244,1.171-2.473,3.282-2.471,6.973,0,.1,0,.2,0,.3a.174.174,0,1,0,.347,0c0-.1,0-.2,0-.294,0-3.39,1.046-5.355,2.143-6.5a5.4,5.4,0,0,1,2.5-1.53l.046-.01.175-.033-.037-.174a35.816,35.816,0,0,1-.572-4.084c-.107-1.2-.142-2.068-.142-2.07h0a.172.172,0,0,0-.171-.163c-.048-4.762.642-8.09,1.915-8.257,1.851-.242,5.424,9.4,6.512,17.7h-.006a10.778,10.778,0,0,1,.143,1.388h.005l4.689,14.885,5.048,16.024a94.819,94.819,0,0,0,10.355,5.285c-.015.943-.022,1.474-.022,1.474h0a.174.174,0,0,0,.171.176h0c.021,10.031.219,19.122.454,25.562a50.09,50.09,0,0,1-2.86,4.246,8.5,8.5,0,0,1-1.135,1.348l-.029.033,0-.01c-3.437,3.275-9.97,7.6-17.718,4.461-5.44-2.146-8.335-7.657-8.787-12.682l-7.186-51.4-.3-.166a44.288,44.288,0,0,1-7.145-4.747c.392.212.906.48,1.489.75a10.87,10.87,0,0,0,4.009,1.178,1.779,1.779,0,0,0,1.49-.6,1.483,1.483,0,0,0,.319-.918,4.169,4.169,0,0,0-1.7-2.653c-.183-.16-.364-.306-.537-.441a8.7,8.7,0,0,0,2.618.548,2.373,2.373,0,0,0,.949-.168,1.254,1.254,0,0,0,.639-.589,1.548,1.548,0,0,0,.171-.706,2.739,2.739,0,0,0-.837-1.745,9.956,9.956,0,0,0-1.776-1.482c-.047-.032-.094-.061-.141-.092a14.357,14.357,0,0,0,4.436,1.056,2.444,2.444,0,0,0,1.153-.231,1.1,1.1,0,0,0,.585-.807,1.315,1.315,0,0,0,.021-.235,3.33,3.33,0,0,0-1.095-2.054,16.121,16.121,0,0,0-2.331-1.968,35.444,35.444,0,0,0-3.372-2.112h0a.171.171,0,0,0-.227.064C1894.9,1341.375,1888.607,1336.565,1889.289,1335.314Zm43.722,51.728a.174.174,0,1,0-.331.1l4.811,15.272a.174.174,0,0,0,.331-.1Z" transform="translate(-1889.239 -1259.725)" fill="#9f535b"/>
        <path id="Trazado_1045739" data-name="Trazado 1045739" d="M1981.985,1364.423s.233.125.614.346.91.536,1.5.914a19.678,19.678,0,0,1,3.5,2.752,3.037,3.037,0,0,1,1,1.817l-.015.174a.748.748,0,0,1-.409.562,2.119,2.119,0,0,1-.988.189,15.061,15.061,0,0,1-4.722-1.186,46.061,46.061,0,0,1-5.335-2.479.174.174,0,0,0-.166.3c.969.529,2.075,1.075,3.209,1.585,0,0,.005.01.011.012s.175.081.462.228.686.36,1.128.622a11.806,11.806,0,0,1,2.635,2.01,2.415,2.415,0,0,1,.748,1.513,1.2,1.2,0,0,1-.133.549.9.9,0,0,1-.468.428,2.044,2.044,0,0,1-.81.14,10.664,10.664,0,0,1-3.53-.908,35.146,35.146,0,0,1-3.246-1.527c-.511-.271-.823-.451-.823-.451h0a.167.167,0,0,0-.207.041c-1.9-1.733-2.861-3.224-2.41-4.053.364-.67,1.6-.8,3.365-.479-1.845-1.7-2.764-3.156-2.321-3.972.6-1.1,3.508-.753,7.336.661A.174.174,0,0,0,1981.985,1364.423Zm2.1,9.192c.216-.479-.327-1.19-1.212-1.589s-1.778-.334-1.994.146.328,1.191,1.213,1.589S1983.864,1374.092,1984.081,1373.615Zm3.426-3.635c.216-.479-.327-1.19-1.213-1.589s-1.778-.333-1.994.145.327,1.19,1.213,1.589S1987.294,1370.461,1987.507,1369.98Z" transform="translate(-1966.778 -1276.813)" fill="#9f535b"/>
        <path id="Trazado_1045740" data-name="Trazado 1045740" d="M1990.978,1386.764s1.267.731,2.866,1.462c.316.144.647.287.982.426h0s.049.03.137.087.215.141.366.246a13.137,13.137,0,0,1,1.112.865,3.9,3.9,0,0,1,1.58,2.392,1.132,1.132,0,0,1-.247.708,1.441,1.441,0,0,1-1.214.46,8.5,8.5,0,0,1-2.889-.723,24.9,24.9,0,0,1-2.544-1.217c-.4-.217-.633-.359-.634-.36a.167.167,0,0,0-.21.039c-1.873-1.716-2.811-3.189-2.364-4.012.338-.621,1.418-.781,2.984-.547A.159.159,0,0,0,1990.978,1386.764Zm3.627,5.294c.886.4,1.778.334,1.994-.146s-.327-1.191-1.213-1.589-1.778-.333-1.994.146S1993.718,1391.659,1994.6,1392.058Z" transform="translate(-1981.777 -1291.256)" fill="#9f535b"/>
        <path id="Trazado_1045741" data-name="Trazado 1045741" d="M1729.574,1313.038c-.444.425-1.1,1.032-1.929,1.76a71.669,71.669,0,0,1-6.91,5.344c-5.731,3.887-13.4,7.764-21.141,7.762a20.52,20.52,0,0,1-12.478-4.1c-3.981-2.94-7.7-7.671-10.865-14.837q1.354-.113,2.759-.2c.068.17,13.712,33.957,47.644,3.178q1.714.312,3.381.647C1729.923,1312.7,1729.775,1312.849,1729.574,1313.038Z" transform="translate(-1593.048 -1243.654)" fill="#d79903"/>
        <path id="Trazado_1045742" data-name="Trazado 1045742" d="M1574.885,1377.771s.008-.566.024-1.573.04-2.458.073-4.226c.064-3.536.161-8.346.291-13.438.26-10.182.653-21.5,1.182-26.011a.173.173,0,1,0-.344-.041c-.935,7.98-1.441,36.937-1.55,43.81a94.752,94.752,0,0,1-10.355-5.285l-5.048-16.024c5.66-17.155,10.251-26.38,12.184-29.9q.367-.693.77-1.353c.142-.236.218-.357.218-.357h.006a23.5,23.5,0,0,1,8.621-8.156c4.094-2.924,12.149-4.956,22.625-5.858,0,.02-.007.04,0,.059,3.183,7.235,6.948,12.036,11,15.028a20.867,20.867,0,0,0,12.684,4.17c7.854,0,15.573-3.917,21.335-7.822a68.579,68.579,0,0,0,9.515-7.757c17.992,3.654,31.627,9.185,36.063,14.737a19.778,19.778,0,0,1,5.709,10.37h0c.007.031.013.063.021.095l0,.015c5.154,23.216,2.58,50.376,2.1,54.881a1.39,1.39,0,0,1-.073.652c-.551,1.443-3.706,1.743-8.418,1.068a.173.173,0,0,0-.137-.195s-.507-.094-1.345-.262-2.007-.41-3.331-.7a85.174,85.174,0,0,1-8.369-2.235.174.174,0,0,0-.221.108s0,0,0,0c-2.15-.692-4.383-1.476-6.658-2.346a112.912,112.912,0,0,1-15.171-7.019l-.056-.177a.173.173,0,0,0-.218-.114h0l-5.606-17.8c7.946-21.931,9.521-24.537,11.741-28.583v0q.367-.692.769-1.35v0c.139-.233.214-.35.215-.35l-.007,0a.161.161,0,0,0,.038-.067.174.174,0,0,0-.151-.194l-.114-.014-.059.092s-.078.123-.22.359h0q-.407.667-.779,1.366h0c-2.21,4.028-3.8,6.678-11.608,28.206l-4.489-14.25h-.006a10.836,10.836,0,0,0-.388-2.487l0,0c-1.089-8.294-4.415-16.837-6.266-16.595-1.289.169-1.978,3.578-1.911,8.431-13.309-7.031-24.3-11.37-25.133-9.836-.685,1.26,5.681,6.113,15.252,11.876-3.911-1.468-6.9-1.836-7.5-.723-.433.8.438,2.205,2.193,3.851a.166.166,0,0,0-.053.087s0,0,0,0c-1.671-.277-2.833-.136-3.184.511-.432.8.437,2.2,2.188,3.845-.067-.007-.114-.009-.12-.01h0a.173.173,0,0,0-.173.174.164.164,0,0,0,.032.079c-1.32-.139-2.234.04-2.538.6-.892,1.64,3.713,5.866,10.286,9.438l.3.166,7.186,51.394c.452,5.024,3.346,10.536,8.787,12.683,7.749,3.142,14.282-1.186,17.719-4.461l0,.011.03-.033a8.512,8.512,0,0,0,1.135-1.347c1.807-2.214,8.123-12.567,14.621-25.207.008,0,.01.014.019.017a86.987,86.987,0,0,0,8.663,2.3c-1.421,13.047-2.88,26.525-4.179,38.669a14.531,14.531,0,0,1-1.521,5.168l0,0a4.62,4.62,0,0,0,.205-.736,4.564,4.564,0,0,0-3.66-5.317l-6.782-1.252-.044-.031-2.216-.407h0l-25.833-4.746a.164.164,0,0,0-.16-.064c-.017,0-.025.02-.04.028l-27.246-5.006-.008-.057a.173.173,0,0,0-.2-.148.165.165,0,0,0-.134.143l-6.743-1.239c0-.017,0-.034-.006-.051a.173.173,0,0,0-.191-.154.166.166,0,0,0-.14.144l-12.752-2.343a.172.172,0,0,0-.117-.066.166.166,0,0,0-.094.027l-13.387-2.46-3.606-.663a4.546,4.546,0,0,0-4.782,4.563h0l.021-11.826c-.037-.853-.073-1.776-.109-2.758-.234-6.44-.433-15.531-.454-25.562A.179.179,0,0,0,1574.885,1377.771Zm53.868,28.364c-15.381-15.389-25.244-48.7-27.458-56.782-.317-1.154-.478-1.791-.478-1.793h0a.173.173,0,0,0-.336.085,221.951,221.951,0,0,0,7.383,22.726c4.8,12.467,11.792,27.145,20.644,36.009a.174.174,0,0,0,.246,0A.17.17,0,0,0,1628.753,1406.134Z" transform="translate(-1520.719 -1244.016)" fill="#d79903"/>
        <path id="Trazado_1045743" data-name="Trazado 1045743" d="M1747.581,1272.91a12.639,12.639,0,0,1-1.826,3.735c-2.811,4-8.434,4.658-13.065,3.94l1.074-6.433a11.427,11.427,0,0,0,13.817-1.242Z" transform="translate(-1632.468 -1221.693)" fill="#74160d"/>
        <path id="Trazado_1045744" data-name="Trazado 1045744" d="M1762.374,1234.567c-.016-.573.226-1.044.542-1.053s.583.448.6,1.02-.226,1.043-.541,1.052S1762.389,1235.136,1762.374,1234.567Z" transform="translate(-1659.905 -1197.565)" fill="#74160d"/>
        <path id="Trazado_1045745" data-name="Trazado 1045745" d="M1762.713,1219.077c1.733-.428,3.4.305,3.732,1.636s-1.368.6-3.1,1.028-2.844,1.851-3.172.52S1760.98,1219.5,1762.713,1219.077Z" transform="translate(-1662 -1188.648)" fill="#383851"/>
        <path id="Trazado_1045746" data-name="Trazado 1045746" d="M1738.772,1223.419c-.328,1.332-1.49-.1-3.223-.529s-3.378.319-3.05-1.013,2-2.066,3.729-1.64S1739.1,1222.086,1738.772,1223.419Z" transform="translate(-1623.623 -1189.359)" fill="#383851"/>
        <path id="Trazado_1045747" data-name="Trazado 1045747" d="M1738.542,1235.583c-.315-.024-.533-.506-.488-1.077s.335-1.014.65-.989.533.507.488,1.078S1738.856,1235.61,1738.542,1235.583Z" transform="translate(-1626.16 -1197.566)" fill="#74160d"/>
        <path id="Trazado_1045748" data-name="Trazado 1045748" d="M1752.5,1241.526a.8.8,0,0,1-.057.327.326.326,0,0,1-.3.2.648.648,0,0,1-.364-.147,2.55,2.55,0,0,1-.268-.233c-.05.089-.11.194-.183.3a2.3,2.3,0,0,1-.3.371.611.611,0,0,1-.406.2.37.37,0,0,1-.243-.093.779.779,0,0,1-.214-.387,2.865,2.865,0,0,1-.077-.429,1.417,1.417,0,0,1-.509.123.494.494,0,0,1-.347-.123.537.537,0,0,1-.149-.406,3.91,3.91,0,0,1,.586-1.6.174.174,0,0,1,.306.164,3.7,3.7,0,0,0-.545,1.44c0,.107.026.14.04.153a.159.159,0,0,0,.109.029,1.066,1.066,0,0,0,.367-.094l.146-.068.055-.03.168,0,.091.141a2.38,2.38,0,0,0,.131.724l.067.105.017.009a.322.322,0,0,0,.164-.107,2.511,2.511,0,0,0,.357-.489c.05-.084.091-.161.119-.216l.044-.087.13-.1.153.053a2.8,2.8,0,0,0,.386.359.392.392,0,0,0,.146.077.512.512,0,0,0,.022-.174,4.177,4.177,0,0,0-.156-.915c-.079-.3-.158-.541-.158-.542a.173.173,0,1,1,.329-.109h0A6.6,6.6,0,0,1,1752.5,1241.526Z" transform="translate(-1643.74 -1201.257)" fill="#74160d"/>
        <path id="Trazado_1045749" data-name="Trazado 1045749" d="M1684.386,1422.062c-6.5,12.64-12.814,22.993-14.622,25.207a8.485,8.485,0,0,1-1.135,1.347l-.029.033,0-.011c-3.437,3.276-9.97,7.6-17.719,4.461-5.441-2.146-8.335-7.659-8.787-12.683l-7.186-51.394-.3-.166c-6.573-3.573-11.177-7.8-10.286-9.438.3-.559,1.219-.738,2.539-.6a.163.163,0,0,0,.141.095h0l.029,0,.131.014a5.525,5.525,0,0,1,.589.12,18.173,18.173,0,0,1,2.719.976.174.174,0,0,0,.138-.319,12.875,12.875,0,0,0-3.49-1.13c-1.751-1.643-2.62-3.05-2.188-3.846.351-.646,1.513-.788,3.184-.511a.173.173,0,0,0,.144.2s.137.021.386.072.61.13,1.052.244a23.138,23.138,0,0,1,3.378,1.154.174.174,0,1,0,.138-.319,22.661,22.661,0,0,0-4.9-1.494h0a.164.164,0,0,0-.145.057c-1.756-1.645-2.627-3.054-2.194-3.851.605-1.113,3.593-.745,7.5.722-9.571-5.762-15.937-10.616-15.252-11.876.834-1.533,11.824,2.806,25.133,9.837-.067-4.852.623-8.262,1.911-8.431,1.851-.243,5.177,8.3,6.266,16.595l0,0a10.85,10.85,0,0,1,.388,2.487h.006l4.489,14.25-.182.5h0a.174.174,0,1,0,.326.118l.027-.074,5.606,17.8a.174.174,0,0,0-.113.218l3.417,10.85a.174.174,0,0,0,.332-.1l-3.362-10.672a112.832,112.832,0,0,0,15.171,7.019c2.276.87,4.508,1.654,6.659,2.346A.164.164,0,0,0,1684.386,1422.062Zm-62.63-62c-1.207-.656-2.381-.827-2.622-.383s.541,1.336,1.748,1.992a6.326,6.326,0,0,0,.891.4c.251-.5.5-1.009.768-1.506A5.941,5.941,0,0,0,1621.757,1360.06Z" transform="translate(-1524.896 -1274.31)" fill="#9f535b"/>
        <path id="Trazado_1045750" data-name="Trazado 1045750" d="M1750.154,1398.176h0a22.612,22.612,0,0,1,4.9,1.494.174.174,0,1,1-.138.318,23.254,23.254,0,0,0-3.378-1.154c-.441-.114-.8-.193-1.052-.244s-.386-.072-.386-.072a.173.173,0,0,1-.144-.2s0,0,0,0a.166.166,0,0,1,.053-.087A.156.156,0,0,1,1750.154,1398.176Z" transform="translate(-1646.736 -1298.412)" fill="#74160d"/>
        <path id="Trazado_1045751" data-name="Trazado 1045751" d="M1760.454,1410.907a.174.174,0,1,1-.138.318,18.163,18.163,0,0,0-2.719-.976,5.524,5.524,0,0,0-.589-.12l-.131-.014h-.033a.222.222,0,0,1-.173-.174.173.173,0,0,1,.173-.174h0c.006,0,.053,0,.12.01A13.114,13.114,0,0,1,1760.454,1410.907Z" transform="translate(-1654.738 -1305.513)" fill="#74160d"/>
        <path id="Trazado_1045752" data-name="Trazado 1045752" d="M1779.563,1362.632c-1.207-.656-1.99-1.547-1.748-1.992s1.415-.273,2.622.383a6.344,6.344,0,0,1,.785.5c-.264.5-.516,1-.768,1.506A7.135,7.135,0,0,1,1779.563,1362.632Z" transform="translate(-1683.578 -1275.274)" fill="#fbd7d2"/>
        <path id="Trazado_1045753" data-name="Trazado 1045753" d="M1742.934,1254.26a3.362,3.362,0,1,1-6.472,1.826Z" transform="translate(-1629.409 -1210.271)" fill="#fff"/>
        <path id="Trazado_1045754" data-name="Trazado 1045754" d="M1657.106,1402.529a.174.174,0,0,1-.1-.222h0l.182-.5c7.807-21.528,9.4-24.178,11.608-28.206h0q.372-.7.779-1.366v0c.141-.236.219-.358.22-.359l.059-.092.114.014a.174.174,0,0,1,.151.194.164.164,0,0,1-.038.067l.007,0s-.075.117-.215.35v0q-.4.659-.769,1.35v0c-2.22,4.047-3.795,6.653-11.741,28.583-.009.026-.018.049-.027.074A.175.175,0,0,1,1657.106,1402.529Z" transform="translate(-1525.665 -1282.25)" fill="#74160d"/>
        <path id="Trazado_1045755" data-name="Trazado 1045755" d="M1583.916,1521.5a.168.168,0,0,1-.088-.2s0,0,0,0a.173.173,0,0,1,.22-.108,85.224,85.224,0,0,0,8.37,2.235c1.323.295,2.492.537,3.33.7s1.344.262,1.345.262a.173.173,0,0,1,.137.195s0,.005,0,.008a.174.174,0,0,1-.2.139h0s-1.906-.355-4.431-.913a86.947,86.947,0,0,1-8.663-2.3C1583.923,1521.516,1583.923,1521.508,1583.916,1521.5Z" transform="translate(-1424.425 -1373.752)" fill="#74160d"/>
        <path id="Trazado_1045756" data-name="Trazado 1045756" d="M1669.688,1507.747a.173.173,0,0,1-.218-.113l-3.417-10.85a.174.174,0,0,1,.113-.218h0a.173.173,0,0,1,.217.113l.056.177,3.361,10.672A.172.172,0,0,1,1669.688,1507.747Z" transform="translate(-1528.869 -1358.669)" fill="#74160d"/>
        <path id="Trazado_1045757" data-name="Trazado 1045757" d="M1696.577,1233.807a5.6,5.6,0,0,1,1.844-3.768,5.66,5.66,0,0,1,3.735-1.757,2.356,2.356,0,0,1,1.731.66,2.328,2.328,0,0,1,.62,1.67,3.832,3.832,0,0,1-.144,1.01.174.174,0,0,1-.335-.092h0a3.506,3.506,0,0,0,.131-.918,1.982,1.982,0,0,0-.521-1.428,2.009,2.009,0,0,0-1.483-.555,3.993,3.993,0,0,0-1.461.313,6.11,6.11,0,0,1,1.021,3.556,8.783,8.783,0,0,1-.406,2.579.174.174,0,1,1-.332-.1,8.427,8.427,0,0,0,.392-2.478,6.345,6.345,0,0,0-.505-2.545,4.745,4.745,0,0,0-.345-.654c-.047-.073-.085-.128-.111-.163l-.03-.04-.008-.01s0,0,0,0a6.429,6.429,0,0,0-1.7,1.205,5.267,5.267,0,0,0-1.739,3.52,1.987,1.987,0,0,0,.521,1.428.174.174,0,1,1-.249.243A2.348,2.348,0,0,1,1696.577,1233.807Z" transform="translate(-1575.398 -1194.36)" fill="#74160d"/>
        <path id="Trazado_1045758" data-name="Trazado 1045758" d="M1761.781,1619.939a46.487,46.487,0,0,1-5-8.133,58.291,58.291,0,0,1-5.74-19.638c0-.018.011-.031.014-.048a.166.166,0,0,1,.14-.143.173.173,0,0,1,.191.154c0,.017,0,.034.006.051a57.947,57.947,0,0,0,5.816,19.7c.067.134.134.271.2.4a52.043,52.043,0,0,0,3.256,5.535c.425.625.774,1.1,1.02,1.429l-.928-6.711-2.636-19.065c0-.02.01-.035.014-.052a.164.164,0,0,1,.135-.143.174.174,0,0,1,.2.148l.008.057,2.644,19.122,8.665,62.684c0,.009-.006.015-.006.024a.169.169,0,0,1-.142.172.174.174,0,0,1-.2-.148l0-.024Z" transform="translate(-1661.781 -1417.11)" fill="#74160d"/>
        <path id="Trazado_1045759" data-name="Trazado 1045759" d="M1637.3,1634.774a42.245,42.245,0,0,1-6.628-5.364,40.666,40.666,0,0,1-11.057-20.5.166.166,0,0,1,.093-.179c.014-.008.022-.024.039-.027a.163.163,0,0,1,.16.064.158.158,0,0,1,.047.068,40.245,40.245,0,0,0,11.342,20.688,42.162,42.162,0,0,0,6.194,4.959,45.009,45.009,0,0,0,9.192,4.619c1.211.442,2.206.741,2.9.929.345.094.615.161.8.2s.276.062.277.062a.216.216,0,0,1,.136.2c0,.015-.018.023-.025.036a.167.167,0,0,1-.18.1h0a31.783,31.783,0,0,1-4.229-1.288l8.347,46.176c0,.011-.007.02-.007.031a.168.168,0,0,1-.133.171.173.173,0,0,1-.2-.14l-.006-.031-8.378-46.35A45.134,45.134,0,0,1,1637.3,1634.774Z" transform="translate(-1495.77 -1427.353)" fill="#74160d"/>
        <path id="Trazado_1045760" data-name="Trazado 1045760" d="M1841.705,1603.973c.585-1.578,1.1-3.158,1.544-4.688a87.815,87.815,0,0,0,2.111-9.14c.209-1.187.354-2.154.446-2.824s.133-1.04.133-1.041a.209.209,0,0,1,.192-.154.176.176,0,0,1,.154.191h0a85.237,85.237,0,0,1-2.7,13.065c-.442,1.519-.952,3.087-1.531,4.655a37.976,37.976,0,0,1-6.937,12.3v55.391a.173.173,0,1,1-.347,0v-55.019a19.069,19.069,0,0,1-2.24,2.026c-.028.021-.053.045-.08.065a.174.174,0,1,1-.209-.277c.1-.074.192-.159.291-.236C1836.694,1615.014,1839.655,1609.511,1841.705,1603.973Z" transform="translate(-1769.724 -1413.526)" fill="#74160d"/>
        <path id="Trazado_1045761" data-name="Trazado 1045761" d="M1778.857,1466.544c-8.851-8.864-15.847-23.542-20.643-36.009a222.036,222.036,0,0,1-7.383-22.726.173.173,0,0,1,.336-.085h0s.161.638.478,1.793c2.214,8.077,12.076,41.393,27.457,56.782a.173.173,0,0,1,0,.245A.17.17,0,0,1,1778.857,1466.544Z" transform="translate(-1671.068 -1304.182)" fill="#74160d"/>
        <path id="Trazado_1045762" data-name="Trazado 1045762" d="M1887.481,1368.778a.173.173,0,0,1,.344.041c-.529,4.507-.922,15.829-1.182,26.011-.13,5.092-.227,9.9-.292,13.438-.032,1.768-.057,3.218-.073,4.226s-.024,1.572-.024,1.573a.173.173,0,0,1-.173.17h0a.174.174,0,0,1-.171-.176h0s.008-.532.023-1.474C1886.039,1405.718,1886.547,1376.761,1887.481,1368.778Z" transform="translate(-1832.09 -1280.315)" fill="#74160d"/>
        <path id="Trazado_1045763" data-name="Trazado 1045763" d="M1684.968,1247.7l0,0c4.591-.351,9.042-.475,13.267-.448l2.041-12.221a11.493,11.493,0,0,1-5.32-10.8l-.01,0,.021-.151c.015-.138.037-.276.057-.415l1.718-12.352c.01-.088.025-.176.037-.264l.074-.536.017.005a13.9,13.9,0,0,1,.335-1.458,92.72,92.72,0,0,0,19.838,1.824,5.788,5.788,0,0,0,3.6,6.67c.08-.085.157-.17.241-.252,2.508-2.45,5.918-3.025,7.618-1.285s1.046,5.136-1.462,7.585c-2.31,2.257-5.383,2.918-7.183,1.648l.572,3.483,3.373,20.527c5.526.838,8.808,1.62,8.808,1.62l0,0C1698.679,1281.653,1685.034,1247.864,1684.968,1247.7Zm26.577-29.162c-.315-.024-.606.418-.65.989s.174,1.053.488,1.077.6-.418.65-.989S1711.859,1218.559,1711.545,1218.535Zm-5.487,9.863a3.362,3.362,0,0,0,6.472-1.826Zm-3.441-8.847c-.016-.572-.285-1.029-.6-1.02s-.558.48-.542,1.053.285,1.028.6,1.02S1702.632,1220.124,1702.616,1219.551Zm-5.441-3.352c.328,1.331,1.44-.093,3.172-.52s3.428.3,3.1-1.028-2-2.064-3.732-1.636S1696.846,1214.865,1697.175,1216.2Zm10.254,5.084a.173.173,0,1,0-.329.109s.079.238.158.542a4.181,4.181,0,0,1,.156.915.5.5,0,0,1-.022.174.406.406,0,0,1-.146-.077,2.765,2.765,0,0,1-.386-.359l-.153-.053-.13.1-.044.087c-.028.055-.07.131-.119.216a2.513,2.513,0,0,1-.357.49.322.322,0,0,1-.164.107l-.017-.009-.067-.105a2.371,2.371,0,0,1-.131-.724l-.092-.141-.169,0-.055.03-.146.068a1.058,1.058,0,0,1-.367.094.157.157,0,0,1-.109-.029c-.014-.014-.039-.046-.04-.153a3.7,3.7,0,0,1,.545-1.441.174.174,0,0,0-.306-.164,3.907,3.907,0,0,0-.586,1.6.537.537,0,0,0,.149.406.494.494,0,0,0,.347.123,1.414,1.414,0,0,0,.508-.123,2.871,2.871,0,0,0,.077.429.781.781,0,0,0,.214.387.373.373,0,0,0,.243.093.611.611,0,0,0,.406-.205,2.324,2.324,0,0,0,.3-.371c.073-.11.133-.216.183-.3a2.537,2.537,0,0,0,.268.233.652.652,0,0,0,.363.147.325.325,0,0,0,.3-.2.8.8,0,0,0,.057-.327,6.541,6.541,0,0,0-.332-1.567Zm-8.2,20.191c4.631.719,10.255.063,13.065-3.94a12.642,12.642,0,0,0,1.827-3.736,11.428,11.428,0,0,1-13.817,1.242Zm12.378-28.011c-1.732-.426-3.4.308-3.729,1.64s1.318.587,3.05,1.013,2.9,1.861,3.223.529S1713.339,1213.889,1711.607,1213.462Zm9.444,10.239a.174.174,0,0,0,0-.246,1.987,1.987,0,0,1-.521-1.428,5.269,5.269,0,0,1,1.739-3.52,6.411,6.411,0,0,1,1.7-1.205s0,0,0,0l.008.01.03.04c.026.036.065.09.111.163a4.8,4.8,0,0,1,.345.654,6.345,6.345,0,0,1,.505,2.545,8.426,8.426,0,0,1-.392,2.478.174.174,0,1,0,.332.1,8.789,8.789,0,0,0,.406-2.579,6.115,6.115,0,0,0-1.021-3.556,3.991,3.991,0,0,1,1.461-.313,2.009,2.009,0,0,1,1.483.555,1.981,1.981,0,0,1,.521,1.428,3.5,3.5,0,0,1-.131.918h0a.174.174,0,0,0,.335.092,3.849,3.849,0,0,0,.144-1.01,2.328,2.328,0,0,0-.62-1.67,2.358,2.358,0,0,0-1.731-.66,5.66,5.66,0,0,0-3.735,1.758,5.6,5.6,0,0,0-1.844,3.768,2.333,2.333,0,0,0,.619,1.671A.171.171,0,0,0,1721.051,1223.7Z" transform="translate(-1599.005 -1182.584)" fill="#9f535b"/>
        <path id="Trazado_1045764" data-name="Trazado 1045764" d="M1719.939,1320.5c-5.762,3.9-13.481,7.82-21.336,7.822a20.866,20.866,0,0,1-12.684-4.17c-4.052-2.992-7.818-7.793-11-15.028-.008-.02,0-.039,0-.059a.164.164,0,0,1,.09-.169.173.173,0,0,1,.229.089c.008.018.016.034.024.052,3.16,7.165,6.884,11.9,10.865,14.836a20.52,20.52,0,0,0,12.478,4.1c7.737,0,15.409-3.875,21.141-7.762a71.558,71.558,0,0,0,6.91-5.344c.832-.729,1.485-1.336,1.929-1.76.2-.19.348-.336.46-.447.139-.138.218-.218.218-.218a.173.173,0,1,1,.248.242h0l-.057.057A68.432,68.432,0,0,1,1719.939,1320.5Z" transform="translate(-1592.055 -1243.722)" fill="#74160d"/>
        <path id="Trazado_1045765" data-name="Trazado 1045765" d="M1909.383,1484.578a.174.174,0,0,1-.218-.114l-4.811-15.272a.174.174,0,1,1,.331-.1l4.811,15.272A.173.173,0,0,1,1909.383,1484.578Z" transform="translate(-1860.914 -1341.771)" fill="#74160d"/>
        <path id="Trazado_1045766" data-name="Trazado 1045766" d="M1979.439,1366.005h0a35.254,35.254,0,0,1,3.372,2.112,16.1,16.1,0,0,1,2.331,1.968,3.334,3.334,0,0,1,1.095,2.054,1.3,1.3,0,0,1-.021.235,1.1,1.1,0,0,1-.585.807,2.444,2.444,0,0,1-1.153.231,14.346,14.346,0,0,1-4.436-1.056c.047.031.094.06.141.092a9.949,9.949,0,0,1,1.776,1.482,2.742,2.742,0,0,1,.838,1.745,1.552,1.552,0,0,1-.171.706,1.256,1.256,0,0,1-.639.589,2.375,2.375,0,0,1-.949.168,8.716,8.716,0,0,1-2.618-.548c.173.135.354.281.537.441a4.168,4.168,0,0,1,1.7,2.653,1.481,1.481,0,0,1-.319.919,1.779,1.779,0,0,1-1.49.6,10.865,10.865,0,0,1-4.009-1.178c-.582-.27-1.1-.537-1.489-.75-.457-.248-.745-.42-.747-.421a.173.173,0,0,1-.059-.238c.006-.011.02-.012.028-.021a.167.167,0,0,1,.21-.039s.238.143.634.359a24.782,24.782,0,0,0,2.543,1.217,8.5,8.5,0,0,0,2.889.723,1.44,1.44,0,0,0,1.214-.46,1.13,1.13,0,0,0,.247-.708,3.9,3.9,0,0,0-1.581-2.392,13.2,13.2,0,0,0-1.112-.865c-.152-.106-.278-.189-.366-.246l-.137-.087h0c-.335-.139-.666-.282-.982-.426-1.6-.731-2.863-1.46-2.866-1.462a.164.164,0,0,1-.072-.174c0-.021,0-.044.008-.063s.021-.013.03-.023a.167.167,0,0,1,.207-.041h0s.312.18.823.452a35.1,35.1,0,0,0,3.246,1.526,10.665,10.665,0,0,0,3.53.908,2.038,2.038,0,0,0,.81-.14.9.9,0,0,0,.468-.428,1.2,1.2,0,0,0,.133-.549,2.414,2.414,0,0,0-.749-1.513,11.806,11.806,0,0,0-2.635-2.011c-.442-.262-.84-.474-1.128-.622s-.462-.228-.462-.228-.006-.01-.011-.012c-1.134-.511-2.24-1.057-3.209-1.586a.174.174,0,0,1,.167-.3,46.164,46.164,0,0,0,5.334,2.479,15.081,15.081,0,0,0,4.722,1.185,2.118,2.118,0,0,0,.988-.19.749.749,0,0,0,.408-.562l.015-.174a3.039,3.039,0,0,0-1-1.817,19.706,19.706,0,0,0-3.5-2.751c-.587-.378-1.115-.693-1.5-.914s-.614-.346-.614-.346a.169.169,0,0,1-.073-.208c0-.009,0-.018,0-.027s.006,0,.008-.006A.168.168,0,0,1,1979.439,1366.005Z" transform="translate(-1964.065 -1278.698)" fill="#74160d"/>
        <path id="Trazado_1045767" data-name="Trazado 1045767" d="M1977.374,1378.386c-.885-.4-1.427-1.11-1.212-1.589s1.109-.544,1.993-.145,1.428,1.11,1.213,1.588S1978.257,1378.785,1977.374,1378.386Z" transform="translate(-1958.637 -1285.071)" fill="#ce6a78"/>
        <path id="Trazado_1045768" data-name="Trazado 1045768" d="M1986.213,1387.755c-.885-.4-1.428-1.111-1.213-1.589s1.109-.545,1.994-.146,1.428,1.111,1.212,1.589S1987.1,1388.154,1986.213,1387.755Z" transform="translate(-1970.902 -1290.809)" fill="#ce6a78"/>
        <path id="Trazado_1045769" data-name="Trazado 1045769" d="M1993.4,1395.967c.885.4,1.429,1.111,1.213,1.589s-1.108.544-1.993.146-1.428-1.111-1.213-1.589S1992.512,1395.568,1993.4,1395.967Z" transform="translate(-1979.789 -1296.901)" fill="#ce6a78"/>
        <path id="Trazado_1045770" data-name="Trazado 1045770" d="M1966.842,1360.9h0s.036.866.143,2.069a35.9,35.9,0,0,0,.572,4.085l.037.174-.175.033-.046.01a5.4,5.4,0,0,0-2.5,1.53c-1.1,1.146-2.141,3.112-2.143,6.5,0,.1,0,.194,0,.295a.174.174,0,0,1-.347,0c0-.1,0-.2,0-.3,0-3.691,1.227-5.8,2.471-6.973a5.725,5.725,0,0,1,2.333-1.368,45.026,45.026,0,0,1-.689-6.048.158.158,0,0,1,.03-.082.162.162,0,0,1,.136-.1s.006,0,.009,0A.169.169,0,0,1,1966.842,1360.9Z" transform="translate(-1941.494 -1275.479)" fill="#74160d"/>
      </g>
    </g>
  </g>
</svg>
