<svg xmlns="http://www.w3.org/2000/svg" xmlns:xlink="http://www.w3.org/1999/xlink" width="118" height="118" viewBox="0 0 118 118">
  <defs>
    <filter id="Trazado_982547" x="0" y="0" width="118" height="118" filterUnits="userSpaceOnUse">
      <feOffset dy="3" input="SourceAlpha"/>
      <feGaussianBlur stdDeviation="3" result="blur"/>
      <feFlood flood-opacity="0.161"/>
      <feComposite operator="in" in2="blur"/>
      <feComposite in="SourceGraphic"/>
    </filter>
  </defs>
  <g id="Grupo_1200716" data-name="Grupo 1200716" transform="translate(-269 -3364)">
    <g id="Grupo_1176832" data-name="Grupo 1176832" transform="translate(0 -6294.328)">
      <g id="Grupo_1176356" data-name="Grupo 1176356" transform="translate(278 9664.328)">
        <g id="Grupo_1172970" data-name="Grupo 1172970" transform="translate(0)">
          <g id="Grupo_1171971" data-name="Grupo 1171971">
            <g id="Grupo_1167337" data-name="Grupo 1167337">
              <g id="Grupo_1166720" data-name="Grupo 1166720">
                <g id="Grupo_1164305" data-name="Grupo 1164305">
                  <g id="Grupo_1163948" data-name="Grupo 1163948">
                    <g id="Grupo_1158168" data-name="Grupo 1158168">
                      <g id="Grupo_1152576" data-name="Grupo 1152576">
                        <g id="Grupo_1148633" data-name="Grupo 1148633">
                          <g id="Grupo_1148525" data-name="Grupo 1148525">
                            <g transform="matrix(1, 0, 0, 1, -9, -6)" filter="url(#Trazado_982547)">
                              <g id="Trazado_982547-2" data-name="Trazado 982547" transform="translate(9 6)" fill="#f2f7e5">
                                <path d="M 50 98.5 C 43.45188522338867 98.5 37.10042953491211 97.21787261962891 31.12207221984863 94.68923950195312 C 25.34691429138184 92.24655914306641 20.15995788574219 88.74932861328125 15.70532894134521 84.29468536376953 C 11.2506856918335 79.84004211425781 7.753442764282227 74.65309906005859 5.310757160186768 68.87794494628906 C 2.782128572463989 62.89958572387695 1.5 56.54813003540039 1.5 50 C 1.5 43.45188522338867 2.782128572463989 37.10042953491211 5.310757160186768 31.12207221984863 C 7.753442764282227 25.34691429138184 11.2506856918335 20.15997123718262 15.70532894134521 15.70532894134521 C 20.15997123718262 11.2506856918335 25.34691429138184 7.753442764282227 31.12207221984863 5.310757160186768 C 37.10042953491211 2.782128572463989 43.45188522338867 1.5 50 1.5 C 56.54813003540039 1.5 62.89958572387695 2.782128572463989 68.87794494628906 5.310757160186768 C 74.65309906005859 7.753442764282227 79.84004211425781 11.2506856918335 84.29468536376953 15.70532894134521 C 88.74932861328125 20.15995788574219 92.24655914306641 25.34691429138184 94.68923950195312 31.12207221984863 C 97.21787261962891 37.10042953491211 98.5 43.45188522338867 98.5 50 C 98.5 56.54813003540039 97.21787261962891 62.89958572387695 94.68923950195312 68.87794494628906 C 92.24655914306641 74.65309906005859 88.74932861328125 79.84004211425781 84.29468536376953 84.29468536376953 C 79.84004211425781 88.74932861328125 74.65309906005859 92.24655914306641 68.87794494628906 94.68923950195312 C 62.89958572387695 97.21787261962891 56.54813003540039 98.5 50 98.5 Z" stroke="none"/>
                                <path d="M 50 3 C 43.65372467041016 3 37.49886322021484 4.242263793945312 31.70639801025391 6.6922607421875 C 26.11003112792969 9.059326171875 21.08335113525391 12.44861602783203 16.76598358154297 16.76598358154297 C 12.44861602783203 21.08335113525391 9.059326171875 26.11003112792969 6.6922607421875 31.70639801025391 C 4.242263793945312 37.49886322021484 3 43.65372467041016 3 50 C 3 56.34629058837891 4.242263793945312 62.50115203857422 6.6922607421875 68.29361724853516 C 9.059326171875 73.88998413085938 12.44861602783203 78.91666412353516 16.76598358154297 83.23403167724609 C 21.08335113525391 87.55138397216797 26.11003112792969 90.940673828125 31.70639801025391 93.3077392578125 C 37.49886322021484 95.75773620605469 43.65372467041016 97 50 97 C 56.34629058837891 97 62.50115203857422 95.75773620605469 68.29361724853516 93.3077392578125 C 73.88998413085938 90.940673828125 78.91666412353516 87.55138397216797 83.23403167724609 83.23403167724609 C 87.55138397216797 78.91666412353516 90.940673828125 73.88998413085938 93.3077392578125 68.29361724853516 C 95.75773620605469 62.50115203857422 97 56.34629058837891 97 50 C 97 43.65372467041016 95.75773620605469 37.49886322021484 93.3077392578125 31.70639801025391 C 90.940673828125 26.11003112792969 87.55138397216797 21.08335113525391 83.23403167724609 16.76598358154297 C 78.91666412353516 12.44861602783203 73.88998413085938 9.059326171875 68.29361724853516 6.6922607421875 C 62.50115203857422 4.242263793945312 56.34629058837891 3 50 3 M 50 0 C 77.6142578125 0 100 22.38577270507812 100 50 C 100 77.6142578125 77.6142578125 100 50 100 C 22.38577270507812 100 0 77.6142578125 0 50 C 0 22.38577270507812 22.38577270507812 0 50 0 Z" stroke="none" fill="#86b60c"/>
                              </g>
                            </g>
                          </g>
                        </g>
                      </g>
                    </g>
                  </g>
                </g>
              </g>
            </g>
          </g>
        </g>
      </g>
    </g>
    <g id="Filled_outline" data-name="Filled outline" transform="translate(282 3372)">
      <path id="Trazado_1045554" data-name="Trazado 1045554" d="M288,72a6.358,6.358,0,0,1,6.358,6.358v15.9A6.358,6.358,0,0,1,288,87.9Z" transform="translate(-235.969 -48.582)" fill="#6e3c26"/>
      <path id="Trazado_1045555" data-name="Trazado 1045555" d="M135.792,229.777v6.358H104v-6.358a5.3,5.3,0,0,1,5.3-5.3h4.239a2.119,2.119,0,0,0,2.119-2.119V216h8.478v6.358a2.119,2.119,0,0,0,2.119,2.119h4.239A5.3,5.3,0,0,1,135.792,229.777Z" transform="translate(-76.343 -173.507)" fill="#fec9a3"/>
      <path id="Trazado_1045556" data-name="Trazado 1045556" d="M200.478,216v4.307a9.551,9.551,0,0,1-8.478,0V216Z" transform="translate(-152.686 -173.507)" fill="#fec093"/>
      <path id="Trazado_1045557" data-name="Trazado 1045557" d="M88.852,280H86.732a9.021,9.021,0,0,1-16.956,0h-2.36a6.358,6.358,0,0,0-6.2,4.929L56,307.553h8.478l3.179-10.6,2.119,3.179v7.418H94.151V285.3a5.3,5.3,0,0,0-5.3-5.3Z" transform="translate(-34.701 -229.029)" fill="#7eb457"/>
      <path id="Trazado_1045558" data-name="Trazado 1045558" d="M123.179,136H125.3v6.358h-2.119a3.179,3.179,0,1,1,0-6.358Z" transform="translate(-90.223 -104.104)" fill="#fec093"/>
      <path id="Trazado_1045559" data-name="Trazado 1045559" d="M268.926,376.956h17.7a3.179,3.179,0,0,0,3.155-2.785L291.553,360H264l1.771,14.171A3.179,3.179,0,0,0,268.926,376.956Z" transform="translate(-215.148 -298.432)" fill="#d75246"/>
      <path id="Trazado_1045560" data-name="Trazado 1045560" d="M376.471,244.735l-4.656-11.462a1.966,1.966,0,0,0-2.937-.912,2.068,2.068,0,0,0-.743,2.454l3.868,9.92Z" transform="translate(-305.364 -187.406)" fill="#4c5985"/>
      <path id="Trazado_1045561" data-name="Trazado 1045561" d="M304,244.735l4.656-11.462a1.966,1.966,0,0,1,2.937-.912,2.068,2.068,0,0,1,.743,2.454l-3.868,9.92Z" transform="translate(-249.849 -187.406)" fill="#4c5985"/>
      <rect id="Rectángulo_415869" data-name="Rectángulo 415869" width="32" height="3" rx="1.5" transform="translate(78.302 61.298) rotate(180)" fill="#e06257"/>
      <path id="Trazado_1045562" data-name="Trazado 1045562" d="M32.478,390.836H24V376h5.3Z" transform="translate(-6.94 -312.312)" fill="#fec093"/>
      <path id="Trazado_1045563" data-name="Trazado 1045563" d="M40.995,312.551a2.248,2.248,0,0,1-.013,3.192l-5.8,5.7L32,318.265l5.829-5.728A2.248,2.248,0,0,1,40.995,312.551Z" transform="translate(-13.881 -256.697)" fill="#fec093"/>
      <rect id="Rectángulo_415870" data-name="Rectángulo 415870" width="11" height="17" rx="5.5" transform="translate(27.302 56.298) rotate(180)" fill="#d75246"/>
      <rect id="Rectángulo_415871" data-name="Rectángulo 415871" width="8" height="11" rx="4" transform="translate(24.302 66.298) rotate(180)" fill="#fec9a3"/>
      <path id="Trazado_1045564" data-name="Trazado 1045564" d="M24,440v6.358h8.478L31.115,440Z" transform="translate(-6.94 -367.834)" fill="#88c25e"/>
      <path id="Trazado_1045565" data-name="Trazado 1045565" d="M3.179,0H5.3V6.358H3.179A3.179,3.179,0,0,1,3.179,0Z" transform="translate(57.33 37.194) rotate(180)" fill="#fec093"/>
      <path id="Trazado_1045566" data-name="Trazado 1045566" d="M161.538,91.58A9.538,9.538,0,0,1,152,82.042V72.5c3.179-4.239,14.836-5.3,19.075,0v9.538A9.538,9.538,0,0,1,161.538,91.58Z" transform="translate(-117.984 -45.908)" fill="#fec9a3"/>
      <path id="Trazado_1045567" data-name="Trazado 1045567" d="M158.255,37.777a3.172,3.172,0,0,1,1.06.182V34.6a10.6,10.6,0,0,0-10.6-10.6H146.6A10.6,10.6,0,0,0,136,34.6v5.3c5.946-1.39,11.361-1.878,15.734-5.455l2.4-1.963,3.061,5.3Z" transform="translate(-104.104 -6.941)" fill="#7a432a"/>
      <path id="Trazado_1045568" data-name="Trazado 1045568" d="M119.2,348.211l-1.621-1.365a9.028,9.028,0,0,0-1.914,7.612l-3.31,10.775,2.026.623,2.53-8.233a9.848,9.848,0,0,0,.6.878v7.044h2.119v-7.418a1.061,1.061,0,0,0-.248-.682A7.163,7.163,0,0,1,119.2,348.211Z" transform="translate(-83.589 -287.02)"/>
      <ellipse id="Elipse_13423" data-name="Elipse 13423" cx="1.5" cy="2" rx="1.5" ry="2" transform="translate(46.302 30.298)"/>
      <path id="Trazado_1045569" data-name="Trazado 1045569" d="M203.179,177.06a1.061,1.061,0,0,1-1.06-1.06H200a3.179,3.179,0,1,0,6.358,0h-2.119A1.061,1.061,0,0,1,203.179,177.06Z" transform="translate(-159.626 -138.806)"/>
      <path id="Trazado_1045570" data-name="Trazado 1045570" d="M360,432h2.12v4.239H360Z" transform="translate(-298.431 -360.894)"/>
      <path id="Trazado_1045571" data-name="Trazado 1045571" d="M328,432h2.12v4.239H328Z" transform="translate(-270.67 -360.894)"/>
      <path id="Trazado_1045572" data-name="Trazado 1045572" d="M296,432h2.119v4.239H296Z" transform="translate(-242.909 -360.894)"/>
      <path id="Trazado_1045573" data-name="Trazado 1045573" d="M392,432h2.119v4.239H392Z" transform="translate(-326.192 -360.894)"/>
      <path id="Trazado_1045574" data-name="Trazado 1045574" d="M424,432h2.12v4.239H424Z" transform="translate(-353.953 -360.894)"/>
      <path id="Trazado_1045575" data-name="Trazado 1045575" d="M360,384h2.12v4.239H360Z" transform="translate(-298.431 -319.252)"/>
      <path id="Trazado_1045576" data-name="Trazado 1045576" d="M328,384h2.12v4.239H328Z" transform="translate(-270.67 -319.252)"/>
      <path id="Trazado_1045577" data-name="Trazado 1045577" d="M296,384h2.119v4.239H296Z" transform="translate(-242.909 -319.252)"/>
      <path id="Trazado_1045578" data-name="Trazado 1045578" d="M392,384h2.119v4.239H392Z" transform="translate(-326.192 -319.252)"/>
      <path id="Trazado_1045579" data-name="Trazado 1045579" d="M424,384h2.12v4.239H424Z" transform="translate(-353.953 -319.252)"/>
      <path id="Trazado_1045580" data-name="Trazado 1045580" d="M159.7,56.27H155.11l-4.387-10.8a3.052,3.052,0,0,0-1.951-1.788,2.973,2.973,0,0,0-2.853.627,2.972,2.972,0,0,0-2.853-.626,3.032,3.032,0,0,0-.326.119V29.776a7.42,7.42,0,0,0-4.084-6.627A11.716,11.716,0,0,0,127.9,16h-2.119a11.548,11.548,0,0,0-7.117,2.424l1.3,1.678a9.445,9.445,0,0,1,5.822-1.982H127.9a9.583,9.583,0,0,1,8.93,6.184,9.471,9.471,0,0,1,.607,3.354v2.119h-.448l-2.755-4.769a1.06,1.06,0,0,0-1.589-.29l-2.4,1.963c-3.327,2.722-7.3,3.548-11.9,4.5-.689.143-1.393.29-2.106.445V27.657a9.538,9.538,0,0,1,2.279-6.187l-1.613-1.376a11.66,11.66,0,0,0-2.786,7.563v3.751a4.237,4.237,0,0,0,2.119,7.906h.485a10.547,10.547,0,0,0,4.814,6v3.538a1.061,1.061,0,0,1-1.06,1.06h-4.239c-.056,0-.113,0-.169,0a6.365,6.365,0,0,0-1.458.208l.54,2.049a4.249,4.249,0,0,1,.984-.138l.042,0c.02,0,.041,0,.061,0h1.406a9.889,9.889,0,0,0,3.589,4.279,10.134,10.134,0,0,0,5.6,1.659V55.85a7.825,7.825,0,0,1-6.815-3.819h.457a3.183,3.183,0,0,0,3.179-3.179v-2.6a10.664,10.664,0,0,0,6.358,0v2.6a3.183,3.183,0,0,0,3.179,3.179h.455a7.627,7.627,0,0,1-1.918,2.181l1.3,1.678a9.982,9.982,0,0,0,3-3.858h1.405V49.911H133.2a1.061,1.061,0,0,1-1.06-1.06V45.311a10.7,10.7,0,0,0,2.964-2.546,7.375,7.375,0,0,0,5.526,3.895l-3.9,9.611h-4.585a3.179,3.179,0,0,0-.954,6.212l1.674,13.389a4.246,4.246,0,0,0,4.206,3.713h17.7a4.246,4.246,0,0,0,4.206-3.713l.309-2.475-2.1-.263-.309,2.475a2.123,2.123,0,0,1-2.1,1.857h-17.7a2.123,2.123,0,0,1-2.1-1.857l-1.623-12.98H158.5l-.913,7.3,2.1.263.964-7.71a3.179,3.179,0,0,0-.954-6.213ZM116.246,37.194a2.117,2.117,0,0,1-1.692-3.391,1.051,1.051,0,0,0,.874.185q.411-.1.819-.187v2.333c0,.354.019.707.054,1.06Zm19.075-1.06a8.385,8.385,0,0,1-.867,3.739l-.014.03a8.476,8.476,0,0,1-16.074-3.769V33.347l.419-.087c.594-.124,1.184-.246,1.769-.373a1.588,1.588,0,0,0,3.085-.739,20.711,20.711,0,0,0,7.954-3.828l1.434-1.174,2.3,3.974Zm2.119-4.239a2.119,2.119,0,1,1,0,4.239Zm3.179,12.612a5.266,5.266,0,0,1-4.109-4.028,10.451,10.451,0,0,0,.719-2.225h.211a4.229,4.229,0,0,0,3.18-1.44Zm0-13.292a4.265,4.265,0,0,0-1.06-.869v-2.69c0-.38-.02-.757-.056-1.132a5.255,5.255,0,0,1,1.115,3.251ZM147.4,45.83a.876.876,0,0,1,.759-.119.942.942,0,0,1,.6.556l4.063,10h-2.169l-3.605-9.245A1.01,1.01,0,0,1,147.4,45.83Zm-1.484,4.131,2.46,6.309h-4.92Zm-2.84-3.695a.942.942,0,0,1,.6-.556.875.875,0,0,1,.759.12,1.009,1.009,0,0,1,.354,1.194l-3.605,9.246h-2.169ZM159.7,60.509H132.142a1.06,1.06,0,0,1,0-2.119H159.7a1.06,1.06,0,0,1,0,2.119Z" transform="translate(-83.291 0)"/>
      <path id="Trazado_1045581" data-name="Trazado 1045581" d="M26.6,209.434v-1.62l2.3-2.265a3.309,3.309,0,0,0,.481-4.123,3.184,3.184,0,0,0,.394-1.53V187.179A3.183,3.183,0,0,0,26.6,184H19.179A3.183,3.183,0,0,0,16,187.179V199.9a3.182,3.182,0,0,0,.427,1.591A3.159,3.159,0,0,0,16,203.075v6.358a3.172,3.172,0,0,0,1.06,2.367V224.27h2.119v-5.3h5.166v-.152l1.216,5.673,2.072-.444-2.552-11.906a3.179,3.179,0,0,0,1.516-2.708Zm1.174-6.238a1.18,1.18,0,0,1-.355.842l-.82.805v-1.767a3.144,3.144,0,0,0,1.13-.208A1.193,1.193,0,0,1,27.772,203.2Zm-2.234-17.076H26.6a1.061,1.061,0,0,1,1.06,1.06V199.9a1.073,1.073,0,0,1-1.06,1.06h-.812a3.16,3.16,0,0,0-.248-.248Zm-7.418,1.06a1.061,1.061,0,0,1,1.06-1.06h3.179V199.9H19.179a3.167,3.167,0,0,0-1.044.177,1.06,1.06,0,0,1-.016-.177Zm1.06,29.673v-4.239h3.836l.908,4.239Zm5.3-7.418a1.061,1.061,0,0,1-1.06,1.06H19.179a1.061,1.061,0,0,1-1.06-1.06v-6.358a1.061,1.061,0,0,1,1.06-1.06h4.239a1.061,1.061,0,0,1,1.06,1.06Z" transform="translate(0 -145.746)"/>
    </g>
  </g>
</svg>
