<svg xmlns="http://www.w3.org/2000/svg" xmlns:xlink="http://www.w3.org/1999/xlink" width="118" height="118" viewBox="0 0 118 118">
  <defs>
    <filter id="Trazado_982547" x="0" y="0" width="118" height="118" filterUnits="userSpaceOnUse">
      <feOffset dy="3" input="SourceAlpha"/>
      <feGaussianBlur stdDeviation="3" result="blur"/>
      <feFlood flood-opacity="0.161"/>
      <feComposite operator="in" in2="blur"/>
      <feComposite in="SourceGraphic"/>
    </filter>
  </defs>
  <g id="Grupo_1200727" data-name="Grupo 1200727" transform="translate(-1214 -3363.869)">
    <g id="Grupo_1176876" data-name="Grupo 1176876" transform="translate(0 -6294.459)">
      <g id="Grupo_1176359" data-name="Grupo 1176359" transform="translate(1223 9664.328)">
        <g id="Grupo_1172970" data-name="Grupo 1172970" transform="translate(0)">
          <g id="Grupo_1171971" data-name="Grupo 1171971" transform="translate(0)">
            <g id="Grupo_1167337" data-name="Grupo 1167337">
              <g id="Grupo_1166720" data-name="Grupo 1166720">
                <g id="Grupo_1164305" data-name="Grupo 1164305">
                  <g id="Grupo_1163948" data-name="Grupo 1163948">
                    <g id="Grupo_1158168" data-name="Grupo 1158168">
                      <g id="Grupo_1152576" data-name="Grupo 1152576">
                        <g id="Grupo_1148633" data-name="Grupo 1148633">
                          <g id="Grupo_1148525" data-name="Grupo 1148525">
                            <g transform="matrix(1, 0, 0, 1, -9, -6)" filter="url(#Trazado_982547)">
                              <g id="Trazado_982547-2" data-name="Trazado 982547" transform="translate(9 6)" fill="#f2f7e5">
                                <path d="M 50 98.5 C 43.45188522338867 98.5 37.10042953491211 97.21787261962891 31.12207221984863 94.68923950195312 C 25.34691429138184 92.24655914306641 20.15995788574219 88.74932861328125 15.70532894134521 84.29468536376953 C 11.2506856918335 79.84004211425781 7.753442764282227 74.65309906005859 5.310757160186768 68.87794494628906 C 2.782128572463989 62.89958572387695 1.5 56.54813003540039 1.5 50 C 1.5 43.45188522338867 2.782128572463989 37.10042953491211 5.310757160186768 31.12207221984863 C 7.753442764282227 25.34691429138184 11.2506856918335 20.15997123718262 15.70532894134521 15.70532894134521 C 20.15997123718262 11.2506856918335 25.34691429138184 7.753442764282227 31.12207221984863 5.310757160186768 C 37.10042953491211 2.782128572463989 43.45188522338867 1.5 50 1.5 C 56.54813003540039 1.5 62.89958572387695 2.782128572463989 68.87794494628906 5.310757160186768 C 74.65309906005859 7.753442764282227 79.84004211425781 11.2506856918335 84.29468536376953 15.70532894134521 C 88.74932861328125 20.15995788574219 92.24655914306641 25.34691429138184 94.68923950195312 31.12207221984863 C 97.21787261962891 37.10042953491211 98.5 43.45188522338867 98.5 50 C 98.5 56.54813003540039 97.21787261962891 62.89958572387695 94.68923950195312 68.87794494628906 C 92.24655914306641 74.65309906005859 88.74932861328125 79.84004211425781 84.29468536376953 84.29468536376953 C 79.84004211425781 88.74932861328125 74.65309906005859 92.24655914306641 68.87794494628906 94.68923950195312 C 62.89958572387695 97.21787261962891 56.54813003540039 98.5 50 98.5 Z" stroke="none"/>
                                <path d="M 50 3 C 43.65372467041016 3 37.49886322021484 4.242263793945312 31.70639801025391 6.6922607421875 C 26.11003112792969 9.059326171875 21.08335113525391 12.44861602783203 16.76598358154297 16.76598358154297 C 12.44861602783203 21.08335113525391 9.059326171875 26.11003112792969 6.6922607421875 31.70639801025391 C 4.242263793945312 37.49886322021484 3 43.65372467041016 3 50 C 3 56.34629058837891 4.242263793945312 62.50115203857422 6.6922607421875 68.29361724853516 C 9.059326171875 73.88998413085938 12.44861602783203 78.91666412353516 16.76598358154297 83.23403167724609 C 21.08335113525391 87.55138397216797 26.11003112792969 90.940673828125 31.70639801025391 93.3077392578125 C 37.49886322021484 95.75773620605469 43.65372467041016 97 50 97 C 56.34629058837891 97 62.50115203857422 95.75773620605469 68.29361724853516 93.3077392578125 C 73.88998413085938 90.940673828125 78.91666412353516 87.55138397216797 83.23403167724609 83.23403167724609 C 87.55138397216797 78.91666412353516 90.940673828125 73.88998413085938 93.3077392578125 68.29361724853516 C 95.75773620605469 62.50115203857422 97 56.34629058837891 97 50 C 97 43.65372467041016 95.75773620605469 37.49886322021484 93.3077392578125 31.70639801025391 C 90.940673828125 26.11003112792969 87.55138397216797 21.08335113525391 83.23403167724609 16.76598358154297 C 78.91666412353516 12.44861602783203 73.88998413085938 9.059326171875 68.29361724853516 6.6922607421875 C 62.50115203857422 4.242263793945312 56.34629058837891 3 50 3 M 50 0 C 77.6142578125 0 100 22.38577270507812 100 50 C 100 77.6142578125 77.6142578125 100 50 100 C 22.38577270507812 100 0 77.6142578125 0 50 C 0 22.38577270507812 22.38577270507812 0 50 0 Z" stroke="none" fill="#86b60c"/>
                              </g>
                            </g>
                          </g>
                        </g>
                      </g>
                    </g>
                  </g>
                </g>
              </g>
            </g>
          </g>
        </g>
      </g>
    </g>
    <g id="inversion_1_" data-name="inversion (1)" transform="translate(1240.216 3387.216)">
      <path id="Trazado_1045594" data-name="Trazado 1045594" d="M248,279.727A31.726,31.726,0,0,0,279.727,248H248Z" transform="translate(-215.216 -215.216)" fill="#ececec"/>
      <path id="Trazado_1045595" data-name="Trazado 1045595" d="M8,248a31.726,31.726,0,0,0,31.727,31.727V248Z" transform="translate(-6.942 -215.216)" fill="#ffeaa7"/>
      <path id="Trazado_1045596" data-name="Trazado 1045596" d="M39.727,8A31.726,31.726,0,0,0,8,39.727H39.727Z" transform="translate(-6.942 -6.942)" fill="#ececec"/>
      <g id="Grupo_1200724" data-name="Grupo 1200724" transform="translate(13.79 1.058)">
        <circle id="Elipse_13424" data-name="Elipse 13424" cx="2.121" cy="2.121" r="2.121" transform="translate(8.486 46.479)" fill="#fb5968"/>
        <circle id="Elipse_13425" data-name="Elipse 13425" cx="2.121" cy="2.121" r="2.121" transform="translate(0 37.993)" fill="#fb5968"/>
        <path id="Trazado_1045597" data-name="Trazado 1045597" d="M279.727,39.727A31.726,31.726,0,0,0,248,8V39.727Z" transform="translate(-229.005 -8)" fill="#fb5968"/>
      </g>
      <g id="Grupo_1200725" data-name="Grupo 1200725" transform="translate(7.425 0.864)">
        <rect id="Rectángulo_415872" data-name="Rectángulo 415872" width="4.243" height="25.458" transform="translate(0 0)" fill="#fea82f"/>
        <rect id="Rectángulo_415873" data-name="Rectángulo 415873" width="4.243" height="21.215" transform="translate(4.243 4.243)" fill="#fea82f"/>
        <rect id="Rectángulo_415874" data-name="Rectángulo 415874" width="4.243" height="16.972" transform="translate(8.486 8.486)" fill="#fea82f"/>
        <rect id="Rectángulo_415875" data-name="Rectángulo 415875" width="4.243" height="12.729" transform="translate(12.729 12.729)" fill="#fea82f"/>
        <rect id="Rectángulo_415876" data-name="Rectángulo 415876" width="4.243" height="8.486" transform="translate(16.972 16.972)" fill="#fea82f"/>
      </g>
      <path id="Trazado_1045598" data-name="Trazado 1045598" d="M299.466,277.07a15.847,15.847,0,1,0-22.395,22.4A31.774,31.774,0,0,0,299.466,277.07Z" transform="translate(-236.043 -236.043)" fill="#b6c1ce"/>
      <circle id="Elipse_13426" data-name="Elipse 13426" cx="12.729" cy="12.729" r="12.729" transform="translate(39.247 39.05)" fill="#fea82f"/>
      <g id="Grupo_1200726" data-name="Grupo 1200726" transform="translate(7.425 23.139)">
        <path id="Trazado_1045599" data-name="Trazado 1045599" d="M308.691,395.633A12.686,12.686,0,0,1,296.053,384c-.029.35-.053.7-.053,1.058a12.691,12.691,0,1,0,25.381,0c0-.357-.024-.707-.053-1.058A12.686,12.686,0,0,1,308.691,395.633Z" transform="translate(-264.295 -356.376)" fill="#ff8031"/>
        <rect id="Rectángulo_415877" data-name="Rectángulo 415877" width="21.215" height="3.182" transform="translate(0 0)" fill="#ff8031"/>
      </g>
      <path id="Trazado_1045600" data-name="Trazado 1045600" d="M65.569,32.784A32.766,32.766,0,0,0,16.7,4.23H12.691V0H6.345V13.417A32.488,32.488,0,0,0,0,32.784,32.8,32.8,0,0,0,44.473,63.421,13.7,13.7,0,0,0,60.8,62.231l-1.382-1.6a11.634,11.634,0,1,1,4.035-8.809,11.508,11.508,0,0,1-2.565,7.288l1.649,1.326a13.794,13.794,0,0,0,3.031-8.614,13.654,13.654,0,0,0-2.15-7.351A32.654,32.654,0,0,0,65.569,32.784Zm-2.142-1.058H54.373l7.777-7.777A30.509,30.509,0,0,1,63.427,31.727ZM58.1,15.493,46.286,27.305l1.5,1.5L59.256,17.326a30.63,30.63,0,0,1,2.127,4.4l-10,10H44.855l1.367-1.367-1.5-1.5-2.863,2.863H35.337L55.191,11.873A31.029,31.029,0,0,1,58.1,15.493ZM48.034,9.512l2.041-2.041a30.919,30.919,0,0,1,3.62,2.907L33.842,30.231V23.7L46.695,10.852l-1.5-1.5L33.842,20.713V14.186l10-10a30.408,30.408,0,0,1,4.4,2.127l-1.7,1.7ZM33.842,11.2V2.142a30.509,30.509,0,0,1,7.777,1.276Zm-8.46,7.841H27.5v6.345H25.381Zm-2.115-2.115v8.46H21.151V14.806h2.115Zm-4.23-4.23V25.381H16.921V10.576h2.115Zm-4.23-6.345V25.381H12.691V6.345ZM8.46,2.115h2.115V25.381H8.46ZM10.576,27.5H29.612V16.921h-4.23v-4.23h-4.23V8.46h-4.23V6.548a30.537,30.537,0,0,1,14.806-4.4V31.727H2.157A30.307,30.307,0,0,1,6.345,17.273V27.5ZM2.142,33.842H31.727V63.427A30.7,30.7,0,0,1,2.142,33.842Zm49.679,4.23a13.728,13.728,0,0,0-9.332,23.815,30.485,30.485,0,0,1-8.647,1.542V33.842H63.429a30.51,30.51,0,0,1-1.545,8.643A13.7,13.7,0,0,0,51.821,38.072Z"/>
      <rect id="Rectángulo_415878" data-name="Rectángulo 415878" width="17.948" height="2.115" transform="translate(27.192 39.878) rotate(135)"/>
      <path id="Trazado_1045601" data-name="Trazado 1045601" d="M163.173,352a3.173,3.173,0,1,0,3.173,3.173A3.177,3.177,0,0,0,163.173,352Zm0,4.23a1.058,1.058,0,1,1,1.058-1.058A1.059,1.059,0,0,1,163.173,356.23Z" transform="translate(-138.849 -305.467)"/>
      <path id="Trazado_1045602" data-name="Trazado 1045602" d="M99.173,294.345A3.173,3.173,0,1,0,96,291.173,3.177,3.177,0,0,0,99.173,294.345Zm0-4.23a1.058,1.058,0,1,1-1.058,1.058A1.059,1.059,0,0,1,99.173,290.115Z" transform="translate(-83.309 -249.928)"/>
      <path id="Trazado_1045603" data-name="Trazado 1045603" d="M364.23,324.23a2.117,2.117,0,0,1,2.115,2.115h2.115a4.226,4.226,0,0,0-3.173-4.08V320h-2.115v2.265a4.221,4.221,0,0,0,1.058,8.31,2.115,2.115,0,1,1-2.115,2.115H360a4.226,4.226,0,0,0,3.173,4.08v2.265h2.115v-2.265a4.221,4.221,0,0,0-1.057-8.31,2.115,2.115,0,1,1,0-4.23Z" transform="translate(-312.41 -277.698)"/>
      <rect id="Rectángulo_415879" data-name="Rectángulo 415879" width="2.121" height="2.121" transform="translate(59.401 50.719)"/>
      <rect id="Rectángulo_415880" data-name="Rectángulo 415880" width="2.121" height="2.121" transform="translate(42.43 50.719)"/>
    </g>
  </g>
</svg>
