<svg xmlns="http://www.w3.org/2000/svg" xmlns:xlink="http://www.w3.org/1999/xlink" width="118" height="118" viewBox="0 0 118 118">
  <defs>
    <filter id="Trazado_982547" x="0" y="0" width="118" height="118" filterUnits="userSpaceOnUse">
      <feOffset dy="3" input="SourceAlpha"/>
      <feGaussianBlur stdDeviation="3" result="blur"/>
      <feFlood flood-opacity="0.161"/>
      <feComposite operator="in" in2="blur"/>
      <feComposite in="SourceGraphic"/>
    </filter>
  </defs>
  <g id="Grupo_1200722" data-name="Grupo 1200722" transform="translate(-584 -3363.869)">
    <g id="Grupo_1176845" data-name="Grupo 1176845" transform="translate(0 -6294.459)">
      <g id="Grupo_1176357" data-name="Grupo 1176357" transform="translate(593 9664.328)">
        <g id="Grupo_1172970" data-name="Grupo 1172970" transform="translate(0)">
          <g id="Grupo_1171971" data-name="Grupo 1171971" transform="translate(0)">
            <g id="Grupo_1167337" data-name="Grupo 1167337">
              <g id="Grupo_1166720" data-name="Grupo 1166720">
                <g id="Grupo_1164305" data-name="Grupo 1164305">
                  <g id="Grupo_1163948" data-name="Grupo 1163948">
                    <g id="Grupo_1158168" data-name="Grupo 1158168">
                      <g id="Grupo_1152576" data-name="Grupo 1152576">
                        <g id="Grupo_1148633" data-name="Grupo 1148633">
                          <g id="Grupo_1148525" data-name="Grupo 1148525">
                            <g transform="matrix(1, 0, 0, 1, -9, -6)" filter="url(#Trazado_982547)">
                              <g id="Trazado_982547-2" data-name="Trazado 982547" transform="translate(9 6)" fill="#f2f7e5">
                                <path d="M 50 98.5 C 43.45188522338867 98.5 37.10042953491211 97.21787261962891 31.12207221984863 94.68923950195312 C 25.34691429138184 92.24655914306641 20.15995788574219 88.74932861328125 15.70532894134521 84.29468536376953 C 11.2506856918335 79.84004211425781 7.753442764282227 74.65309906005859 5.310757160186768 68.87794494628906 C 2.782128572463989 62.89958572387695 1.5 56.54813003540039 1.5 50 C 1.5 43.45188522338867 2.782128572463989 37.10042953491211 5.310757160186768 31.12207221984863 C 7.753442764282227 25.34691429138184 11.2506856918335 20.15997123718262 15.70532894134521 15.70532894134521 C 20.15997123718262 11.2506856918335 25.34691429138184 7.753442764282227 31.12207221984863 5.310757160186768 C 37.10042953491211 2.782128572463989 43.45188522338867 1.5 50 1.5 C 56.54813003540039 1.5 62.89958572387695 2.782128572463989 68.87794494628906 5.310757160186768 C 74.65309906005859 7.753442764282227 79.84004211425781 11.2506856918335 84.29468536376953 15.70532894134521 C 88.74932861328125 20.15995788574219 92.24655914306641 25.34691429138184 94.68923950195312 31.12207221984863 C 97.21787261962891 37.10042953491211 98.5 43.45188522338867 98.5 50 C 98.5 56.54813003540039 97.21787261962891 62.89958572387695 94.68923950195312 68.87794494628906 C 92.24655914306641 74.65309906005859 88.74932861328125 79.84004211425781 84.29468536376953 84.29468536376953 C 79.84004211425781 88.74932861328125 74.65309906005859 92.24655914306641 68.87794494628906 94.68923950195312 C 62.89958572387695 97.21787261962891 56.54813003540039 98.5 50 98.5 Z" stroke="none"/>
                                <path d="M 50 3 C 43.65372467041016 3 37.49886322021484 4.242263793945312 31.70639801025391 6.6922607421875 C 26.11003112792969 9.059326171875 21.08335113525391 12.44861602783203 16.76598358154297 16.76598358154297 C 12.44861602783203 21.08335113525391 9.059326171875 26.11003112792969 6.6922607421875 31.70639801025391 C 4.242263793945312 37.49886322021484 3 43.65372467041016 3 50 C 3 56.34629058837891 4.242263793945312 62.50115203857422 6.6922607421875 68.29361724853516 C 9.059326171875 73.88998413085938 12.44861602783203 78.91666412353516 16.76598358154297 83.23403167724609 C 21.08335113525391 87.55138397216797 26.11003112792969 90.940673828125 31.70639801025391 93.3077392578125 C 37.49886322021484 95.75773620605469 43.65372467041016 97 50 97 C 56.34629058837891 97 62.50115203857422 95.75773620605469 68.29361724853516 93.3077392578125 C 73.88998413085938 90.940673828125 78.91666412353516 87.55138397216797 83.23403167724609 83.23403167724609 C 87.55138397216797 78.91666412353516 90.940673828125 73.88998413085938 93.3077392578125 68.29361724853516 C 95.75773620605469 62.50115203857422 97 56.34629058837891 97 50 C 97 43.65372467041016 95.75773620605469 37.49886322021484 93.3077392578125 31.70639801025391 C 90.940673828125 26.11003112792969 87.55138397216797 21.08335113525391 83.23403167724609 16.76598358154297 C 78.91666412353516 12.44861602783203 73.88998413085938 9.059326171875 68.29361724853516 6.6922607421875 C 62.50115203857422 4.242263793945312 56.34629058837891 3 50 3 M 50 0 C 77.6142578125 0 100 22.38577270507812 100 50 C 100 77.6142578125 77.6142578125 100 50 100 C 22.38577270507812 100 0 77.6142578125 0 50 C 0 22.38577270507812 22.38577270507812 0 50 0 Z" stroke="none" fill="#86b60c"/>
                              </g>
                            </g>
                          </g>
                        </g>
                      </g>
                    </g>
                  </g>
                </g>
              </g>
            </g>
          </g>
        </g>
      </g>
    </g>
    <g id="Layer_x0020_1" transform="translate(601.681 3377.16)">
      <g id="_277258712" transform="translate(9.139 11.516)">
        <g id="Grupo_1200720" data-name="Grupo 1200720" transform="translate(0.705 0.704)">
          <path id="_277263104" d="M37.338,43.135l1.518-4.362c1.776.217,3.634-.471,5.319-.96.971-.282,1.848-.558,2.66-.806l1.423,4.461c-.791.219-1.944.467-2.815.719-2.814.816-5.152,1.6-8.1.949Z" transform="translate(-26.343 -27.135)" fill="#f4af19"/>
          <path id="_277262360" d="M109.743,41.468l1.423-4.461c.812.248,1.688.525,2.659.806,1.684.488,3.542,1.177,5.319.96l1.518,4.362c-2.952.651-5.289-.133-8.1-.949C111.687,41.934,110.534,41.687,109.743,41.468Z" transform="translate(-68.707 -27.135)" fill="#f4af19"/>
          <path id="_277262216" d="M84.788,132.558H75.47v-9.4h9.318Z" transform="translate(-48.653 -77.54)" fill="#be694f" fill-rule="evenodd"/>
          <path id="_277262072" d="M75.47,55.445h9.318V76.3H75.47Z" transform="translate(-48.653 -37.923)" fill="#be694f" fill-rule="evenodd"/>
          <rect id="_277262552" width="21.996" height="18.73" rx="9.365" transform="translate(20.478)" fill="#29af5c"/>
          <g id="Grupo_1200717" data-name="Grupo 1200717" transform="translate(51.475 23.414)">
            <path id="_277262240" d="M137.367,80.649q-4.929-5.5,0-11Q142.3,75.147,137.367,80.649Z" transform="translate(-134.903 -69.645)" fill="#29af5c" fill-rule="evenodd"/>
            <path id="_277261472" d="M139.149,84.436a.7.7,0,1,0,1.405,0V77.271a.7.7,0,0,0-1.405,0Z" transform="translate(-137.387 -73.696)" fill="#26874a"/>
          </g>
          <g id="Grupo_1200718" data-name="Grupo 1200718" transform="translate(6.546 23.414)">
            <path id="_277261232" d="M29.079,80.649q-4.929-5.5,0-11Q34.008,75.147,29.079,80.649Z" transform="translate(-26.614 -69.645)" fill="#29af5c" fill-rule="evenodd"/>
            <path id="_277261856" d="M30.861,84.436a.7.7,0,1,0,1.405,0V77.271a.7.7,0,1,0-1.405,0Z" transform="translate(-29.099 -73.696)" fill="#26874a"/>
          </g>
          <path id="_277261496" d="M73.408,113.652h9.318a6.121,6.121,0,0,0,0-7.94H73.408a6.121,6.121,0,0,0,0,7.94Z" transform="translate(-46.591 -67.334)" fill="#f4af19" fill-rule="evenodd"/>
          <path id="_277261808" d="M77.48,144.123H55.44a3.342,3.342,0,0,0-3.332,3.332v3.332h28.7v-3.332A3.342,3.342,0,0,0,77.48,144.123Z" transform="translate(-34.985 -89.808)" fill="#f4af19" fill-rule="evenodd"/>
          <path id="_277261040" d="M119.125,93.97h18.021v.242a9.037,9.037,0,0,1-9.011,9.011h0a9.037,9.037,0,0,1-9.011-9.011Z" transform="translate(-74.196 -60.464)" fill="#be694f" fill-rule="evenodd"/>
          <path id="_277260728" d="M10.837,93.97H28.858v.242a9.037,9.037,0,0,1-9.011,9.011h0a9.037,9.037,0,0,1-9.011-9.011Z" transform="translate(-10.837 -60.464)" fill="#be694f" fill-rule="evenodd"/>
          <path id="_277260560" d="M86.7,35.558q.085-7.21,7.3-7.3Q93.909,35.473,86.7,35.558Z" transform="translate(-55.223 -22.018)" fill="#a3e261" fill-rule="evenodd"/>
          <path id="_277260632" d="M76.411,35.558q-.085-7.21-7.3-7.3Q69.2,35.473,76.411,35.558Z" transform="translate(-44.936 -22.018)" fill="#a3e261" fill-rule="evenodd"/>
          <path id="_277260800" d="M79.065,38.211q-.006-.544-.054-1.047L74.851,33a.7.7,0,1,0-.994.994l4.161,4.16Q78.521,38.2,79.065,38.211Z" transform="translate(-47.589 -24.672)" fill="#89bc54" fill-rule="evenodd"/>
          <path id="_277260200" d="M86.7,38.211q.006-.544.054-1.047L90.913,33a.7.7,0,1,1,.994.994l-4.161,4.16Q87.242,38.2,86.7,38.211Z" transform="translate(-55.223 -24.672)" fill="#89bc54" fill-rule="evenodd"/>
          <g id="Grupo_1200719" data-name="Grupo 1200719" transform="translate(5.3 9.154)">
            <circle id="_277259936" cx="3.71" cy="3.71" r="3.71" fill="#be694f"/>
            <circle id="_277259888" cx="3.71" cy="3.71" r="3.71" transform="translate(44.93)" fill="#be694f"/>
          </g>
        </g>
        <g id="Grupo_1200721" data-name="Grupo 1200721" transform="translate(0)">
          <path id="_277259744" d="M51.819,149.1h27.3v-2.629a2.633,2.633,0,0,0-2.629-2.63H54.448a2.633,2.633,0,0,0-2.629,2.63Zm28,1.405h-28.7a.7.7,0,0,1-.7-.7v-3.331a4.038,4.038,0,0,1,4.034-4.035H76.489a4.039,4.039,0,0,1,4.034,4.035V149.8A.7.7,0,0,1,79.821,150.5Z" transform="translate(-33.288 -88.115)" fill-rule="evenodd"/>
          <path id="_277260272" d="M83.8,132.56a.7.7,0,0,1-.7-.7v-7.294H75.18v7.294a.7.7,0,0,1-1.405,0v-8a.7.7,0,0,1,.7-.7H83.8a.7.7,0,0,1,.7.7v8a.7.7,0,0,1-.7.7Z" transform="translate(-46.957 -76.837)" fill-rule="evenodd"/>
          <path id="_277260104" d="M72.417,113.366a.7.7,0,0,1-.536-.247,6.823,6.823,0,0,1,0-8.853.7.7,0,0,1,1.07.912,5.415,5.415,0,0,0,0,7.029.7.7,0,0,1-.534,1.159Zm9.316,0a.7.7,0,0,1-.534-1.159,5.418,5.418,0,0,0,0-7.029.7.7,0,1,1,1.069-.912,6.823,6.823,0,0,1,0,8.853A.7.7,0,0,1,81.733,113.366Z" transform="translate(-44.895 -65.64)" fill-rule="evenodd"/>
          <path id="_277259840" d="M83.8,77H74.477a.7.7,0,0,1-.7-.7V56.146a.7.7,0,1,1,1.4,0V75.6h7.914V56.146a.7.7,0,1,1,1.4,0V76.3a.7.7,0,0,1-.7.7Z" transform="translate(-46.957 -37.218)" fill-rule="evenodd"/>
          <path id="_277259792" d="M117.462,38.523a14.425,14.425,0,0,1-4.094-.811c-.246-.074-.489-.148-.727-.217-.72-.209-1.376-.411-2.011-.607l-.659-.2a.7.7,0,1,1,.41-1.344l.663.2c.629.194,1.279.395,1.988.6.245.071.493.146.744.222a10.927,10.927,0,0,0,4.294.715.7.7,0,1,1,.17,1.395A6.385,6.385,0,0,1,117.462,38.523Zm0,4.566a19.583,19.583,0,0,1-5.572-1.068l-.521-.152c-.467-.135-1.025-.271-1.565-.4-.452-.11-.878-.214-1.243-.314a.7.7,0,1,1,.375-1.354c.343.095.76.2,1.2.3.554.135,1.127.274,1.623.418l.524.153c2.593.758,4.641,1.357,7.233.785a.7.7,0,1,1,.3,1.372A10.841,10.841,0,0,1,117.466,43.089Z" transform="translate(-67.011 -25.439)" fill-rule="evenodd"/>
          <path id="_277260296" d="M134.621,34.987a3.008,3.008,0,1,0,3.008,3.008A3.012,3.012,0,0,0,134.621,34.987Zm0,7.421a4.413,4.413,0,1,1,4.413-4.413A4.419,4.419,0,0,1,134.621,42.408Z" transform="translate(-79.976 -24.426)" fill-rule="evenodd"/>
          <path id="_277259816" d="M38.555,38.524a6.393,6.393,0,0,1-.777-.046.7.7,0,0,1,.17-1.395,10.932,10.932,0,0,0,4.294-.715c.25-.076.5-.151.744-.222.706-.2,1.354-.4,1.982-.6l.669-.206a.7.7,0,0,1,.41,1.344l-.665.2c-.634.2-1.288.4-2.005.6-.238.069-.482.143-.727.217A14.433,14.433,0,0,1,38.555,38.524Zm0,4.566a10.846,10.846,0,0,1-2.357-.26.7.7,0,1,1,.3-1.372c2.592.571,4.64-.027,7.234-.785l.524-.153c.5-.144,1.07-.283,1.625-.418.439-.107.856-.208,1.2-.3a.7.7,0,1,1,.375,1.354c-.364.1-.79.2-1.243.314-.538.131-1.1.267-1.565.4l-.52.152a19.6,19.6,0,0,1-5.574,1.069Z" transform="translate(-24.645 -25.439)" fill-rule="evenodd"/>
          <path id="_277259120" d="M26.329,34.987a3.008,3.008,0,1,0,3.008,3.008A3.012,3.012,0,0,0,26.329,34.987Zm0,7.421a4.413,4.413,0,1,1,4.413-4.413A4.418,4.418,0,0,1,26.329,42.408Z" transform="translate(-16.615 -24.426)" fill-rule="evenodd"/>
          <path id="_277258880" d="M27.866,69.806a.705.705,0,0,1-.622-.373l-8.39-15.766L10.463,69.433a.7.7,0,1,1-1.24-.66l9.011-16.932a.7.7,0,0,1,1.241,0l9.011,16.932a.7.7,0,0,1-.619,1.033Z" transform="translate(-9.139 -34.892)" fill-rule="evenodd"/>
          <path id="_277258832" d="M10.557,93.683a8.309,8.309,0,0,0,16.592,0Zm8.3,9.253a9.725,9.725,0,0,1-9.715-9.714V92.98a.7.7,0,0,1,.7-.7H27.864a.7.7,0,0,1,.7.7v.242a9.725,9.725,0,0,1-9.713,9.714Z" transform="translate(-9.139 -58.769)" fill-rule="evenodd"/>
          <path id="_277258928" d="M68.565,12.921a8.663,8.663,0,1,0,0,17.325H71.83a8.663,8.663,0,1,0,0-17.325ZM71.83,31.652H68.565a10.068,10.068,0,1,1,0-20.136H71.83a10.068,10.068,0,1,1,0,20.136Z" transform="translate(-38.017 -11.516)" fill-rule="evenodd"/>
          <path id="_277259360" d="M92.273,28c-3.706.254-5.578,2.127-5.833,5.832,3.706-.254,5.578-2.127,5.833-5.832Zm-6.563,7.267a.7.7,0,0,1-.7-.711c.06-5.166,2.822-7.929,7.989-7.99H93a.7.7,0,0,1,.7.711c-.061,5.166-2.823,7.929-7.99,7.99Z" transform="translate(-53.529 -20.322)" fill-rule="evenodd"/>
          <path id="_277258808" d="M85.709,38.912a.7.7,0,0,1-.5-1.2L89.923,33a.7.7,0,0,1,.994.994l-4.711,4.711A.7.7,0,0,1,85.709,38.912Z" transform="translate(-53.528 -23.966)" fill-rule="evenodd"/>
          <path id="_277259288" d="M68.856,28c.255,3.705,2.127,5.578,5.833,5.832C74.434,30.128,72.561,28.255,68.856,28Zm6.565,7.267h-.009c-5.167-.061-7.929-2.824-7.99-7.99a.7.7,0,0,1,.711-.711c5.166.061,7.929,2.823,7.99,7.99a.708.708,0,0,1-.206.5A.7.7,0,0,1,75.42,35.267Z" transform="translate(-43.239 -20.322)" fill-rule="evenodd"/>
          <path id="_277259192" d="M79.065,38.912a.7.7,0,0,1-.5-.206l-4.711-4.711A.7.7,0,1,1,74.849,33l4.712,4.711a.7.7,0,0,1-.5,1.2Z" transform="translate(-46.884 -23.967)" fill-rule="evenodd"/>
          <path id="_277259168" d="M27.678,69.689c-2.367,2.723-2.367,5.3,0,8.022C30.043,74.989,30.043,72.413,27.678,69.689Zm0,9.76a.707.707,0,0,1-.5-.212c-3.538-3.622-3.538-7.452,0-11.075a.7.7,0,0,1,1.006,0c3.539,3.622,3.539,7.452,0,11.075A.7.7,0,0,1,27.678,79.45Z" transform="translate(-18.139 -44.536)" fill-rule="evenodd"/>
          <path id="_277259144" d="M31.138,84.492a.7.7,0,0,1-.7-.7V77.271a.7.7,0,1,1,1.4,0v6.517a.7.7,0,0,1-.7.7Z" transform="translate(-21.599 -49.578)" fill-rule="evenodd"/>
          <path id="_277258544" d="M136.159,69.806a.7.7,0,0,1-.621-.373l-8.391-15.766-8.391,15.766a.7.7,0,1,1-1.24-.66l9.011-16.932a.7.7,0,0,1,1.241,0l9.011,16.932a.7.7,0,0,1-.619,1.033Z" transform="translate(-72.501 -34.892)" fill-rule="evenodd"/>
          <path id="_277258112" d="M118.851,93.683a8.309,8.309,0,0,0,16.592,0Zm8.3,9.253a9.724,9.724,0,0,1-9.713-9.714V92.98a.7.7,0,0,1,.7-.7h18.023a.7.7,0,0,1,.7.7v.242A9.725,9.725,0,0,1,127.148,102.936Z" transform="translate(-72.502 -58.769)" fill-rule="evenodd"/>
          <path id="_277258496" d="M136.393,69.689c-2.366,2.723-2.366,5.3,0,8.022C138.76,74.989,138.76,72.413,136.393,69.689Zm0,9.76a.7.7,0,0,1-.5-.212c-3.539-3.622-3.539-7.452,0-11.075a.7.7,0,0,1,1.006,0c3.538,3.622,3.538,7.452,0,11.075A.7.7,0,0,1,136.393,79.45Z" transform="translate(-81.748 -44.536)" fill-rule="evenodd"/>
          <path id="_277258208" d="M139.854,84.492a.7.7,0,0,1-.7-.7V77.271a.7.7,0,1,1,1.405,0v6.517a.7.7,0,0,1-.7.7Z" transform="translate(-85.208 -49.578)" fill-rule="evenodd"/>
        </g>
      </g>
    </g>
  </g>
</svg>
