<svg xmlns="http://www.w3.org/2000/svg" xmlns:xlink="http://www.w3.org/1999/xlink" width="294" height="169.614" viewBox="0 0 294 169.614">
  <defs>
    <filter id="Trazado_1045501" x="59" y="22.614" width="176" height="147" filterUnits="userSpaceOnUse">
      <feOffset dy="3" input="SourceAlpha"/>
      <feGaussianBlur stdDeviation="3" result="blur"/>
      <feFlood flood-opacity="0.161"/>
      <feComposite operator="in" in2="blur"/>
      <feComposite in="SourceGraphic"/>
    </filter>
  </defs>
  <g id="Grupo_1200687" data-name="Grupo 1200687" transform="translate(-180.5 -273.386)">
    <g id="Grupo_1200572" data-name="Grupo 1200572">
      <rect id="Rectángulo_404337" data-name="Rectángulo 404337" width="294" height="104" rx="5" transform="translate(180.5 315)" fill="#103d47"/>
      <g transform="matrix(1, 0, 0, 1, 180.5, 273.39)" filter="url(#Trazado_1045501)">
        <path id="Trazado_1045501-2" data-name="Trazado 1045501" d="M5,0H153a5,5,0,0,1,5,5V124a5,5,0,0,1-5,5H5a5,5,0,0,1-5-5V5A5,5,0,0,1,5,0Z" transform="translate(68 28.61)" fill="#86b60c"/>
      </g>
    </g>
    <g id="_x38_" transform="translate(269.382 273.386)">
      <g id="Grupo_1200629" data-name="Grupo 1200629" transform="translate(14.017 11.528)">
        <g id="Grupo_1200628" data-name="Grupo 1200628">
          <g id="Grupo_1200627" data-name="Grupo 1200627">
            <path id="Trazado_1045502" data-name="Trazado 1045502" d="M31.2,11.7c23.842,45.85,15.72,30.13,17.292,33.536l34.584-1.31-.524-14.672L56.876,30.3c-1.31-2.358,4.454,8.908-12.314-24.1-3.93,2.1-7.86,4.192-12.052,4.716Z" transform="translate(-31.2 -6.2)" fill="#ef3a3e"/>
          </g>
        </g>
      </g>
      <g id="Grupo_1200631" data-name="Grupo 1200631" transform="translate(14.017 11.266)">
        <g id="Grupo_1200630" data-name="Grupo 1200630">
          <path id="Trazado_1045503" data-name="Trazado 1045503" d="M45.2,11.864,50.178,21.3C52.8,18.676,59.086,11.34,60.4,8.72L59.086,6.1c-3.93,2.1-7.86,4.192-12.052,4.716Z" transform="translate(-45.2 -6.1)"/>
        </g>
      </g>
      <g id="Grupo_1200678" data-name="Grupo 1200678" transform="translate(0.29 33.788)">
        <g id="Grupo_1200677" data-name="Grupo 1200677" transform="translate(0)">
          <g id="Grupo_1200670" data-name="Grupo 1200670">
            <g id="Grupo_1200659" data-name="Grupo 1200659" transform="translate(5.081)">
              <g id="Grupo_1200658" data-name="Grupo 1200658" transform="translate(0)">
                <g id="Grupo_1200657" data-name="Grupo 1200657">
                  <g id="Grupo_1200656" data-name="Grupo 1200656">
                    <g id="Grupo_1200633" data-name="Grupo 1200633">
                      <g id="Grupo_1200632" data-name="Grupo 1200632">
                        <path id="Trazado_1045504" data-name="Trazado 1045504" d="M13.9,121.339c8.384,6.812,7.86,10.48,34.06,25.676,4.716-12.314,23.318-41.4,35.632-47.684,3.144-1.572,3.93-1.048,11.528-6.812,8.122-6.288,16.768-15.458,21.746-25.414,1.572-3.144,2.882-6.288,2.882-9.694.262-5.5-4.192-12.576-10.48-10.742a8.715,8.715,0,0,0-.524-9.694c-2.358-2.358-5.764-3.144-8.908-3.144,1.048-.524,1.31-2.358,1.048-3.406-1.572-8.122-8.908-10.48-13.1-7.336a8.916,8.916,0,0,0-7.336-8.122A10.261,10.261,0,0,0,69.7,19.422a3.724,3.724,0,0,0-1.572-.524c-.262-.262-3.668-.786-3.93-.524-1.572,0-2.1.786-3.406,2.1-2.1,2.1-6.55,5.5-9.956,8.384a23.558,23.558,0,0,0-4.192,4.716c-3.93,6.026-3.668,10.48-2.358,18.34,3.406,20.96,4.978,23.842.262,31.44-3.668,6.026-16.244,21.746-21.222,27.51C20.184,114.265,17.826,117.933,13.9,121.339Z" transform="translate(-13.896 -14.697)" fill="#f9bb98"/>
                      </g>
                    </g>
                    <g id="Grupo_1200635" data-name="Grupo 1200635" transform="translate(26.091 65.274)">
                      <g id="Grupo_1200634" data-name="Grupo 1200634" transform="translate(0 0)">
                        <path id="Trazado_1045505" data-name="Trazado 1045505" d="M23.571,41.941c7.336,14.41,21.484,23.318,33.8,24.628a36.4,36.4,0,0,1,9.694-7.86c3.144-1.572,3.93-1.048,11.528-6.812a5.548,5.548,0,0,1-1.834.786,69.7,69.7,0,0,1-7.336.786c-15.458,1.572-29.344-6.026-43.23-13.362-1.048-.524-2.358-.786-2.882,0a2.152,2.152,0,0,0,.262,1.834Z" transform="translate(-23.2 -39.611)" fill="#fcb18b"/>
                      </g>
                    </g>
                    <g id="Grupo_1200637" data-name="Grupo 1200637" transform="translate(90.127 43.763)">
                      <g id="Grupo_1200636" data-name="Grupo 1200636" transform="translate(0)">
                        <path id="Trazado_1045506" data-name="Trazado 1045506" d="M11.7,40.046c3.93,12.576,4.716,13.624,8.908,25.676a1.4,1.4,0,0,0,1.048.786A49.086,49.086,0,0,0,32.4,64.15a1.584,1.584,0,0,0,.786-1.572c-3.406-9.17-8.122-20.436-10.742-31.178-.262.262-10.48,7.86-9.694,7.336Z" transform="translate(-11.7 -31.4)" fill="#ef3a3e"/>
                      </g>
                    </g>
                    <g id="Grupo_1200639" data-name="Grupo 1200639" transform="translate(36.156 22.009)">
                      <g id="Grupo_1200638" data-name="Grupo 1200638">
                        <path id="Trazado_1045507" data-name="Trazado 1045507" d="M54.808,54.806c-1.572-1.048-2.882-2.62-4.454-3.406-2.358-1.048-4.978-1.048-7.6-1.834-5.764-2.1-7.86-8.646-9.17-13.886A8.019,8.019,0,0,1,19.7,33.323a31.625,31.625,0,0,0,10.742-3.144c1.31-.786,6.55-7.336,7.86-7.074A14.027,14.027,0,0,0,48,25.2c-2.882,1.834-3.93,6.288-2.358,9.432s6.026,4.454,9.17,3.144a8.039,8.039,0,0,0,2.1,8.908,7.877,7.877,0,0,0,9.17.262A10.444,10.444,0,0,0,74.2,53.5C69.217,56.9,60.31,58.474,54.808,54.806Z" transform="translate(-19.7 -23.097)" fill="#fcb18b"/>
                      </g>
                    </g>
                    <g id="Grupo_1200641" data-name="Grupo 1200641" transform="translate(61.859 11.235)">
                      <g id="Grupo_1200640" data-name="Grupo 1200640" transform="translate(0)">
                        <path id="Trazado_1045508" data-name="Trazado 1045508" d="M27.055,22.169c-.524-.786-.786-2.358,0-2.882.524-.524,1.31-.262,2.1,0,1.31.524,2.62.786,3.93,1.31,2.1.524,6.812,4.192,2.62,5.24C33.081,26.623,28.627,24.527,27.055,22.169Z" transform="translate(-26.559 -18.985)" fill="#fff"/>
                      </g>
                    </g>
                    <g id="Grupo_1200643" data-name="Grupo 1200643" transform="translate(81.018 30.532)">
                      <g id="Grupo_1200642" data-name="Grupo 1200642" transform="translate(0)">
                        <path id="Trazado_1045509" data-name="Trazado 1045509" d="M27.117,49.013c1.048-.524,1.048-.786,8.384-7.86a1.3,1.3,0,0,0-1.834-1.834c-7.074,7.074-7.074,7.074-7.6,7.336-1.834.786-5.24-1.572-6.55-3.144a4.989,4.989,0,0,1-1.048-3.668c.524-2.1,2.1-3.144,10.742-11.266a1.3,1.3,0,0,0-1.834-1.834c-8.908,8.384-10.742,9.694-11.528,12.576a6.652,6.652,0,0,0,1.31,5.764,11.875,11.875,0,0,0,4.454,3.406c1.834.786,3.93,1.31,5.5.524Z" transform="translate(-15.65 -26.35)"/>
                      </g>
                    </g>
                    <g id="Grupo_1200645" data-name="Grupo 1200645" transform="translate(69.154 17.722)">
                      <g id="Grupo_1200644" data-name="Grupo 1200644" transform="translate(0)">
                        <path id="Trazado_1045510" data-name="Trazado 1045510" d="M33.974,51.694a1.317,1.317,0,0,0-.262-2.62c-3.144.262-5.5,0-7.336-1.048s-3.406-3.406-2.62-5.764c.524-1.572.524-1.572,15.2-18.6a1.123,1.123,0,0,0-.262-1.834,1.123,1.123,0,0,0-1.834.262c-14.934,17.554-15.2,17.292-15.72,19.65-1.048,3.668,1.048,7.074,3.668,8.908a21.1,21.1,0,0,0,9.17,1.048Z" transform="translate(-20.861 -21.461)"/>
                      </g>
                    </g>
                    <g id="Grupo_1200647" data-name="Grupo 1200647" transform="translate(59.96 22.517)">
                      <g id="Grupo_1200646" data-name="Grupo 1200646" transform="translate(0)">
                        <path id="Trazado_1045511" data-name="Trazado 1045511" d="M38.215,38.772c.262-.786-.262-1.31-1.048-1.572-2.882-.786-6.55-1.834-7.336-4.978-.524-2.358,1.048-4.716,2.62-6.812a1.31,1.31,0,1,0-2.1-1.572c-.786,1.31-1.834,2.358-2.358,3.93-1.834,4.192-.524,7.6,3.144,9.956a13.971,13.971,0,0,0,5.24,1.834,1.353,1.353,0,0,0,1.834-.786Z" transform="translate(-27.174 -23.291)"/>
                      </g>
                    </g>
                    <g id="Grupo_1200649" data-name="Grupo 1200649" transform="translate(47.16 21.685)">
                      <g id="Grupo_1200648" data-name="Grupo 1200648" transform="translate(0)">
                        <path id="Trazado_1045512" data-name="Trazado 1045512" d="M33.7,30.379c3.144-1.048,6.288-2.358,7.6-5.764a1.243,1.243,0,0,0-2.358-.786,4.954,4.954,0,0,1-2.1,2.62,15.485,15.485,0,0,1-3.668,1.572Z" transform="translate(-33.173 -22.973)"/>
                      </g>
                    </g>
                    <g id="Grupo_1200651" data-name="Grupo 1200651" transform="translate(70.01 7.845)">
                      <g id="Grupo_1200650" data-name="Grupo 1200650" transform="translate(0)">
                        <path id="Trazado_1045513" data-name="Trazado 1045513" d="M26.745,24.265c1.048,0,1.31-1.048,3.93-4.454a1.31,1.31,0,0,0-2.1-1.572L25.7,22.169c-.524,1.048,0,2.1,1.048,2.1Z" transform="translate(-25.491 -17.691)"/>
                      </g>
                    </g>
                    <g id="Grupo_1200653" data-name="Grupo 1200653" transform="translate(27.272 2.09)">
                      <g id="Grupo_1200652" data-name="Grupo 1200652">
                        <path id="Trazado_1045514" data-name="Trazado 1045514" d="M33.245,71.577c.262-4.192-.262-5.24-1.048-9.17-4.192-23.056-5.764-24.1,2.1-31.44l10.742-9.956c4.192-3.93,5.5-3.668,8.908-1.834,15.2,8.384,15.458,8.384,15.982,9.432a3.33,3.33,0,0,1,0,3.144,6.482,6.482,0,0,1-3.144,2.62,15.964,15.964,0,0,1-17.554-2.358,1.3,1.3,0,0,0-1.834,1.834,18.814,18.814,0,0,0,20.7,2.882c5.24-2.62,5.764-7.074,3.93-9.694-1.048-1.572-1.31-1.31-17.03-9.956a8.283,8.283,0,0,0-4.454-1.572c-4.192-.262-6.288,2.882-18.078,13.624C26.171,34.9,24.861,38.041,26.7,48c2.882,15.982,2.62,14.41,3.144,17.554a13.56,13.56,0,0,1,.524,5.764,1.238,1.238,0,0,0,1.31,1.31,1.154,1.154,0,0,0,1.572-1.048Z" transform="translate(-25.933 -15.494)"/>
                      </g>
                    </g>
                    <g id="Grupo_1200655" data-name="Grupo 1200655" transform="translate(66.416 63.78)">
                      <g id="Grupo_1200654" data-name="Grupo 1200654" transform="translate(0 0)">
                        <path id="Trazado_1045515" data-name="Trazado 1045515" d="M20.829,62.253C31.047,52.559,41,49.939,45.981,41.031a1.349,1.349,0,0,0-2.358-1.31c-4.716,8.122-14.41,11-24.89,20.7a1.266,1.266,0,0,0,0,1.834,1.585,1.585,0,0,0,2.1,0Z" transform="translate(-18.34 -39.04)"/>
                      </g>
                    </g>
                  </g>
                </g>
              </g>
            </g>
            <g id="Grupo_1200661" data-name="Grupo 1200661" transform="translate(0 76.25)">
              <g id="Grupo_1200660" data-name="Grupo 1200660">
                <path id="Trazado_1045516" data-name="Trazado 1045516" d="M34.565,68.952a1.107,1.107,0,0,0,.262,1.834c6.812,3.668,10.218,9.432,19.65,16.768,6.026,4.454,12.576,8.384,18.864,12.314,2.882,1.834,4.454,2.882,5.764-.786a124.278,124.278,0,0,1,12.838-24.89C46.093,31.748,96.4,78.384,59.193,43.8,43.735,61.616,46.879,57.686,34.565,68.952Z" transform="translate(-34.2 -43.8)" fill="#36ceef"/>
              </g>
            </g>
            <g id="Grupo_1200663" data-name="Grupo 1200663" transform="translate(21.587 77.036)">
              <g id="Grupo_1200662" data-name="Grupo 1200662">
                <path id="Trazado_1045517" data-name="Trazado 1045517" d="M34.2,47.244c.262,3.668,2.1,7.336,3.406,10.48A90.72,90.72,0,0,0,60.662,91a101.118,101.118,0,0,1,9.694-17.292l-11.79-11C50.444,57.724,43.632,51.436,36.82,44.1a27.749,27.749,0,0,1-2.62,3.144Z" transform="translate(-34.2 -44.1)" fill="#1d7083"/>
              </g>
            </g>
            <g id="Grupo_1200665" data-name="Grupo 1200665" transform="translate(20.004 59.863)">
              <g id="Grupo_1200664" data-name="Grupo 1200664">
                <path id="Trazado_1045518" data-name="Trazado 1045518" d="M28.732,54.98C36.592,69.39,50.215,79.608,66.2,84.062a2.038,2.038,0,0,0,2.1-.524,77.631,77.631,0,0,0,12.576-15.2,2.366,2.366,0,0,0-1.048-3.406,76.6,76.6,0,0,1-33.8-26.462,2.239,2.239,0,0,0-3.406-.262C38.426,42.4,33.186,48.43,29.256,52.36a2.032,2.032,0,0,0-.524,2.62Z" transform="translate(-28.459 -37.545)" fill="#36ceef"/>
              </g>
            </g>
            <g id="Grupo_1200667" data-name="Grupo 1200667" transform="translate(57.202 92.976)">
              <g id="Grupo_1200666" data-name="Grupo 1200666" transform="translate(0)">
                <path id="Trazado_1045519" data-name="Trazado 1045519" d="M36.808,50.488c1.834,1.048,1.834,4.454,0,5.5s-4.716-.524-4.716-2.62c-.262-2.1,2.62-3.93,4.716-2.882" transform="translate(-32.075 -50.184)" fill="#fff"/>
              </g>
            </g>
            <g id="Grupo_1200669" data-name="Grupo 1200669" transform="translate(35.211 59.912)">
              <g id="Grupo_1200668" data-name="Grupo 1200668">
                <path id="Trazado_1045520" data-name="Trazado 1045520" d="M28.459,37.658c1.31,2.882,1.31,7.336,11.528,15.982,8.384,7.336,16.506,12.314,19.126,23.842,2.358-2.882,4.454-5.764,6.55-8.908a2.366,2.366,0,0,0-1.048-3.406,76.6,76.6,0,0,1-33.8-26.462,1.938,1.938,0,0,0-2.358-1.048Z" transform="translate(-28.459 -37.564)" fill="#1d7083"/>
              </g>
            </g>
          </g>
          <g id="Grupo_1200672" data-name="Grupo 1200672" transform="translate(106.665 19.823)">
            <g id="Grupo_1200671" data-name="Grupo 1200671" transform="translate(0)">
              <path id="Trazado_1045521" data-name="Trazado 1045521" d="M13.905,26.815l6.026-2.1a1.243,1.243,0,1,0-.786-2.358l-6.026,2.1A1.243,1.243,0,1,0,13.905,26.815Z" transform="translate(-12.262 -22.263)"/>
            </g>
          </g>
          <g id="Grupo_1200674" data-name="Grupo 1200674" transform="translate(100.163 7.583)">
            <g id="Grupo_1200673" data-name="Grupo 1200673" transform="translate(0)">
              <path id="Trazado_1045522" data-name="Trazado 1045522" d="M18.273,23.9l2.882-4.192a1.31,1.31,0,1,0-2.1-1.572l-2.882,4.192a1.31,1.31,0,0,0,2.1,1.572Z" transform="translate(-15.891 -17.591)"/>
            </g>
          </g>
          <g id="Grupo_1200676" data-name="Grupo 1200676" transform="translate(91.646 0.114)">
            <g id="Grupo_1200675" data-name="Grupo 1200675" transform="translate(0)">
              <path id="Trazado_1045523" data-name="Trazado 1045523" d="M21.455,22.495l3.406-5.764a1.349,1.349,0,0,0-2.358-1.31L19.1,21.447a1.381,1.381,0,0,0,.524,1.834,1.441,1.441,0,0,0,1.834-.786Z" transform="translate(-18.94 -14.74)"/>
            </g>
          </g>
        </g>
      </g>
      <g id="Grupo_1200680" data-name="Grupo 1200680" transform="translate(6.681 0)">
        <g id="Grupo_1200679" data-name="Grupo 1200679">
          <path id="Trazado_1045524" data-name="Trazado 1045524" d="M41.825,26.428a.564.564,0,0,0,.524.524C47.065,24.594,72.741,11.494,73,11.232s.262-.786,0-.786L48.637,1.8c-.262,0-.524,0-.524.262C45.755,11.494,43.4,19.092,41.825,26.428Z" transform="translate(-41.825 -1.8)" fill="#f67754"/>
        </g>
      </g>
      <g id="Grupo_1200682" data-name="Grupo 1200682" transform="translate(6.681 5.502)">
        <g id="Grupo_1200681" data-name="Grupo 1200681">
          <path id="Trazado_1045525" data-name="Trazado 1045525" d="M43.6,23.026a.564.564,0,0,0,.524.524c7.336-3.668,17.816-9.17,26.2-13.362A30.822,30.822,0,0,1,55.39,7.568C53.032,6.52,50.936,4.948,48.316,3.9,46.744,10.974,44.91,17,43.6,23.026Z" transform="translate(-43.6 -3.9)" fill="#ef3a3e"/>
        </g>
      </g>
      <g id="Grupo_1200684" data-name="Grupo 1200684" transform="translate(95.498 77.813)">
        <g id="Grupo_1200683" data-name="Grupo 1200683" transform="translate(0)">
          <path id="Trazado_1045526" data-name="Trazado 1045526" d="M15.8,39.884c.786,2.358,1.31,4.454,1.834,6.288,4.716-3.93,8.384-10.742,8.908-14.148V31.5l-1.31,1.048a33.706,33.706,0,0,1-5.5,4.978A11.775,11.775,0,0,1,16.586,39.1Z" transform="translate(-15.8 -31.5)"/>
        </g>
      </g>
      <g id="Grupo_1200686" data-name="Grupo 1200686" transform="translate(0 135.846)">
        <g id="Grupo_1200685" data-name="Grupo 1200685">
          <path id="Trazado_1045527" data-name="Trazado 1045527" d="M78.962,85.745A5.591,5.591,0,0,0,80.8,82.6c1.31-4.192,8.646-17.554,11-20.96a1.31,1.31,0,0,0-2.1-1.572c-2.62,3.668-9.956,17.292-11.528,21.484-.524,1.834-1.048,3.144-4.454,1.048-17.816-11-19.388-10.742-37.2-28.558a1.3,1.3,0,1,0-1.834,1.834C52.5,73.955,54.334,73.693,72.412,84.959c2.1,1.31,4.716,2.1,6.55.786Z" transform="translate(-34.291 -53.65)"/>
        </g>
      </g>
    </g>
  </g>
</svg>
