<svg xmlns="http://www.w3.org/2000/svg" xmlns:xlink="http://www.w3.org/1999/xlink" width="104.486" height="104.485" viewBox="0 0 104.486 104.485">
  <defs>
    <filter id="Trazado_982547" x="0" y="0" width="104.486" height="104.485" filterUnits="userSpaceOnUse">
      <feOffset dy="3" input="SourceAlpha"/>
      <feGaussianBlur stdDeviation="3" result="blur"/>
      <feFlood flood-opacity="0.161"/>
      <feComposite operator="in" in2="blur"/>
      <feComposite in="SourceGraphic"/>
    </filter>
  </defs>
  <g id="Grupo_1200825" data-name="Grupo 1200825" transform="translate(-465.514 -545)">
    <g id="Grupo_1200349" data-name="Grupo 1200349" transform="translate(-338 -2162.514)">
      <g id="Grupo_1185951" data-name="Grupo 1185951" transform="translate(5.053 1754.224)">
        <g id="Grupo_1184083" data-name="Grupo 1184083" transform="translate(807.461 959.29)">
          <g id="Grupo_1183743" data-name="Grupo 1183743">
            <g id="Grupo_1181545" data-name="Grupo 1181545" transform="translate(0 0)">
              <g id="Grupo_1177562" data-name="Grupo 1177562">
                <g id="Grupo_1173147" data-name="Grupo 1173147" transform="translate(0 0)">
                  <g id="Grupo_1163801" data-name="Grupo 1163801" transform="translate(0 0)">
                    <g id="Grupo_1163014" data-name="Grupo 1163014" transform="translate(0 0)">
                      <g id="Grupo_1157015" data-name="Grupo 1157015" transform="translate(0 0)">
                        <g id="Grupo_1155792" data-name="Grupo 1155792" transform="translate(0 0)">
                          <g id="Grupo_1154703" data-name="Grupo 1154703" transform="translate(0 0)">
                            <g id="Grupo_1150789" data-name="Grupo 1150789">
                              <g id="Grupo_1154212" data-name="Grupo 1154212">
                                <g id="Grupo_1152583" data-name="Grupo 1152583">
                                  <g id="Grupo_1146973" data-name="Grupo 1146973">
                                    <g id="Grupo_1146954" data-name="Grupo 1146954">
                                      <g transform="matrix(1, 0, 0, 1, -9, -6)" filter="url(#Trazado_982547)">
                                        <g id="Trazado_982547-2" data-name="Trazado 982547" transform="translate(9 6)" fill="#f2f7e5">
                                          <path d="M 43.2427978515625 84.98548126220703 C 37.60689926147461 84.98548126220703 32.14037322998047 83.88201904296875 26.99507331848145 81.70574188232422 C 22.0245475769043 79.6033935546875 17.56024742126465 76.59337615966797 13.72618579864502 72.75931549072266 C 9.892110824584961 68.92523956298828 6.882097721099854 64.46095275878906 4.779735565185547 59.49044036865234 C 2.603460311889648 54.34515380859375 1.499997854232788 48.87862777709961 1.499997854232788 43.24274063110352 C 1.499997854232788 37.60685348510742 2.603460311889648 32.14032745361328 4.779735565185547 26.99504089355469 C 6.882097721099854 22.02452850341797 9.892110824584961 17.56023979187012 13.72618579864502 13.72616577148438 C 17.56024742126465 9.89210319519043 22.0245475769043 6.88209056854248 26.99507331848145 4.779740810394287 C 32.14037322998047 2.603465557098389 37.60689926147461 1.500003099441528 43.2427978515625 1.500003099441528 C 48.87869644165039 1.500003099441528 54.34522247314453 2.603465557098389 59.49052429199219 4.779740810394287 C 64.46104431152344 6.88209056854248 68.92534637451172 9.89210319519043 72.75940704345703 13.72616577148438 C 76.59348297119141 17.56023979187012 79.60350036621094 22.02452850341797 81.70586395263672 26.99504089355469 C 83.88213348388672 32.14032745361328 84.985595703125 37.60685348510742 84.985595703125 43.24274063110352 C 84.985595703125 48.87862777709961 83.88213348388672 54.34515380859375 81.70586395263672 59.49044036865234 C 79.60350036621094 64.46095275878906 76.59348297119141 68.92523956298828 72.75940704345703 72.75931549072266 C 68.92534637451172 76.59337615966797 64.46104431152344 79.6033935546875 59.49052429199219 81.70574188232422 C 54.34522247314453 83.88201904296875 48.87869644165039 84.98548126220703 43.2427978515625 84.98548126220703 Z" stroke="none"/>
                                          <path d="M 43.2427978515625 2.999992370605469 C 37.80873107910156 2.999992370605469 32.53879928588867 4.063591003417969 27.57939910888672 6.161231994628906 C 22.78767776489258 8.187965393066406 18.48363494873047 11.09003448486328 14.78683471679688 14.78681945800781 C 11.09003448486328 18.48361968994141 8.187973022460938 22.78764724731445 6.161239624023438 27.57936859130859 C 4.0635986328125 32.53876876831055 3 37.80868911743164 3 43.24274063110352 C 3 48.67679214477539 4.0635986328125 53.94671249389648 6.161239624023438 58.90611267089844 C 8.187973022460938 63.69782257080078 11.09003448486328 68.00186157226562 14.78683471679688 71.69864654541016 C 18.48363494873047 75.39544677734375 22.78767776489258 78.29750061035156 27.57939910888672 80.32423400878906 C 32.53879928588867 82.421875 37.80873107910156 83.4854736328125 43.2427978515625 83.4854736328125 C 48.67686462402344 83.4854736328125 53.94678497314453 82.421875 58.90618515014648 80.32423400878906 C 63.69791793823242 78.29750061035156 68.001953125 75.39544677734375 71.69876098632812 71.69864654541016 C 75.39555358886719 68.00186157226562 78.29762268066406 63.69782257080078 80.3243408203125 58.90611267089844 C 82.4219970703125 53.94671249389648 83.485595703125 48.67679214477539 83.485595703125 43.24274063110352 C 83.485595703125 37.80868911743164 82.4219970703125 32.53876876831055 80.3243408203125 27.57936859130859 C 78.29762268066406 22.78764724731445 75.39555358886719 18.48361968994141 71.69876098632812 14.78681945800781 C 68.001953125 11.09003448486328 63.69791793823242 8.187965393066406 58.90618515014648 6.161231994628906 C 53.94678497314453 4.063591003417969 48.67686462402344 2.999992370605469 43.2427978515625 2.999992370605469 M 43.2427978515625 -7.62939453125e-06 C 67.12512969970703 -7.62939453125e-06 86.485595703125 19.36043548583984 86.485595703125 43.24274063110352 C 86.485595703125 67.12504577636719 67.12512969970703 86.4854736328125 43.2427978515625 86.4854736328125 C 19.36045074462891 86.4854736328125 0 67.12504577636719 0 43.24274063110352 C 0 19.36043548583984 19.36045074462891 -7.62939453125e-06 43.2427978515625 -7.62939453125e-06 Z" stroke="none" fill="#86b60c"/>
                                        </g>
                                      </g>
                                    </g>
                                  </g>
                                </g>
                              </g>
                            </g>
                          </g>
                        </g>
                      </g>
                    </g>
                  </g>
                </g>
              </g>
            </g>
          </g>
        </g>
      </g>
    </g>
    <g id="engranaje" transform="translate(484.43 560.916)">
      <g id="Grupo_1200823" data-name="Grupo 1200823" transform="translate(0.976 0.976)">
        <path id="Trazado_1046255" data-name="Trazado 1046255" d="M71.909,35.527a1.044,1.044,0,0,0-1.038-.895H66.477a26.981,26.981,0,0,0-4.108-9.922l3.106-3.106a1.044,1.044,0,0,0,.1-1.367,32.159,32.159,0,0,0-6.114-6.114,1.044,1.044,0,0,0-1.367.1L54.99,17.332a26.981,26.981,0,0,0-9.921-4.108V8.83a1.044,1.044,0,0,0-.895-1.038,32.16,32.16,0,0,0-8.646,0,1.044,1.044,0,0,0-.895,1.038v4.394a26.979,26.979,0,0,0-9.921,4.108l-3.106-3.106a1.044,1.044,0,0,0-1.367-.1,32.159,32.159,0,0,0-6.114,6.114,1.044,1.044,0,0,0,.1,1.367l3.106,3.106a26.98,26.98,0,0,0-4.108,9.921H8.83a1.044,1.044,0,0,0-1.038.895,32.161,32.161,0,0,0,0,8.646,1.044,1.044,0,0,0,1.038.895h4.394a26.979,26.979,0,0,0,4.108,9.921L14.226,58.1a1.044,1.044,0,0,0-.1,1.367,32.159,32.159,0,0,0,6.114,6.114,1.044,1.044,0,0,0,1.367-.1l3.106-3.106a26.98,26.98,0,0,0,9.921,4.108v4.394a1.044,1.044,0,0,0,.895,1.038,32.16,32.16,0,0,0,8.646,0,1.044,1.044,0,0,0,.895-1.038V66.477a26.979,26.979,0,0,0,9.921-4.108L58.1,65.475a1.044,1.044,0,0,0,1.367.1,32.159,32.159,0,0,0,6.114-6.114,1.044,1.044,0,0,0-.1-1.367L62.369,54.99a26.98,26.98,0,0,0,4.108-9.921h4.394a1.044,1.044,0,0,0,1.038-.895,32.163,32.163,0,0,0,0-8.646Z" transform="translate(-7.5 -7.5)" fill="#ffe07d"/>
        <circle id="Elipse_13432" data-name="Elipse 13432" cx="18.784" cy="18.784" r="18.784" transform="translate(13.566 13.566)" fill="#dbeaff"/>
        <path id="Trazado_1046256" data-name="Trazado 1046256" d="M133.1,175.15a18.782,18.782,0,0,1-14.521-30.7,18.783,18.783,0,1,0,26.434,26.434A18.7,18.7,0,0,1,133.1,175.15Z" transform="translate(-98.144 -126.624)" fill="#c3ddff"/>
        <path id="Trazado_1046257" data-name="Trazado 1046257" d="M62.692,98.185a27.129,27.129,0,1,1-38.3-38.3L21.605,57.1a1.044,1.044,0,0,0-1.367-.1,32.159,32.159,0,0,0-6.114,6.114,1.044,1.044,0,0,0,.1,1.367l3.106,3.106A26.98,26.98,0,0,0,13.224,77.5H8.83a1.044,1.044,0,0,0-1.038.895,32.161,32.161,0,0,0,0,8.646,1.044,1.044,0,0,0,1.038.895h4.394a26.979,26.979,0,0,0,4.108,9.921l-3.106,3.106a1.044,1.044,0,0,0-.1,1.367,32.159,32.159,0,0,0,6.114,6.114,1.044,1.044,0,0,0,1.367-.1l3.106-3.106a26.98,26.98,0,0,0,9.921,4.108v4.394a1.044,1.044,0,0,0,.895,1.038,32.161,32.161,0,0,0,8.646,0,1.044,1.044,0,0,0,.895-1.038v-4.394a26.979,26.979,0,0,0,9.921-4.108l3.106,3.106a1.044,1.044,0,0,0,1.367.1,32.165,32.165,0,0,0,6.114-6.114,1.044,1.044,0,0,0-.1-1.367Z" transform="translate(-7.5 -50.371)" fill="#ffd064"/>
        <g id="Grupo_1200822" data-name="Grupo 1200822" transform="translate(13.566 13.566)">
          <path id="Trazado_1046258" data-name="Trazado 1046258" d="M209.906,111.71c-.037,0-.072.005-.109.005l.4.886a2.087,2.087,0,0,1-1.116,2.693l-4.481,1.921a2.087,2.087,0,0,0-1.2,1.412l-.354,1.417a1.044,1.044,0,0,0,1.3,1.257l3.637-1.039a3.131,3.131,0,0,1,3.237.973s4.059,4.6,4.242,4.714a3.131,3.131,0,0,0,2.794.234l1.652-.661a2.087,2.087,0,0,1,2.445.686l1.545,2.06a2.087,2.087,0,0,0,1.67.835h3.06A18.772,18.772,0,0,0,209.906,111.71Z" transform="translate(-191.122 -111.71)" fill="#95d6a4"/>
          <path id="Trazado_1046259" data-name="Trazado 1046259" d="M196.292,251.692a3.131,3.131,0,0,0-3.179-1.579l-11.282,1.612a2.087,2.087,0,0,0-1.643,1.291l-1.084,2.71a2.087,2.087,0,0,0,.58,2.36l6.17,5.289.873,6.113a18.425,18.425,0,0,0,9.628-1.356l.978-6.844,1.529-1.019a2.087,2.087,0,0,0,.667-2.75Z" transform="translate(-170.2 -232.068)" fill="#95d6a4"/>
          <path id="Trazado_1046260" data-name="Trazado 1046260" d="M113.819,189.748a18.584,18.584,0,0,0-1.769,12.135l3.744-1.8a5.218,5.218,0,0,0,2.371-2.3l.784-1.51a2.087,2.087,0,0,0-.493-2.545Z" transform="translate(-111.71 -179.589)" fill="#95d6a4"/>
        </g>
        <path id="Trazado_1046261" data-name="Trazado 1046261" d="M114.319,195.764a18.778,18.778,0,0,1,.679-5l-1.179-1.012a18.584,18.584,0,0,0-1.769,12.135l2.893-1.39A18.762,18.762,0,0,1,114.319,195.764Z" transform="translate(-98.144 -166.022)" fill="#78c2a4"/>
        <path id="Trazado_1046262" data-name="Trazado 1046262" d="M240.434,375.048a18.762,18.762,0,0,1-5.329-.778l.463,3.239a18.424,18.424,0,0,0,9.628-1.356l.255-1.787A18.77,18.77,0,0,1,240.434,375.048Z" transform="translate(-205.475 -326.523)" fill="#78c2a4"/>
      </g>
      <g id="Grupo_1200824" data-name="Grupo 1200824" transform="translate(0 0)">
        <path id="Trazado_1046263" data-name="Trazado 1046263" d="M66.353,28.874a2.024,2.024,0,0,0-2.006-1.741h-3.6a27.785,27.785,0,0,0-3.65-8.815l2.545-2.545a2.024,2.024,0,0,0,.187-2.649,33.137,33.137,0,0,0-6.3-6.3,2.024,2.024,0,0,0-2.649.187L48.336,9.557a27.783,27.783,0,0,0-8.815-3.65v-3.6A2.024,2.024,0,0,0,37.78.3a33.139,33.139,0,0,0-8.907,0,2.024,2.024,0,0,0-1.741,2.006v3.6a27.785,27.785,0,0,0-8.815,3.65L15.772,7.012a2.024,2.024,0,0,0-2.649-.187,33.138,33.138,0,0,0-6.3,6.3,2.024,2.024,0,0,0,.187,2.649l2.545,2.545a27.783,27.783,0,0,0-3.65,8.815h-3.6A2.024,2.024,0,0,0,.3,28.874a33.137,33.137,0,0,0,0,8.906,2.024,2.024,0,0,0,2.006,1.741h3.6a27.784,27.784,0,0,0,3.65,8.815L7.012,50.881a2.024,2.024,0,0,0-.187,2.649,33.142,33.142,0,0,0,6.3,6.3,2.024,2.024,0,0,0,2.649-.187L18.317,57.1a27.785,27.785,0,0,0,8.815,3.65v3.6a2.024,2.024,0,0,0,1.741,2.006,33.139,33.139,0,0,0,8.907,0,2.024,2.024,0,0,0,1.741-2.006v-3.6a27.786,27.786,0,0,0,8.815-3.65l2.545,2.545a2.024,2.024,0,0,0,2.649.188,33.142,33.142,0,0,0,6.3-6.3,2.024,2.024,0,0,0-.187-2.649L57.1,48.336a27.785,27.785,0,0,0,3.65-8.815h3.6a2.024,2.024,0,0,0,2.006-1.741,33.138,33.138,0,0,0,0-8.907ZM64.418,37.52a.071.071,0,0,1-.071.049H59.953a.976.976,0,0,0-.958.79,25.886,25.886,0,0,1-3.959,9.563.976.976,0,0,0,.119,1.236l3.106,3.106a.071.071,0,0,1,.015.084,31.184,31.184,0,0,1-5.93,5.93.071.071,0,0,1-.084-.016l-3.106-3.106a.976.976,0,0,0-1.236-.119,25.886,25.886,0,0,1-9.563,3.959.976.976,0,0,0-.79.958v4.394a.071.071,0,0,1-.049.071,31.184,31.184,0,0,1-8.385,0,.071.071,0,0,1-.049-.071V59.953a.976.976,0,0,0-.79-.958,25.886,25.886,0,0,1-9.563-3.959.976.976,0,0,0-1.236.119l-3.106,3.106a.071.071,0,0,1-.084.015,31.189,31.189,0,0,1-5.93-5.929.071.071,0,0,1,.015-.084L11.5,49.157a.976.976,0,0,0,.119-1.236,25.887,25.887,0,0,1-3.959-9.563.976.976,0,0,0-.958-.79H2.306a.071.071,0,0,1-.071-.049,31.187,31.187,0,0,1,0-8.386.071.071,0,0,1,.071-.049H6.7a.976.976,0,0,0,.958-.79,25.884,25.884,0,0,1,3.959-9.563A.976.976,0,0,0,11.5,17.5L8.393,14.391a.071.071,0,0,1-.015-.084,31.179,31.179,0,0,1,5.93-5.929.071.071,0,0,1,.084.015L17.5,11.5a.977.977,0,0,0,1.236.119A25.886,25.886,0,0,1,28.3,7.659a.976.976,0,0,0,.79-.958V2.306a.071.071,0,0,1,.049-.071,31.184,31.184,0,0,1,8.385,0,.071.071,0,0,1,.049.071V6.7a.976.976,0,0,0,.79.958,25.886,25.886,0,0,1,9.563,3.959.977.977,0,0,0,1.236-.119l3.106-3.106a.071.071,0,0,1,.084-.015,31.179,31.179,0,0,1,5.93,5.929.071.071,0,0,1-.015.084L55.155,17.5a.976.976,0,0,0-.119,1.236A25.887,25.887,0,0,1,58.995,28.3a.976.976,0,0,0,.958.79h4.394a.071.071,0,0,1,.071.049,31.194,31.194,0,0,1,0,8.386Z" transform="translate(0 0)"/>
        <path id="Trazado_1046264" data-name="Trazado 1046264" d="M138.141,111.606a.976.976,0,0,0-.164,1.371,17.59,17.59,0,0,1,3.643,8.626h-2a1.116,1.116,0,0,1-.889-.444l-1.545-2.06a3.068,3.068,0,0,0-3.588-1.006l-1.652.661a2.153,2.153,0,0,1-2.277-.431.976.976,0,1,0-1.339,1.421,4.106,4.106,0,0,0,4.341.823l1.652-.661a1.113,1.113,0,0,1,1.3.365l1.545,2.06a3.078,3.078,0,0,0,2.451,1.225h2.149q0,.207,0,.415a17.823,17.823,0,0,1-9.341,15.663l.775-4.649,1.177-.785a3.08,3.08,0,0,0,.979-4.037l-3.237-5.826a4.131,4.131,0,0,0-4.171-2.071l-11.282,1.612a3.072,3.072,0,0,0-2.411,1.895l-1.084,2.71a3.062,3.062,0,0,0,.851,3.464l.579.5a.976.976,0,1,0,1.271-1.483l-.579-.5a1.11,1.11,0,0,1-.308-1.256l1.084-2.71a1.113,1.113,0,0,1,.874-.687l11.282-1.612a2.165,2.165,0,0,1,2.188,1.086l3.237,5.826a1.117,1.117,0,0,1-.355,1.464l-1.529,1.019a.976.976,0,0,0-.422.652l-1.044,6.261a.985.985,0,0,0-.012.108,17.718,17.718,0,0,1-6.33,1.164c-.426,0-.849-.016-1.268-.046l-.9-5.4a.977.977,0,0,0-.328-.581l-2.388-2.047a.976.976,0,0,0-1.271,1.483L119.93,137l.745,4.469a17.862,17.862,0,0,1-14.055-13.464l3.048-1.446a6.23,6.23,0,0,0,2.842-2.742l.754-1.452a3.074,3.074,0,0,0-.792-3.794l-4.053-3.278a17.825,17.825,0,0,1,14.823-9.117l.1.262a1.1,1.1,0,0,1-.594,1.434l-4.481,1.92a3.08,3.08,0,0,0-1.765,2.073l-.354,1.417a2.02,2.02,0,0,0,2.514,2.432l3.637-1.039a2.16,2.16,0,0,1,2.228.669l.951,1.109a.976.976,0,0,0,1.483-1.271l-.951-1.109a4.117,4.117,0,0,0-4.247-1.276l-3.637,1.039a.067.067,0,0,1-.084-.081l.354-1.417a1.116,1.116,0,0,1,.64-.751l4.481-1.92a3.043,3.043,0,0,0,1.79-3.455,17.614,17.614,0,0,1,9.445,3.589.976.976,0,0,0,1.184-1.553,19.582,19.582,0,0,0-11.975-4.041,19.761,19.761,0,1,0,19.761,19.76,19.561,19.561,0,0,0-4.215-12.2.977.977,0,0,0-1.371-.164Zm-30.6,5.49,3.7,3a1.115,1.115,0,0,1,.287,1.375l-.754,1.452a4.266,4.266,0,0,1-1.946,1.877l-2.555,1.213a17.911,17.911,0,0,1-.117-2.039A17.7,17.7,0,0,1,107.539,117.1Z" transform="translate(-90.639 -90.644)"/>
      </g>
    </g>
  </g>
</svg>
