<svg xmlns="http://www.w3.org/2000/svg" xmlns:xlink="http://www.w3.org/1999/xlink" width="113" height="113" viewBox="0 0 113 113">
  <defs>
    <filter id="Trazado_982547" x="0" y="0" width="113" height="113" filterUnits="userSpaceOnUse">
      <feOffset dy="3" input="SourceAlpha"/>
      <feGaussianBlur stdDeviation="3" result="blur"/>
      <feFlood flood-opacity="0.161"/>
      <feComposite operator="in" in2="blur"/>
      <feComposite in="SourceGraphic"/>
    </filter>
  </defs>
  <g id="Grupo_1200830" data-name="Grupo 1200830" transform="translate(-155 -1636.5)">
    <g id="Grupo_1200358" data-name="Grupo 1200358" transform="translate(0 -3394.5)">
      <g id="Grupo_1185978" data-name="Grupo 1185978" transform="translate(164 5037)">
        <g id="Grupo_1180760" data-name="Grupo 1180760">
          <g id="Grupo_1174888" data-name="Grupo 1174888">
            <g id="Grupo_1166845" data-name="Grupo 1166845">
              <g id="Grupo_1166720" data-name="Grupo 1166720">
                <g id="Grupo_1164305" data-name="Grupo 1164305">
                  <g id="Grupo_1163948" data-name="Grupo 1163948">
                    <g id="Grupo_1158168" data-name="Grupo 1158168">
                      <g id="Grupo_1152576" data-name="Grupo 1152576">
                        <g id="Grupo_1148633" data-name="Grupo 1148633">
                          <g id="Grupo_1148525" data-name="Grupo 1148525">
                            <g transform="matrix(1, 0, 0, 1, -9, -6)" filter="url(#Trazado_982547)">
                              <g id="Trazado_982547-2" data-name="Trazado 982547" transform="translate(9 6)" fill="#fff4e6">
                                <path d="M 47.5 93.5 C 41.28937149047852 93.5 35.26533508300781 92.28397369384766 29.59518623352051 89.88570404052734 C 24.11771965026855 87.56893157958984 19.19813346862793 84.25196075439453 14.97309303283691 80.02691650390625 C 10.74804019927979 75.80186462402344 7.431066513061523 70.88229370117188 5.114293098449707 65.40481567382812 C 2.716026782989502 59.73468017578125 1.5 53.71062850952148 1.5 47.5 C 1.5 41.28937149047852 2.716026782989502 35.26533508300781 5.114293098449707 29.59518623352051 C 7.431066513061523 24.11771965026855 10.74804019927979 19.19813346862793 14.97309303283691 14.97309303283691 C 19.19813346862793 10.74804019927979 24.11771965026855 7.431066513061523 29.59518623352051 5.114293098449707 C 35.26533508300781 2.716026782989502 41.28937149047852 1.5 47.5 1.5 C 53.71062850952148 1.5 59.73468017578125 2.716026782989502 65.40481567382812 5.114293098449707 C 70.88229370117188 7.431066513061523 75.80186462402344 10.74804019927979 80.02691650390625 14.97309303283691 C 84.25196075439453 19.19813346862793 87.56893157958984 24.11771965026855 89.88570404052734 29.59518623352051 C 92.28397369384766 35.26533508300781 93.5 41.28937149047852 93.5 47.5 C 93.5 53.71062850952148 92.28397369384766 59.73468017578125 89.88570404052734 65.40481567382812 C 87.56893157958984 70.88229370117188 84.25196075439453 75.80186462402344 80.02691650390625 80.02691650390625 C 75.80186462402344 84.25196075439453 70.88229370117188 87.56893157958984 65.40481567382812 89.88570404052734 C 59.73468017578125 92.28397369384766 53.71062850952148 93.5 47.5 93.5 Z" stroke="none"/>
                                <path d="M 47.5 3 C 41.49121475219727 3 35.66376876831055 4.176155090332031 30.17950439453125 6.495796203613281 C 24.88084411621094 8.736953735351562 20.12152099609375 11.94598388671875 16.03375244140625 16.03375244140625 C 11.94598388671875 20.12152099609375 8.736953735351562 24.88084411621094 6.495796203613281 30.17950439453125 C 4.176155090332031 35.66376876831055 3 41.49121475219727 3 47.5 C 3 53.50878524780273 4.176155090332031 59.33623123168945 6.495796203613281 64.82049560546875 C 8.736953735351562 70.11915588378906 11.94598388671875 74.87847900390625 16.03375244140625 78.96624755859375 C 20.12152099609375 83.05401611328125 24.88084411621094 86.26304626464844 30.17950439453125 88.50419616699219 C 35.66376876831055 90.82384490966797 41.49121475219727 92 47.5 92 C 53.50878524780273 92 59.33623123168945 90.82384490966797 64.82049560546875 88.50419616699219 C 70.11915588378906 86.26304626464844 74.87847900390625 83.05401611328125 78.96624755859375 78.96624755859375 C 83.05401611328125 74.87847900390625 86.26304626464844 70.11915588378906 88.50419616699219 64.82049560546875 C 90.82384490966797 59.33623123168945 92 53.50878524780273 92 47.5 C 92 41.49121475219727 90.82384490966797 35.66376876831055 88.50419616699219 30.17950439453125 C 86.26304626464844 24.88084411621094 83.05401611328125 20.12152099609375 78.96624755859375 16.03375244140625 C 74.87847900390625 11.94598388671875 70.11915588378906 8.736953735351562 64.82049560546875 6.495796203613281 C 59.33623123168945 4.176155090332031 53.50878524780273 3 47.5 3 M 47.5 0 C 73.7335205078125 0 95 21.2664794921875 95 47.5 C 95 73.7335205078125 73.7335205078125 95 47.5 95 C 21.2664794921875 95 0 73.7335205078125 0 47.5 C 0 21.2664794921875 21.2664794921875 0 47.5 0 Z" stroke="none" fill="#ff9d1c"/>
                              </g>
                            </g>
                          </g>
                        </g>
                      </g>
                    </g>
                  </g>
                </g>
              </g>
            </g>
          </g>
        </g>
      </g>
    </g>
    <g id="promover" transform="translate(174.655 1635.478)">
      <g id="Grupo_1200828" data-name="Grupo 1200828" transform="translate(0.987 22.938)">
        <path id="Trazado_1046265" data-name="Trazado 1046265" d="M192.616,29.446h-3.331a1.057,1.057,0,0,0-1.054,1.137l.682,8.917a2.1,2.1,0,0,1-2.092,2.258H170.283a2.1,2.1,0,0,1-2.092-2.258l.682-8.917a1.057,1.057,0,0,0-1.054-1.137h-3.331a1.057,1.057,0,0,0-1.048.923L158.488,69.28a5.975,5.975,0,0,0,5.927,6.729h28.273a5.975,5.975,0,0,0,5.927-6.729l-4.952-38.911A1.057,1.057,0,0,0,192.616,29.446Z" transform="translate(-138.586 -29.446)" fill="#5392f9"/>
        <path id="Trazado_1046266" data-name="Trazado 1046266" d="M401.3,69.28l-4.951-38.911a1.057,1.057,0,0,0-1.048-.923h-3.331a1.085,1.085,0,0,0-.112.006,1.056,1.056,0,0,1,.94.917l4.951,38.911a5.975,5.975,0,0,1-5.927,6.729h3.551A5.975,5.975,0,0,0,401.3,69.28Z" transform="translate(-341.269 -29.446)" fill="#4071f7"/>
        <g id="Grupo_1200826" data-name="Grupo 1200826" transform="translate(42.296 31.357)">
          <path id="Trazado_1046267" data-name="Trazado 1046267" d="M374.375,289.83a8.3,8.3,0,0,0,6.35.52c9.882-3.166,8.586-17.431,1.964-22.433-1.1-.833-11.206,5.428-12.34,13.225C369.846,284.611,371.051,288.11,374.375,289.83Z" transform="translate(-364.823 -267.842)" fill="#6dc17d"/>
          <path id="Trazado_1046268" data-name="Trazado 1046268" d="M408.528,267.918c-.186-.14-.628-.078-1.239.158,5.445,5.958,5.178,19.2-4.5,21.461a8.379,8.379,0,0,1-2.8.174c.073.041.147.082.222.121a8.3,8.3,0,0,0,6.35.52C416.446,287.185,415.15,272.92,408.528,267.918Z" transform="translate(-390.661 -267.843)" fill="#5ea570"/>
          <path id="Trazado_1046269" data-name="Trazado 1046269" d="M330.826,349.1a1.848,1.848,0,0,1-.482-3.607,18.51,18.51,0,0,0,7.819-4.619,22.514,22.514,0,0,0,5.075-8.9,1.848,1.848,0,0,1,3.508,1.166,26.089,26.089,0,0,1-5.943,10.318,22.1,22.1,0,0,1-9.334,5.553A1.842,1.842,0,0,1,330.826,349.1Z" transform="translate(-329.058 -322.446)" fill="#ffcdbe"/>
        </g>
        <path id="Trazado_1046270" data-name="Trazado 1046270" d="M46.791,255.455,40.06,257.9a1.566,1.566,0,0,0-.936,2.007l2.333,6.41a1.566,1.566,0,0,0,2.007.936l6.731-2.45a6.763,6.763,0,0,1,3.374-.324l8.292,1.317L55.089,247.2l-5.505,6.339a6.765,6.765,0,0,1-2.793,1.92Z" transform="translate(-34.882 -218.555)" fill="#e9a52d"/>
        <path id="Trazado_1046271" data-name="Trazado 1046271" d="M168.842,243.794l-3.066,1.116a.719.719,0,0,1-.922-.43L157.1,223.169a.719.719,0,0,1,.43-.922l3.066-1.116a.719.719,0,0,1,.922.43l7.757,21.311A.719.719,0,0,1,168.842,243.794Z" transform="translate(-137.383 -195.88)" fill="#de5791"/>
        <path id="Trazado_1046272" data-name="Trazado 1046272" d="M177.076,242.872l-7.757-21.311a.719.719,0,0,0-.922-.43l-2.357.858a.877.877,0,0,1,1.124.524l7.649,21.015a.877.877,0,0,1-.524,1.124l-.709.258,3.066-1.116A.719.719,0,0,0,177.076,242.872Z" transform="translate(-145.188 -195.881)" fill="#db387e"/>
        <g id="Grupo_1200827" data-name="Grupo 1200827" transform="translate(0 42.191)">
          <path id="Trazado_1046273" data-name="Trazado 1046273" d="M84.305,384.47l4.018,11.04a.621.621,0,0,0,.8.371l3.43-1.249a.621.621,0,0,0,.371-.8L88.9,382.8Z" transform="translate(-74.203 -378.51)" fill="#5392f9"/>
          <path id="Trazado_1046274" data-name="Trazado 1046274" d="M7.543,352.6l1.243,3.415a.707.707,0,0,0,.906.423l4.08-1.485-1.727-4.744-4.08,1.485A.707.707,0,0,0,7.543,352.6Z" transform="translate(-7.501 -350.206)" fill="#5392f9"/>
        </g>
      </g>
      <g id="Grupo_1200829" data-name="Grupo 1200829" transform="translate(0 21.952)">
        <path id="Trazado_1046275" data-name="Trazado 1046275" d="M271.5,167.772a2.16,2.16,0,0,0-3.741,0l-2.332,4.038-.182-.608a.986.986,0,0,0-1.89.567l.78,2.6a1.205,1.205,0,0,0,.547.694l.006,0a1.206,1.206,0,0,0,.881.129l2.638-.623a.987.987,0,0,0-.453-1.92l-.617.146,2.331-4.038a.187.187,0,0,1,.324,0l1.594,2.76a.986.986,0,0,0,1.709-.986Z" transform="translate(-228.683 -147.654)"/>
        <path id="Trazado_1046276" data-name="Trazado 1046276" d="M243.96,242.141l-1.594,2.76a2.16,2.16,0,0,0,1.871,3.24H248.9l-.435.462a.986.986,0,1,0,1.436,1.353l1.858-1.973a1.208,1.208,0,0,0,0-1.656l-1.858-1.973a.986.986,0,1,0-1.436,1.353l.435.462h-4.663a.187.187,0,0,1-.162-.281l1.594-2.76a.987.987,0,0,0-1.709-.987Z" transform="translate(-210.232 -212.751)"/>
        <path id="Trazado_1046277" data-name="Trazado 1046277" d="M337.216,219.053a.987.987,0,0,0-.733-1.187l-2.637-.623a1.248,1.248,0,0,0-.882.129,1.211,1.211,0,0,0-.553.7l-.779,2.6a.986.986,0,0,0,1.89.567l.183-.608,2.331,4.038a.187.187,0,0,1-.162.281h-3.187a.986.986,0,1,0,0,1.973h3.187a2.16,2.16,0,0,0,1.87-3.24l-2.331-4.038.617.146a.986.986,0,0,0,1.187-.733Z" transform="translate(-287.974 -191.528)"/>
        <path id="Trazado_1046278" data-name="Trazado 1046278" d="M67.269,64.428c-.412-4.426-2.531-8.583-5.528-10.847a1.454,1.454,0,0,0-.937-.274l-3.762-29.57a2.047,2.047,0,0,0-2.027-1.785H51.683a2.044,2.044,0,0,0-2.037,2.2l.683,8.917a1.112,1.112,0,0,1-1.109,1.2H32.683a1.11,1.11,0,0,1-1.108-1.2l.681-8.917a2.043,2.043,0,0,0-2.037-2.2H26.888a2.047,2.047,0,0,0-2.027,1.785L23.209,36.719a.986.986,0,1,0,1.957.249l1.652-12.982a.071.071,0,0,1,.07-.061h3.332a.067.067,0,0,1,.052.022.066.066,0,0,1,.018.054l-.681,8.917a3.083,3.083,0,0,0,3.075,3.319H49.22A3.085,3.085,0,0,0,52.3,32.918L51.613,24a.07.07,0,0,1,.019-.055.065.065,0,0,1,.051-.022h3.332a.071.071,0,0,1,.07.061l3.805,29.908C55.3,55.615,48.761,61.062,47.832,67.451q-.078.537-.106,1.063H33.409L26.045,48.281a1.7,1.7,0,0,0-2.186-1.019h0l.732-5.757a.986.986,0,1,0-1.957-.249l-.86,6.765-.977.356a1.7,1.7,0,0,0-1.02,2.186l.294.807-5.124,5.9a5.789,5.789,0,0,1-2.385,1.64L5.828,61.36a2.554,2.554,0,0,0-1.555,3.176L1.115,65.685A1.694,1.694,0,0,0,.1,67.856l1.243,3.415a1.693,1.693,0,0,0,2.17,1.012l3.157-1.149a2.548,2.548,0,0,0,2.358,1.589,4.17,4.17,0,0,0,1.468-.371L14.18,82.464a1.6,1.6,0,0,0,2.06.96l3.43-1.249a1.607,1.607,0,0,0,.961-2.06l-3.677-10.1a5.793,5.793,0,0,1,2.565-.173l7.718,1.226.294.807a1.7,1.7,0,0,0,2.186,1.02l3.066-1.116a1.705,1.705,0,0,0,1.091-1.29H47.8a9.058,9.058,0,0,0,1.3,3.668,19.555,19.555,0,0,1-4.828,2.25,2.835,2.835,0,0,0,1.725,5.4,24.066,24.066,0,0,0,7.805-4.06,9.277,9.277,0,0,0,2.829.442,9.489,9.489,0,0,0,3.46-.657.986.986,0,1,0-.705-1.843,7.454,7.454,0,0,1-3.79.453A26.7,26.7,0,0,0,61.9,65.306a2.835,2.835,0,1,0-5.38-1.788,21.559,21.559,0,0,1-4.843,8.516q-.478.488-1,.931a7.956,7.956,0,0,1-.9-5.231c.615-4.23,4.284-8.317,7.8-10.772a12.013,12.013,0,0,1,3.147-1.668A13.728,13.728,0,0,1,65.3,64.611a11.428,11.428,0,0,1-2.5,8.778.986.986,0,0,0,1.459,1.328,13.21,13.21,0,0,0,3-10.289ZM58.4,64.141a.862.862,0,0,1,1.635.543c-2.569,7.73-6.888,12.764-14.641,15.241a.86.86,0,0,1-1.083-.558.861.861,0,0,1,.558-1.083C52.01,76,55.974,71.431,58.4,64.141ZM3.1,70.334l-1.052-2.89,2.89-1.052,1.052,2.89Zm12.8,11.112-3.555-9.769,2.743-1,3.555,9.768Zm3.919-13.553a7.769,7.769,0,0,0-3.866.371c-7.456,2.714-6.918,2.549-7.174,2.43a.576.576,0,0,1-.3-.327c-1.208-3.32-2.094-5.753-2.333-6.41a.58.58,0,0,1,.346-.743l6.731-2.45a7.767,7.767,0,0,0,3.2-2.2l4.406-5.074,5.625,15.456Zm9.465,3.055L21.719,50.14l2.563-.933,7.573,20.808Z" transform="translate(0 -21.952)"/>
      </g>
    </g>
  </g>
</svg>
