<svg xmlns="http://www.w3.org/2000/svg" xmlns:xlink="http://www.w3.org/1999/xlink" width="295" height="200" viewBox="0 0 295 200">
  <defs>
    <clipPath id="clip-path">
      <rect id="Rectángulo_415884" data-name="Rectángulo 415884" width="295" height="200" transform="translate(1125 2798)" fill="#fff" stroke="#707070" stroke-width="1" opacity="0.59"/>
    </clipPath>
  </defs>
  <g id="Enmascarar_grupo_1098870" data-name="Enmascarar grupo 1098870" transform="translate(-1125 -2798)" clip-path="url(#clip-path)">
    <g id="Grupo_1200893" data-name="Grupo 1200893" transform="translate(-5354.64 -59.975)">
      <path id="Trazado_1045604" data-name="Trazado 1045604" d="M325.917,171.262s-75.17,21.682-40.142,84.991c0,0,13.75,19.842-5.219,45-12.325,16.349-14.364,52.435,38.485,69,25.816,8.09,36.936,32.846,36.936,32.846s19.059,67.317,92.965.239c108.016-98.038.31-143,.31-143s-31.91-10.209-45.007-56.207C394.483,169.855,353.59,162.507,325.917,171.262Z" transform="translate(6264.927 2693.874)" fill="#f8feff"/>
      <g id="Grupo_1200731" data-name="Grupo 1200731" transform="translate(6486.64 2861.759)">
        <path id="Trazado_1045771" data-name="Trazado 1045771" d="M622.751,625.954l-.045-.059c-.219-.2-2.637-2.431-6.053-5.782-.062.384-.1.608-.1.609h0a.231.231,0,0,1-.265.189c-.014,0-.021-.016-.034-.021-1.839,5.225-3.111,8.234-3.111,8.234h0c-.183,1.723-3.42,2.987-8.74,3.723a40.98,40.98,0,0,1,3.655,9.749l.041,0a.23.23,0,0,1,.252.206.223.223,0,0,1-.173.234c.455,1.637.882,3.3,1.3,4.967q.146.591.287,1.185.586,2.436,1.12,4.912c.023.106.047.21.07.316,1.158,5.438,2.119,11.012,2.911,16.659.138-.124.266-.255.41-.375.014-.011.028-.02.042-.031l-.033-.043,35.691-36.351L636.92,619.154l-7.595,7.046A4.652,4.652,0,0,1,622.751,625.954Z" transform="translate(-400.542 -475.938)" fill="none"/>
        <path id="Trazado_1045772" data-name="Trazado 1045772" d="M472.293,366.888l-.013,0,.026-.191c.02-.187.05-.375.077-.563l2.2-16.144c.014-.124.034-.248.05-.372l.093-.683.021.007a17.614,17.614,0,0,1,4.586-9.316,9.162,9.162,0,0,0,5.517,5.441l0,.009.1.027c.1.033.187.073.284.1a9.218,9.218,0,0,0,1.519.322,84.116,84.116,0,0,0,15.113,1.843,7.59,7.59,0,0,0,4.021,10.684c.1-.111.2-.223.314-.331,3.271-3.214,7.731-3.981,9.962-1.711s1.388,6.716-1.883,9.931c-3.137,3.084-7.363,3.906-9.672,1.965l-3.964,7.228,1.724,9.523c35.239-3.192,42.088-22.968,42.088-22.968s-3.857-8.278-10.607-8.166-11.826-2.166-12.975-6.871-3.4-8.448-9.415-9.128a10.418,10.418,0,0,1-7.8-5.071,14.63,14.63,0,0,0-25.957-.607,10.417,10.417,0,0,1-8.028,4.7c-6.038.4-8.462,4.031-9.831,8.677s-6.544,6.686-13.282,6.258-10.976,7.662-10.976,7.662,6.431,21.84,45.647,25.446l.441-2.4A15.023,15.023,0,0,1,472.293,366.888Z" transform="translate(-313.709 -324.263)" fill="#74160d"/>
        <path id="Trazado_1045773" data-name="Trazado 1045773" d="M703.524,561.876c2.005,2.369,3.989,4.784,5.922,7.2l.4-.369a4.638,4.638,0,0,0,.447-6.31c-.07-.086-.123-.182-.2-.264A4.652,4.652,0,0,0,703.524,561.876Z" transform="translate(-451.525 -445.842)" fill="#74160d"/>
        <path id="Trazado_1045774" data-name="Trazado 1045774" d="M640.827,618.432l.045.059a4.651,4.651,0,0,0,6.574.247l7.595-7.046-6.083-7.046-7.839,7.272A4.648,4.648,0,0,0,640.827,618.432Z" transform="translate(-418.663 -468.476)" fill="#74160d"/>
        <path id="Trazado_1045775" data-name="Trazado 1045775" d="M604.387,647.349a41.026,41.026,0,0,1,3.658,9.748h.005a41,41,0,0,0-3.656-9.749Z" transform="translate(-400.534 -490.439)" fill="#d79903"/>
        <path id="Trazado_1045776" data-name="Trazado 1045776" d="M612.177,668.32h0q.681,2.456,1.3,4.967C613.059,671.616,612.631,669.957,612.177,668.32Z" transform="translate(-404.54 -501.226)" fill="#d79903"/>
        <path id="Trazado_1045777" data-name="Trazado 1045777" d="M542.011,726.826a12.193,12.193,0,0,1-.272-18.414c-.791-5.647-1.753-11.221-2.911-16.659q1.238,5.829,2.188,11.844a153.2,153.2,0,0,1-17.141-1.6,171.739,171.739,0,0,1-28.8-7.848c-1.373-.5-2.731-1.042-4.081-1.6-1.4,24.771-1.408,36.555-1.408,36.851h0a.229.229,0,0,1-.457.018V729.4c0-.155,0-3.311.191-9.67-14.924,62.383-24.529,88.41-25.134,90.029h3.889c7.47-21.054,16.219-49.7,21.115-79.555.055.009.109.021.165.029a542.176,542.176,0,0,0,5.843,79.526h46.462a434.214,434.214,0,0,0,2.229-80.847c-.654-.667-1.291-1.36-1.891-2.086Z" transform="translate(-328.419 -513.278)" fill="#d79903"/>
        <path id="Trazado_1045778" data-name="Trazado 1045778" d="M615.437,680.987c.39,1.625.767,3.26,1.12,4.912Q616.026,683.422,615.437,680.987Z" transform="translate(-406.218 -507.741)" fill="#d79903"/>
        <path id="Trazado_1045779" data-name="Trazado 1045779" d="M418.086,786.247c.3-.844.752-2.124,1.341-3.867,1.178-3.486,2.913-8.823,5.139-16.224,4.453-14.8,10.87-37.86,18.727-70.878,0,0,0,0,0,0,.2-6,.546-14.325,1.154-25.089a143.436,143.436,0,0,1-33.488-20.148c.247-.481.489-.947.726-1.4h0c-11.1,21.27-32.979,71-37.117,138.945h43.06c0-.028-.013-.054,0-.082C417.629,787.5,417.783,787.091,418.086,786.247Z" transform="translate(-282.33 -491.101)" fill="#d79903"/>
        <path id="Trazado_1045780" data-name="Trazado 1045780" d="M455.908,631.122h0c-1.088,1.854-2.625,4.571-4.477,8.1h0C453.283,635.691,454.819,632.977,455.908,631.122Z" transform="translate(-321.862 -482.094)" fill="#d79903"/>
        <path id="Trazado_1045781" data-name="Trazado 1045781" d="M491.283,638.531c-15.042-1.6-28.088-4.444-35.373-7.409-1.088,1.855-2.624,4.569-4.476,8.1.066.025.459.174,1.193.433.8.283,1.988.686,3.52,1.171,3.063.969,7.51,2.263,13.039,3.556a194.617,194.617,0,0,0,43.764,5.173c5.317,0,10.815-.245,16.426-.807A41,41,0,0,0,525.716,639C517.8,640.1,505.268,640.02,491.283,638.531Z" transform="translate(-321.863 -482.094)" fill="#bb8210"/>
        <path id="Trazado_1045782" data-name="Trazado 1045782" d="M566.034,673.127c-.1-.4-.19-.791-.287-1.185q-.619-2.507-1.3-4.967c-.013,0-.019.016-.033.018a165.263,165.263,0,0,1-16.518.813,188.738,188.738,0,0,1-27.7-2.1q-.474,7.273-.818,13.444c1.35.556,2.708,1.093,4.081,1.6a171.74,171.74,0,0,0,28.8,7.848,153.238,153.238,0,0,0,17.141,1.6q-.955-6-2.188-11.844c-.022-.106-.047-.21-.07-.316C566.8,676.387,566.424,674.751,566.034,673.127Z" transform="translate(-356.814 -499.881)" fill="#bb8210"/>
        <path id="Trazado_1045783" data-name="Trazado 1045783" d="M482.991,670.186c.232-4.091.5-8.526.813-13.329a176.573,176.573,0,0,1-33.556-8.2h0c-.009,0-.011-.014-.019-.017-.238.456-.479.921-.726,1.4A143.448,143.448,0,0,0,482.991,670.186Z" transform="translate(-320.871 -491.102)" fill="#bb8210"/>
        <path id="Trazado_1045784" data-name="Trazado 1045784" d="M386.715,555.4a4.647,4.647,0,0,0-6.4,1.254l-.048.059a4.65,4.65,0,0,0,1.313,6.445l.931.616,5.142-7.753Z" transform="translate(-284.863 -442.751)" fill="#74160d"/>
        <path id="Trazado_1045785" data-name="Trazado 1045785" d="M435.763,600.934l5.154,3.411c-.529-2.782-.951-5.723-1.288-8.752C438.344,597.4,437.05,599.186,435.763,600.934Z" transform="translate(-313.804 -463.819)" fill="#74160d"/>
        <path id="Trazado_1045786" data-name="Trazado 1045786" d="M310.465,553.093c-1.808,2.542-3.633,5.041-5.432,7.453-9.652-7.411-11.848-7.411-22.56-18.471l4.959-7.477h0l-5.142,7.753-7.707,11.62-40.183-29.6.02-.011-3.046-2.282c-9.028-6.444-17.283-10.356-18.437-8.739-.858,1.2,2.46,5.128,7.931,9.713a.229.229,0,0,1,.318-.032l2.569,2.065a.23.23,0,0,1,.081.226l-.009.055-.023.173a5.968,5.968,0,0,0-.034.658,7.851,7.851,0,0,0,1.22,4.143,12.176,12.176,0,0,0,6.293,4.7.23.23,0,1,1-.165.43,12.631,12.631,0,0,1-6.519-4.886,8.314,8.314,0,0,1-1.29-4.387,5.914,5.914,0,0,1,.054-.834L220.9,523.38h0c-.02-.016-.022-.042-.035-.063a11.556,11.556,0,0,0-2.56,2.127c-18.3-5.245-33.112-8-33.647-6.185-.264.9,3,2.747,8.574,5.056a.228.228,0,0,1,.153-.056,99.779,99.779,0,0,1,18.1,2.8.23.23,0,0,1-.111.447,103.854,103.854,0,0,0-16.608-2.7c-.905-.068-1.4-.086-1.4-.086h0a.23.23,0,0,1-.221-.239c0-.029.023-.048.034-.073-4.187-.607-6.783-.592-7.012.188-.287.972,3.166,2.945,8.944,5.33a.215.215,0,0,1,.179-.148h.022c.188,0,4.242.041,17.551,3.652a.23.23,0,1,1-.121.444c-13.286-3.605-17.311-3.636-17.43-3.636v0a.228.228,0,0,1-.234-.207c0-.017.012-.029.015-.045-3.742-.5-6.046-.44-6.262.291-.562,1.905,13.21,7.645,30.761,12.82l4.02,1.186-.019-.082a10.931,10.931,0,0,0,3.531.476l38.221,38.023a14.527,14.527,0,0,0,3.851,3.51h0c4.866,3.055,10.73,2.869,14.62-.055l-.005.01.034-.031a10.2,10.2,0,0,0,1.35-1.231c2.332-2.182,11.672-13.241,21.4-26.456,1.287-1.748,2.581-3.534,3.866-5.342C310.466,553.1,310.465,553.095,310.465,553.093Z" transform="translate(-184.64 -421.325)" fill="#f3988b"/>
        <path id="Trazado_1045787" data-name="Trazado 1045787" d="M408.645,583.446c1.8-2.412,3.624-4.911,5.432-7.453q-.178-1.61-.325-3.25a.23.23,0,0,1-.249-.209s-.006-.065-.016-.182L391.043,557.5l-4.959,7.477C396.8,576.036,398.993,576.036,408.645,583.446Z" transform="translate(-288.252 -444.226)" fill="#ef7f73"/>
        <path id="Trazado_1045788" data-name="Trazado 1045788" d="M658.832,583.322l7.4,8.576c8.205-5.345,16.229-10.895,23.363-17.536-2.9-3.709-5.955-7.5-9.065-11.174l0,0Z" transform="translate(-428.537 -447.152)" fill="#ef7f73"/>
        <path id="Trazado_1045789" data-name="Trazado 1045789" d="M506.654,464.646c.026.108.066.269.122.474.113.411.293,1,.559,1.721a25.432,25.432,0,0,0,2.775,5.4,22.08,22.08,0,0,0,15.367,9.622,30.094,30.094,0,0,0,4.667.372,25.764,25.764,0,0,0,15.322-4.939,24.568,24.568,0,0,0,7.026-7.653c-1.226-.277-2.477-.547-3.763-.807l.133.03c-3.49,6.76-11.587,10.864-20.609,9.9-9.176-.977-16.429-6.625-18.271-14.144-1.131-.02-2.25-.034-3.341-.033C506.646,464.611,506.648,464.623,506.654,464.646Z" transform="translate(-350.259 -396.44)" fill="#6997b2"/>
        <path id="Trazado_1045790" data-name="Trazado 1045790" d="M455.152,552.881c13.986,1.489,26.516,1.566,34.434.472h.008c5.32-.736,8.557-2,8.74-3.723h0s1.272-3.009,3.111-8.234a.223.223,0,0,1-.155-.244s.081-.489.222-1.372.344-2.164.587-3.744c.486-3.161,1.134-7.525,1.782-12.339,1.3-9.628,2.592-21.064,2.592-28.257v-.031a.229.229,0,0,1,.458.021h0v.01c0,13.3-4.381,40.812-5.09,45.179,3.416,3.351,5.834,5.58,6.053,5.782a4.648,4.648,0,0,1,.291-6.514l7.839-7.273h0l21.7-20.13,0,0,0,0a4.651,4.651,0,0,1,6.565.253c.078.083.131.178.2.264l.024-.022c-16.692-21.734-29.12-31.421-31.766-33.643h-.013c-3.511-3.4-12.414-6.86-24.337-9.585,0,.023.005.048-.006.069a24.959,24.959,0,0,1-7.191,7.858,26.225,26.225,0,0,1-15.592,5.026,30.467,30.467,0,0,1-4.739-.378A22.543,22.543,0,0,1,445.2,472.5a24.365,24.365,0,0,1-3.559-7.9c-12.307.045-21.98,1.428-26.608,3.873a23.13,23.13,0,0,0-6.706,3.584l0,0-.03.026a22.509,22.509,0,0,0-2.809,2.627c-10.562,10.875-23.872,34.866-24.3,35.642a4.647,4.647,0,0,1,6.4-1.254l.939.621h0l22.444,14.854c-.142-1.66-1.213-14.633-1.213-27.483,0-4.387.124-8.757.455-12.661a.23.23,0,0,1,.458.039c-.328,3.885-.453,8.245-.453,12.622,0,10.3.69,20.69,1.035,25.24.115,1.517.191,2.382.191,2.384h0a.23.23,0,0,1-.209.25h0q.146,1.64.325,3.25s0,0,0,.005c.336,3.03.759,5.97,1.287,8.753q.356,1.871.775,3.642c-.163,1.53,2.112,3.214,6.156,4.86h0C427.063,548.437,440.11,551.28,455.152,552.881Zm38.383-28.965c-5.776,5-17.47,7.912-27.744,9.611s-19.111,2.151-19.116,2.151h0a.23.23,0,1,1-.024-.46s.549-.028,1.536-.1,2.41-.179,4.153-.341c3.486-.325,8.254-.862,13.375-1.706,10.24-1.683,21.906-4.625,27.517-9.5a.23.23,0,1,1,.3.348Zm-8.915,19.552c-3,.259-5.891.379-8.677.379-30.482,0-48.3-14.334-51.573-17.428h0a.23.23,0,0,1,.316-.335c3.209,3.032,20.927,17.3,51.257,17.3,2.774,0,5.654-.12,8.638-.377a.23.23,0,1,1,.039.459Z" transform="translate(-285.733 -396.444)" fill="#6997b2"/>
        <path id="Trazado_1045791" data-name="Trazado 1045791" d="M540.114,446.089a12.185,12.185,0,0,0,2.046-4.546,14.985,14.985,0,0,1-12.306,1.313c-.289-.1-.562-.215-.841-.326l-1.443,7.839C532.144,451.013,537.338,449.676,540.114,446.089Z" transform="translate(-361.024 -384.585)" fill="#ef7f73"/>
        <path id="Trazado_1045792" data-name="Trazado 1045792" d="M530.518,422.858c9.022.96,17.119-3.144,20.609-9.9l-.133-.03c-2.545-.577-5.2-1.136-7.946-1.654l-1.873-10.348-1.724-9.523,3.964-7.228c2.309,1.941,6.535,1.118,9.672-1.965,3.271-3.215,4.114-7.661,1.883-9.931s-6.691-1.5-9.962,1.711c-.11.108-.21.22-.314.331a7.59,7.59,0,0,1-4.021-10.684,84.12,84.12,0,0,1-15.113-1.843,9.213,9.213,0,0,1-1.519-.321c-.1-.03-.188-.07-.284-.1l-.1-.027,0-.009a9.163,9.163,0,0,1-5.517-5.441,17.611,17.611,0,0,0-4.586,9.316l-.021-.007-.093.683c-.016.124-.037.248-.051.373L511.2,382.4c-.027.187-.057.375-.077.563l-.026.191.013,0a15.025,15.025,0,0,0,9.375,15.307l-.441,2.4-1.455,7.9c-2.167-.027-4.286-.029-6.34-.05v0C514.088,416.233,521.341,421.881,530.518,422.858Zm-7.966-41.716.14.037a1.776,1.776,0,0,0,.672-.213l.071-.039.223,0,.122.187a4,4,0,0,0,.121.8.62.62,0,0,0,.139.285l.02.011.135-.071a1.56,1.56,0,0,0,.239-.254,4.887,4.887,0,0,0,.415-.657c.064-.118.1-.194.1-.194l.173-.129.2.07a3.61,3.61,0,0,0,.506.467.516.516,0,0,0,.187.1.638.638,0,0,0,.028-.22,5.448,5.448,0,0,0-.206-1.2c-.1-.4-.209-.711-.209-.711h0a.23.23,0,0,1,.437-.147,8.712,8.712,0,0,1,.44,2.055,1.027,1.027,0,0,1-.074.427.428.428,0,0,1-.392.26.851.851,0,0,1-.477-.192,3.277,3.277,0,0,1-.347-.3,4.049,4.049,0,0,1-.624.883.8.8,0,0,1-.534.27.491.491,0,0,1-.32-.122.829.829,0,0,1-.208-.3,2.786,2.786,0,0,1-.178-.759,1.851,1.851,0,0,1-.661.16.649.649,0,0,1-.457-.162.707.707,0,0,1-.2-.535,5.116,5.116,0,0,1,.761-2.1.23.23,0,1,1,.406.217,4.84,4.84,0,0,0-.708,1.882C522.5,381.082,522.534,381.124,522.552,381.141Zm.112-9.611c-.269.99-1.11-.627-3.444-.682s-3.51.863-3.487-.162.7-1.969,3.035-1.914S523.12,369.851,522.664,371.53Zm-3.7,4.15c.413-.013.765.584.789,1.332s-.291,1.367-.7,1.379-.764-.584-.788-1.332S518.555,375.693,518.967,375.68Zm13.113,1.376c-.057.747-.435,1.327-.846,1.3s-.7-.661-.643-1.408.434-1.328.846-1.3S532.136,376.308,532.081,377.056ZM551.4,372.93a3.085,3.085,0,0,1,2.259.858,3.053,3.053,0,0,1,.818,2.2,5.076,5.076,0,0,1-.183,1.31h0a.23.23,0,1,1-.445-.12,4.621,4.621,0,0,0,.168-1.191,2.6,2.6,0,0,0-.686-1.874,2.626,2.626,0,0,0-1.93-.72,5.212,5.212,0,0,0-1.916.413,8.007,8.007,0,0,1,1.347,4.676,11.515,11.515,0,0,1-.522,3.347.23.23,0,1,1-.441-.134,11.064,11.064,0,0,0,.5-3.214,7.438,7.438,0,0,0-1.309-4.472l-.011-.014h0s0,0,0,0a8.393,8.393,0,0,0-2.221,1.581,6.9,6.9,0,0,0-2.261,4.6,2.6,2.6,0,0,0,.687,1.875.23.23,0,1,1-.329.323,3.058,3.058,0,0,1-.818-2.2,8.217,8.217,0,0,1,7.293-7.244Zm-16.006-.518c-.269.988-1.11-.628-3.444-.683s-3.511.863-3.487-.162.7-1.968,3.034-1.914S535.85,370.732,535.393,372.412Zm-2.421,13.746a4.4,4.4,0,1,1-8.461,2.415Zm-12.459,12.315c.279.111.552.231.841.326a14.985,14.985,0,0,0,12.306-1.313,12.2,12.2,0,0,1-2.046,4.546c-2.776,3.587-7.97,4.924-12.544,4.28Z" transform="translate(-352.523 -340.528)" fill="#f3988b"/>
        <path id="Trazado_1045793" data-name="Trazado 1045793" d="M526.7,399.353c.413-.013.728-.63.7-1.379s-.376-1.345-.789-1.332-.727.63-.7,1.379S526.286,399.365,526.7,399.353Z" transform="translate(-360.17 -361.49)" fill="#74160d"/>
        <path id="Trazado_1045794" data-name="Trazado 1045794" d="M523.736,382.416c-2.334-.055-3.011.89-3.035,1.914s1.154.107,3.487.162,3.174,1.672,3.444.682C528.087,383.494,526.069,382.47,523.736,382.416Z" transform="translate(-357.49 -354.172)" fill="#74160d"/>
        <path id="Trazado_1045795" data-name="Trazado 1045795" d="M546.913,386.145c-.024,1.025,1.153.108,3.486.162s3.175,1.672,3.444.683c.456-1.68-1.562-2.7-3.9-2.759S546.937,385.12,546.913,386.145Z" transform="translate(-370.972 -355.106)" fill="#74160d"/>
        <path id="Trazado_1045796" data-name="Trazado 1045796" d="M552.131,396.574c-.411-.031-.79.549-.846,1.3s.232,1.377.643,1.408.79-.55.847-1.3S552.543,396.6,552.131,396.574Z" transform="translate(-373.218 -361.455)" fill="#74160d"/>
        <path id="Trazado_1045797" data-name="Trazado 1045797" d="M534.76,402.929a.23.23,0,0,0-.311.1,5.117,5.117,0,0,0-.762,2.1.711.711,0,0,0,.2.535.647.647,0,0,0,.456.162,1.83,1.83,0,0,0,.661-.16,2.775,2.775,0,0,0,.178.759.823.823,0,0,0,.208.3.491.491,0,0,0,.321.122.8.8,0,0,0,.534-.27,4.076,4.076,0,0,0,.624-.883,3.331,3.331,0,0,0,.347.3.854.854,0,0,0,.477.192.428.428,0,0,0,.392-.26,1.027,1.027,0,0,0,.074-.427,8.712,8.712,0,0,0-.44-2.055.23.23,0,0,0-.437.147h0s.1.312.209.712a5.436,5.436,0,0,1,.206,1.2.65.65,0,0,1-.028.22.527.527,0,0,1-.187-.1,3.621,3.621,0,0,1-.506-.467l-.2-.07-.173.129s-.036.076-.1.194a4.878,4.878,0,0,1-.415.657,1.563,1.563,0,0,1-.239.254l-.135.071-.02-.011a.615.615,0,0,1-.139-.285,4,4,0,0,1-.12-.8l-.122-.187-.223,0-.071.039a1.775,1.775,0,0,1-.672.213l-.14-.037c-.017-.017-.05-.059-.052-.2a4.834,4.834,0,0,1,.708-1.882A.23.23,0,0,0,534.76,402.929Z" transform="translate(-364.17 -364.71)" fill="#74160d"/>
        <path id="Trazado_1045798" data-name="Trazado 1045798" d="M544.214,423.656a4.4,4.4,0,0,0,3.023-5.438l-8.461,2.415A4.4,4.4,0,0,0,544.214,423.656Z" transform="translate(-366.788 -372.588)" fill="#fff"/>
        <path id="Trazado_1045799" data-name="Trazado 1045799" d="M579.123,398.221a3.057,3.057,0,0,0,.818,2.2.23.23,0,0,0,.329-.323,2.6,2.6,0,0,1-.687-1.875,6.9,6.9,0,0,1,2.261-4.6,8.391,8.391,0,0,1,2.221-1.581s0,0,0,0h0l.011.014a7.438,7.438,0,0,1,1.309,4.472,11.06,11.06,0,0,1-.5,3.214.23.23,0,1,0,.441.134,11.514,11.514,0,0,0,.522-3.347,8.01,8.01,0,0,0-1.347-4.676,5.213,5.213,0,0,1,1.916-.413,2.626,2.626,0,0,1,1.93.72,2.6,2.6,0,0,1,.686,1.874,4.624,4.624,0,0,1-.167,1.191.23.23,0,1,0,.445.12h0a5.072,5.072,0,0,0,.183-1.31,2.881,2.881,0,0,0-3.077-3.055,8.214,8.214,0,0,0-7.293,7.244Z" transform="translate(-387.54 -358.577)" fill="#74160d"/>
        <path id="Trazado_1045800" data-name="Trazado 1045800" d="M259.3,534.4Z" transform="translate(-223.039 -432.344)" fill="#74160d"/>
        <path id="Trazado_1045801" data-name="Trazado 1045801" d="M261.681,535.946a5.836,5.836,0,0,0-.054.835,8.306,8.306,0,0,0,1.29,4.387,12.634,12.634,0,0,0,6.519,4.886.23.23,0,0,0,.165-.43,12.172,12.172,0,0,1-6.293-4.7,7.851,7.851,0,0,1-1.22-4.144,5.968,5.968,0,0,1,.035-.657l.023-.173.009-.054a.232.232,0,0,0-.081-.226L259.5,533.6a.229.229,0,0,0-.318.032s0,0-.006,0a.219.219,0,0,0,0,.26c.013.021.014.047.035.063Z" transform="translate(-222.958 -431.91)" fill="#74160d"/>
        <path id="Trazado_1045802" data-name="Trazado 1045802" d="M206.366,548.023v0c.119,0,4.144.03,17.43,3.636a.23.23,0,1,0,.121-.444c-13.309-3.611-17.362-3.651-17.551-3.652h-.022a.216.216,0,0,0-.179.148.194.194,0,0,0-.018.055c0,.016-.016.028-.015.045A.227.227,0,0,0,206.366,548.023Z" transform="translate(-195.695 -439.118)" fill="#74160d"/>
        <path id="Trazado_1045803" data-name="Trazado 1045803" d="M202.373,536.665h0s.5.019,1.4.086a103.8,103.8,0,0,1,16.608,2.7.23.23,0,0,0,.111-.447,99.721,99.721,0,0,0-18.1-2.8.228.228,0,0,0-.153.056.225.225,0,0,0-.052.092c-.011.025-.033.044-.034.073A.23.23,0,0,0,202.373,536.665Z" transform="translate(-193.647 -433.274)" fill="#74160d"/>
        <path id="Trazado_1045804" data-name="Trazado 1045804" d="M441.489,545.736h0a.23.23,0,0,0,.209-.25h0s-.077-.867-.191-2.384c-.345-4.55-1.035-14.943-1.035-25.241,0-4.377.124-8.737.453-12.622a.23.23,0,0,0-.458-.039c-.33,3.9-.455,8.275-.455,12.661,0,12.849,1.071,25.822,1.213,27.483.01.117.016.182.016.182A.23.23,0,0,0,441.489,545.736Z" transform="translate(-315.989 -417.219)" fill="#74160d"/>
        <path id="Trazado_1045805" data-name="Trazado 1045805" d="M628.938,573.626h0s.037-.225.1-.609c.708-4.367,5.088-31.873,5.09-45.179v-.01h0a.229.229,0,0,0-.458-.021v.031c0,7.192-1.295,18.628-2.591,28.257-.648,4.815-1.3,9.179-1.782,12.34-.243,1.58-.445,2.859-.587,3.744s-.222,1.372-.222,1.372a.224.224,0,0,0,.155.244c.013,0,.02.019.035.021A.231.231,0,0,0,628.938,573.626Z" transform="translate(-412.927 -428.843)" fill="#74160d"/>
        <path id="Trazado_1045806" data-name="Trazado 1045806" d="M470.1,591.89Z" transform="translate(-331.467 -461.915)" fill="#74160d"/>
        <path id="Trazado_1045807" data-name="Trazado 1045807" d="M530.239,608.059c-2.984.258-5.864.377-8.638.377-30.329,0-48.048-14.271-51.257-17.3a.23.23,0,0,0-.316.335c3.276,3.095,21.091,17.426,51.573,17.428,2.787,0,5.68-.12,8.677-.379a.23.23,0,0,0-.039-.459Z" transform="translate(-331.391 -461.493)" fill="#74160d"/>
        <path id="Trazado_1045808" data-name="Trazado 1045808" d="M684.96,616.8a12.813,12.813,0,0,0,2.889-13.084l.008.009-.02-.041a10.253,10.253,0,0,0-.822-1.633c-1.621-3.119-11.31-17.317-22.816-31.675-1.932-2.411-3.916-4.826-5.922-7.2l0,0c3.111,3.675,6.169,7.464,9.065,11.174-7.133,6.641-15.158,12.191-23.362,17.536l-7.4-8.576h0l6.083,7.046,13.052,15.117-35.691,36.351.034.043c-.014.011-.028.02-.042.031-.145.119-.273.251-.41.375a12.193,12.193,0,0,0,.272,18.414l-.021,0c.6.726,1.237,1.42,1.891,2.086,5.225,5.323,11.774,8.6,12.746,7.546.627-.68.433-2.248-.436-4.343a.217.217,0,0,1-.216-.01,27.777,27.777,0,0,1-4.028-3.424.23.23,0,1,1,.349-.3,24.546,24.546,0,0,0,3.507,3.032c.271.2.436.315.437.315h0a.231.231,0,0,1,.056.321s0,0-.005,0c2.506,1.94,4.527,2.806,5.393,2.092.788-.65.475-2.484-.659-4.937a.218.218,0,0,1-.207,0,25.66,25.66,0,0,1-4.517-3.645.23.23,0,0,1,.327-.323,26.161,26.161,0,0,0,4.052,3.336c.24.158.373.238.374.238h0a.23.23,0,0,1,.079.314c1.622.984,2.889,1.319,3.528.792.785-.647.476-2.47-.646-4.908a14.189,14.189,0,0,1-3.23-2.689.23.23,0,0,1,.328-.323,12.933,12.933,0,0,0,3.157,2.625l0,0h0a.216.216,0,0,1,.126.206c1.311.691,2.333.883,2.885.429,1.223-1.009-.189-4.858-3.247-9.476l43.262-32.66Z" transform="translate(-406.277 -447.15)" fill="#f3988b"/>
        <path id="Trazado_1045809" data-name="Trazado 1045809" d="M658.548,764.194h0s-.134-.08-.373-.238a26.131,26.131,0,0,1-4.052-3.336.23.23,0,0,0-.327.323,25.657,25.657,0,0,0,4.517,3.645.217.217,0,0,0,.207,0,.221.221,0,0,0,.109-.081s0,0,0,0A.232.232,0,0,0,658.548,764.194Z" transform="translate(-425.913 -548.665)" fill="#74160d"/>
        <path id="Trazado_1045810" data-name="Trazado 1045810" d="M666.516,756.575h0l0,0a12.926,12.926,0,0,1-3.157-2.625.23.23,0,0,0-.328.323,14.157,14.157,0,0,0,3.23,2.688l.086.042a.23.23,0,0,0,.3-.127.207.207,0,0,0,0-.093A.215.215,0,0,0,666.516,756.575Z" transform="translate(-430.661 -545.233)" fill="#74160d"/>
        <path id="Trazado_1045811" data-name="Trazado 1045811" d="M649.132,770.43h0s-.166-.116-.437-.315a24.529,24.529,0,0,1-3.507-3.032.23.23,0,1,0-.349.3,27.774,27.774,0,0,0,4.028,3.424.216.216,0,0,0,.216.01.224.224,0,0,0,.1-.063s0,0,.005,0A.232.232,0,0,0,649.132,770.43Z" transform="translate(-421.312 -551.983)" fill="#74160d"/>
        <path id="Trazado_1045812" data-name="Trazado 1045812" d="M482.4,697.1c-.189,6.359-.192,9.514-.191,9.67v.019a.229.229,0,0,0,.457-.018h0c0-.3.01-12.079,1.408-36.851.233-4.122.5-8.6.818-13.444a188.867,188.867,0,0,0,27.7,2.1,165.252,165.252,0,0,0,16.518-.813c.013,0,.02-.014.033-.017h0a.224.224,0,0,0,.173-.234.23.23,0,0,0-.252-.206l-.041,0h-.005c-5.611.562-11.109.807-16.426.807a194.62,194.62,0,0,1-43.764-5.173c-5.529-1.293-9.976-2.586-13.039-3.556-1.532-.485-2.717-.889-3.52-1.171-.733-.258-1.127-.407-1.193-.433h0l-.026-.01a.231.231,0,0,0-.3.133.226.226,0,0,0,.113.279h0c.008,0,.01.014.019.017h0a176.588,176.588,0,0,0,33.556,8.2c-.313,4.8-.581,9.238-.813,13.329-.609,10.764-.956,19.086-1.154,25.089,0,0,0,0,0,0-7.858,33.018-14.275,56.076-18.727,70.878-2.226,7.4-3.961,12.738-5.139,16.224-.589,1.743-1.039,3.023-1.341,3.867s-.457,1.25-.457,1.251c-.01.028,0,.054,0,.082a.218.218,0,0,0,.131.215.23.23,0,0,0,.3-.133h0l.031-.082C457.87,785.507,467.475,759.48,482.4,697.1Z" transform="translate(-321.504 -490.648)" fill="#74160d"/>
        <path id="Trazado_1045813" data-name="Trazado 1045813" d="M562.334,585.962c-5.611,4.879-17.277,7.821-27.517,9.5-5.121.845-9.889,1.381-13.376,1.706-1.743.163-3.166.272-4.153.341s-1.535.1-1.536.1a.23.23,0,1,0,.024.46h0c.005,0,8.845-.457,19.116-2.15s21.968-4.61,27.744-9.611a.23.23,0,0,0-.3-.348Z" transform="translate(-354.833 -458.837)" fill="#74160d"/>
        <path id="Trazado_1045814" data-name="Trazado 1045814" d="M509.221,472.188a22.544,22.544,0,0,0,15.677,9.819,30.583,30.583,0,0,0,4.739.378,26.226,26.226,0,0,0,15.592-5.026,24.965,24.965,0,0,0,7.191-7.858c.012-.022,0-.046.006-.069a.219.219,0,0,0-.1-.241.23.23,0,0,0-.311.1c-.008.015-.019.033-.027.047a24.574,24.574,0,0,1-7.026,7.653,25.763,25.763,0,0,1-15.322,4.939,30.077,30.077,0,0,1-4.667-.372A22.079,22.079,0,0,1,509.6,471.93a25.441,25.441,0,0,1-2.775-5.4c-.266-.719-.446-1.31-.559-1.721-.057-.205-.1-.366-.122-.474-.005-.024-.008-.035-.012-.053-.016-.066-.024-.109-.024-.109a.23.23,0,0,0-.452.092h0s0,.015,0,.021A24.373,24.373,0,0,0,509.221,472.188Z" transform="translate(-349.751 -396.13)" fill="#74160d"/>
      </g>
    </g>
  </g>
</svg>
