<svg xmlns="http://www.w3.org/2000/svg" xmlns:xlink="http://www.w3.org/1999/xlink" width="294" height="153.969" viewBox="0 0 294 153.969">
  <defs>
    <filter id="Rectángulo_404338" x="59" y="6.969" width="176" height="147" filterUnits="userSpaceOnUse">
      <feOffset dy="3" input="SourceAlpha"/>
      <feGaussianBlur stdDeviation="3" result="blur"/>
      <feFlood flood-opacity="0.161"/>
      <feComposite operator="in" in2="blur"/>
      <feComposite in="SourceGraphic"/>
    </filter>
  </defs>
  <g id="Grupo_1200892" data-name="Grupo 1200892" transform="translate(-1126 -3778.624)">
    <g id="Grupo_1200401" data-name="Grupo 1200401" transform="translate(-89.051 3394.8)">
      <rect id="Rectángulo_404337" data-name="Rectángulo 404337" width="294" height="86" rx="5" transform="translate(1215.051 421.793)" fill="#103d47"/>
      <g transform="matrix(1, 0, 0, 1, 1215.05, 383.82)" filter="url(#Rectángulo_404338)">
        <rect id="Rectángulo_404338-2" data-name="Rectángulo 404338" width="158" height="129" rx="5" transform="translate(68 12.97)" fill="#36ceef"/>
      </g>
    </g>
    <g id="_x31_9" transform="translate(1199.71 3774.961)">
      <g id="Grupo_1200832" data-name="Grupo 1200832" transform="translate(7.027 90.135)">
        <g id="Grupo_1200831" data-name="Grupo 1200831">
          <path id="Trazado_1046279" data-name="Trazado 1046279" d="M136.678,68.659c1.447,6.029.241,15.918-3.618,20.018-3.135,3.377-7.718,3.618-11.818,4.1-3.377.241-3.135,2.171-12.059,2.412-2.894,0-5.788-.482-8.682.241A76.664,76.664,0,0,1,79.519,97.6c-8.682-.482-17.124-3.377-25.083-6.753C46.477,87.712,38.518,85.3,31.283,80.477,23.083,74.93,16.33,67.453,9.818,60.218a13.784,13.784,0,0,1-2.653-3.859c-2.171-4.582,1.688-7.959,6.029-6.753,6.753,1.688,10.13,7.235,22.912,17.606.965-.241,1.206.724,2.171.724-6.753-6.029-13.024-12.059-20.5-17.124a11.354,11.354,0,0,1-3.618-3.135,6.518,6.518,0,0,1-.965-5.547c1.206-2.894,5.065-3.135,7.959-1.929,3.377,1.447,6.029,4.582,6.994,4.582.724,0,.724-.724,1.447-1.206a9.509,9.509,0,0,1,8.682-2.171c3.618.965,6.512,3.859,9.165,6.512-.965-.965,3.618-2.894,4.1-2.894a8.338,8.338,0,0,1,4.824.482c4.1,1.929,7.718,5.065,11.818,7.235a78.424,78.424,0,0,0,22.43,6.994c13.024,1.929,32.8-7.959,41.724.724a15,15,0,0,1,4.341,8.2Z" transform="translate(-6.542 -39.517)" fill="#ffada9"/>
        </g>
      </g>
      <g id="Grupo_1200869" data-name="Grupo 1200869" transform="translate(35.414 7.369)">
        <g id="Grupo_1200868" data-name="Grupo 1200868">
          <g id="Grupo_1200867" data-name="Grupo 1200867">
            <g id="Grupo_1200864" data-name="Grupo 1200864">
              <g id="Grupo_1200863" data-name="Grupo 1200863">
                <g id="Grupo_1200862" data-name="Grupo 1200862">
                  <g id="Grupo_1200861" data-name="Grupo 1200861">
                    <g id="Grupo_1200858" data-name="Grupo 1200858">
                      <g id="Grupo_1200853" data-name="Grupo 1200853">
                        <g id="Grupo_1200850" data-name="Grupo 1200850">
                          <g id="Grupo_1200849" data-name="Grupo 1200849">
                            <g id="Grupo_1200848" data-name="Grupo 1200848">
                              <g id="Grupo_1200847" data-name="Grupo 1200847">
                                <g id="Grupo_1200846" data-name="Grupo 1200846">
                                  <g id="Grupo_1200843" data-name="Grupo 1200843" transform="translate(2.82)">
                                    <g id="Grupo_1200834" data-name="Grupo 1200834" transform="translate(33.497 78.85)">
                                      <g id="Grupo_1200833" data-name="Grupo 1200833">
                                        <path id="Trazado_1046280" data-name="Trazado 1046280" d="M56.838,38.393c-6.753-2.171-13.988,3.135-20.018,7.959-.965.724-2.894,2.412-3.377,2.894a5.948,5.948,0,0,0,4.582,6.512.236.236,0,0,0-.241.241,2.486,2.486,0,0,0,.965,4.582,2.73,2.73,0,0,0,.965,4.824,3.142,3.142,0,0,0,.965,4.341,7.181,7.181,0,0,0,5.065.965A34.39,34.39,0,0,0,63.832,65.4c1.688-1.206,3.859-2.412,4.1-4.341A2.645,2.645,0,0,0,66,58.17l.241-.241a2.412,2.412,0,0,0-1.206-4.1,3.135,3.135,0,0,0-.965-5.547,2.189,2.189,0,0,0,.724-1.688c.965-4.582-3.377-6.994-7.959-8.2Z" transform="translate(-33.369 -37.893)" fill="#fd625d"/>
                                      </g>
                                    </g>
                                    <g id="Grupo_1200836" data-name="Grupo 1200836" transform="translate(38.635 99.127)">
                                      <g id="Grupo_1200835" data-name="Grupo 1200835">
                                        <path id="Trazado_1046281" data-name="Trazado 1046281" d="M62.753,46.3C52.141,53.535,46.594,54.741,35.5,52.812a1.842,1.842,0,0,0,1.206.482,3.142,3.142,0,0,0,.965,4.341,7.181,7.181,0,0,0,5.065.965,34.39,34.39,0,0,0,18.088-5.306c1.688-1.206,3.859-2.412,4.1-4.341A3.071,3.071,0,0,0,62.753,46.3Z" transform="translate(-35.5 -46.3)" fill="#fc4949"/>
                                      </g>
                                    </g>
                                    <g id="Grupo_1200838" data-name="Grupo 1200838" transform="translate(36.721 89.239)">
                                      <g id="Grupo_1200837" data-name="Grupo 1200837">
                                        <path id="Trazado_1046282" data-name="Trazado 1046282" d="M61.944,42.2c-.241,0-.241.241,0,0-7.959,5.547-16.4,7.235-26.047,7.718a2.486,2.486,0,0,0,.965,4.582l-.241.241c7.235,1.206,14.712-2.653,23.877-5.788.724-.241,1.688-.724,2.412-.965,1.929-1.929,1.206-5.065-.965-5.788Z" transform="translate(-34.706 -42.2)" fill="#fc4949"/>
                                      </g>
                                    </g>
                                    <g id="Grupo_1200840" data-name="Grupo 1200840">
                                      <g id="Grupo_1200839" data-name="Grupo 1200839">
                                        <path id="Trazado_1046283" data-name="Trazado 1046283" d="M84.163,73.7c.482,6.271,5.788,14.953-8.2,20.741-8.441,3.618-21.706,6.271-26.289-1.688-3.135-5.065-1.206-7.959-12.059-17.606-3.377-3.135-6.753-5.547-9.647-9.165a38.622,38.622,0,0,1-6.029-37.624C31.827,3.513,67.281-2.034,82.234,15.09a45.136,45.136,0,0,1,6.512,9.647c1.447,2.412,1.929,5.547,2.653,8.2C96.222,53.2,83.44,60.914,84.163,73.7Z" transform="translate(-19.481 -5.199)" fill="#ffd55f"/>
                                      </g>
                                    </g>
                                    <g id="Grupo_1200842" data-name="Grupo 1200842" transform="translate(18.135 0.136)">
                                      <g id="Grupo_1200841" data-name="Grupo 1200841">
                                        <path id="Trazado_1046284" data-name="Trazado 1046284" d="M73.548,73.617c.482,6.271,5.788,14.953-8.2,20.741-8.441,3.618-21.706,6.271-26.289-1.688C35.924,87.605,37.853,84.711,27,75.064c6.994.241,13.988.724,20.741.965a34.172,34.172,0,0,0,9.165-47.512C52.083,21.522,43.4,15.01,44.365,5.363c9.888-.724,20.5,2.171,27.253,9.647a45.136,45.136,0,0,1,6.512,9.647c1.447,2.412,1.929,5.547,2.653,8.2,4.824,20.259-7.959,27.977-7.235,40.759Z" transform="translate(-27 -5.255)" fill="#fcc11a"/>
                                      </g>
                                    </g>
                                  </g>
                                  <g id="Grupo_1200845" data-name="Grupo 1200845" transform="translate(0 5.459)">
                                    <g id="Grupo_1200844" data-name="Grupo 1200844">
                                      <path id="Trazado_1046285" data-name="Trazado 1046285" d="M29.378,63.507a34.582,34.582,0,0,1-10.612-30.63A34.694,34.694,0,0,1,38.784,7.553c.724-.241,1.206,0,1.688.724.241.724,0,1.206-.724,1.688A31.662,31.662,0,0,0,21.178,33.359c-1.688,10.13,2.171,21.465,9.888,28.218a1.166,1.166,0,0,1,0,1.688A1.192,1.192,0,0,1,29.378,63.507Z" transform="translate(-18.312 -7.462)"/>
                                    </g>
                                  </g>
                                </g>
                              </g>
                            </g>
                          </g>
                        </g>
                        <g id="Grupo_1200852" data-name="Grupo 1200852" transform="translate(62.864 42.477)">
                          <g id="Grupo_1200851" data-name="Grupo 1200851">
                            <path id="Trazado_1046286" data-name="Trazado 1046286" d="M49.98,28.331c-2.894,2.412-7.718-2.412-4.582-4.824a3.974,3.974,0,0,1,4.824.241A3.145,3.145,0,0,1,49.98,28.331Z" transform="translate(-44.377 -22.811)" fill="#ffd55f"/>
                          </g>
                        </g>
                      </g>
                      <g id="Grupo_1200855" data-name="Grupo 1200855" transform="translate(34.344 83.291)">
                        <g id="Grupo_1200854" data-name="Grupo 1200854">
                          <path id="Trazado_1046287" data-name="Trazado 1046287" d="M32.91,47.128c-.724-.241-.241-1.447.482-1.206A27.284,27.284,0,0,0,64.5,39.893c.482-.482,1.447.241.965.724A28.1,28.1,0,0,1,32.91,47.128Z" transform="translate(-32.552 -39.734)"/>
                        </g>
                      </g>
                      <g id="Grupo_1200857" data-name="Grupo 1200857" transform="translate(36.345 91.4)">
                        <g id="Grupo_1200856" data-name="Grupo 1200856">
                          <path id="Trazado_1046288" data-name="Trazado 1046288" d="M39.7,62.641a4.5,4.5,0,0,1-1.447-4.824,2.79,2.79,0,0,1-1.206-4.582,2.632,2.632,0,0,1-.482-4.1c-3.377-1.688-3.859-6.271-2.412-6.029.241,0,.482.241.482.724a4.273,4.273,0,0,0,3.377,4.582c.724,0,.724.965,0,1.206A1.814,1.814,0,0,0,36.8,51.305c0,.724.724,1.206,1.447,1.447.724,0,.724.965.241,1.206a1.64,1.64,0,0,0-.965,1.929,2.069,2.069,0,0,0,1.688,1.447c.241,0,.482,0,.482.241V58.3a2.959,2.959,0,0,0,.724,3.859c.724,0,0,.965-.724.482Z" transform="translate(-33.381 -43.096)"/>
                        </g>
                      </g>
                    </g>
                    <g id="Grupo_1200860" data-name="Grupo 1200860" transform="translate(66.538 89.058)">
                      <g id="Grupo_1200859" data-name="Grupo 1200859" transform="translate(0)">
                        <path id="Trazado_1046289" data-name="Trazado 1046289" d="M45.9,42.306Z" transform="translate(-45.9 -42.125)" fill="#fa9990"/>
                      </g>
                    </g>
                  </g>
                </g>
              </g>
            </g>
            <g id="Grupo_1200866" data-name="Grupo 1200866" transform="translate(15.747 11.534)">
              <g id="Grupo_1200865" data-name="Grupo 1200865">
                <path id="Trazado_1046290" data-name="Trazado 1046290" d="M60.678,73.939a128.058,128.058,0,0,1-9.165-31.112,23.976,23.976,0,0,1-8.2,1.929A44.1,44.1,0,0,1,46.69,67.668a1.212,1.212,0,0,1-2.412-.241A42.984,42.984,0,0,0,40.66,44.756a22.188,22.188,0,0,1-13.024-5.788,7.76,7.76,0,0,1-2.653-4.582A4.549,4.549,0,0,1,27.4,29.079c1.929-.965,4.582-.241,6.994,2.171A50.3,50.3,0,0,1,42.349,42.1a18.6,18.6,0,0,0,8.924-1.929,113.181,113.181,0,0,1-.965-22.189c.241-4.824,1.929-7.718,4.824-7.959C63.814,8.82,68.637,32.215,53.684,41.38a126.783,126.783,0,0,0,9.165,31.353c.241.724,0,1.206-.724,1.688-.241.241-.965,0-1.447-.482ZM28.36,31.009a2.289,2.289,0,0,0-.965,2.653c.724,3.135,6.271,7.235,12.059,8.2C37.525,38.727,31.5,29.562,28.36,31.009ZM52.478,17.985a119.529,119.529,0,0,0,.965,20.741c6.994-5.065,9.647-15.435,5.788-23.153-2.412-4.824-6.271-4.582-6.753,2.412Z" transform="translate(-24.841 -9.981)"/>
              </g>
            </g>
          </g>
        </g>
      </g>
      <g id="Grupo_1200871" data-name="Grupo 1200871" transform="translate(6.198 98.149)">
        <g id="Grupo_1200870" data-name="Grupo 1200870">
          <path id="Trazado_1046291" data-name="Trazado 1046291" d="M46.721,67.827C32.974,64.21,24.05,47.327,14.644,45.639c-1.929-.241-3.859,0-5.065,1.206-.965,1.206-1.447,3.135-.482,4.1a1.192,1.192,0,0,1-.241,1.688c-2.171,1.447-4.341-4.341-.724-7.718a7.9,7.9,0,0,1,6.994-1.929C25.5,44.915,34.421,61.8,47.445,65.174,48.892,65.9,48.168,68.31,46.721,67.827Z" transform="translate(-6.198 -42.839)"/>
        </g>
      </g>
      <g id="Grupo_1200873" data-name="Grupo 1200873" transform="translate(13.195 88.766)">
        <g id="Grupo_1200872" data-name="Grupo 1200872">
          <path id="Trazado_1046292" data-name="Trazado 1046292" d="M48.655,62.225c-16.641-8.682-31.595-26.289-36.9-19.294-.724.965-.241,4.341,1.447,6.029,1.206,1.206-.724,2.894-1.688,1.688-2.171-2.171-3.377-6.753-1.447-9.165a7.127,7.127,0,0,1,6.994-2.412C24.537,40.278,36.837,53.06,50.1,60.055a1.384,1.384,0,0,1,.482,1.688,1.3,1.3,0,0,1-1.929.482Z" transform="translate(-9.099 -38.949)"/>
        </g>
      </g>
      <g id="Grupo_1200875" data-name="Grupo 1200875" transform="translate(12.982 112.744)">
        <g id="Grupo_1200874" data-name="Grupo 1200874">
          <path id="Trazado_1046293" data-name="Trazado 1046293" d="M77.962,86.3C70,86.3,60.6,83.16,53.6,80.99,35.032,75.2,19.838,64.589,9.467,50.6a.8.8,0,0,1,0-1.447,1.192,1.192,0,0,1,1.688.241C21.285,62.9,36.238,73.272,54.086,78.819c20.259,6.271,24.118,6.512,47.271,1.929,14.953-3.135,20.018-2.894,25.806-6.271,3.859-2.171,7.235-6.753,6.753-11.577a1.212,1.212,0,0,1,2.412-.241c.724,6.029-3.377,11.335-7.959,13.988-4.824,2.894-10.371,3.618-15.194,4.582C102.08,82.919,89.78,86.537,78.2,86.778l-.241-.482Z" transform="translate(-9.011 -48.891)"/>
        </g>
      </g>
      <g id="Grupo_1200877" data-name="Grupo 1200877" transform="translate(28.129 89.559)">
        <g id="Grupo_1200876" data-name="Grupo 1200876">
          <path id="Trazado_1046294" data-name="Trazado 1046294" d="M52.454,59.832c-17.365-8.441-20.741-16.4-26.771-18.088a8.3,8.3,0,0,0-8.2,2.894,1.206,1.206,0,0,1-1.929-1.447,10.452,10.452,0,0,1,10.612-3.618c6.271,1.688,10.612,10.13,27.253,18.088A1.164,1.164,0,0,1,53.9,59.35C53.9,59.832,53.178,60.073,52.454,59.832Z" transform="translate(-15.291 -39.277)"/>
        </g>
      </g>
      <g id="Grupo_1200879" data-name="Grupo 1200879" transform="translate(47.807 93.828)">
        <g id="Grupo_1200878" data-name="Grupo 1200878">
          <path id="Trazado_1046295" data-name="Trazado 1046295" d="M44.312,50.821C40.936,47.685,30.806,40.209,25.5,45.032a1.194,1.194,0,1,1-1.688-1.688c6.512-6.029,17.124,1.206,21.947,5.788a1.166,1.166,0,0,1,0,1.688C45.518,51.3,44.794,51.3,44.312,50.821Z" transform="translate(-23.45 -41.048)"/>
        </g>
      </g>
      <g id="Grupo_1200881" data-name="Grupo 1200881" transform="translate(56.697 112.019)">
        <g id="Grupo_1200880" data-name="Grupo 1200880">
          <path id="Trazado_1046296" data-name="Trazado 1046296" d="M69.979,49.337c-9.165,1.929-18.571,8.924-40.518,11.094a3.486,3.486,0,0,0-1.688.482c-.965.724-.724,2.412,0,3.618,6.753,11.335,29.183,5.547,44.859,6.994,3.618.241,7.718.965,11.094-.482a10.473,10.473,0,0,0,5.788-9.888c-.241-4.341-3.135-7.718-6.512-10.371-3.377-2.894-9.165-2.412-13.024-1.447Z" transform="translate(-27.136 -48.59)" fill="#ffada9"/>
        </g>
      </g>
      <g id="Grupo_1200883" data-name="Grupo 1200883" transform="translate(54.378 110.807)">
        <g id="Grupo_1200882" data-name="Grupo 1200882">
          <path id="Trazado_1046297" data-name="Trazado 1046297" d="M37.089,75.612c-4.582-.724-10.371-5.306-10.853-10.13-.241-1.688,0-5.065,5.065-7.235a17.117,17.117,0,0,1,6.994-1.206c16.883-1.447,23.394-6.271,32.318-8.2q7.959-1.809,13.747.724c4.824,2.171,7.959,6.753,7.959,11.335a1.206,1.206,0,1,1-2.412,0c0-3.618-2.653-7.477-6.512-9.165-6.753-3.135-14.471-.241-20.983,2.171C43.118,60.9,36.848,58.488,32.265,60.418c-8.2,3.618,0,11.818,5.306,12.541,8.682,1.447,17.124-3.618,26.047-.965a1.144,1.144,0,0,1-.724,2.171c-7.959-1.929-17.365,2.653-25.806,1.447Z" transform="translate(-26.175 -48.087)"/>
        </g>
      </g>
      <g id="Grupo_1200885" data-name="Grupo 1200885" transform="translate(100.655 3.662)">
        <g id="Grupo_1200884" data-name="Grupo 1200884">
          <path id="Trazado_1046298" data-name="Trazado 1046298" d="M46.176,13.159a1.075,1.075,0,0,1-.724-1.447l2.412-7.235a1.144,1.144,0,0,1,2.171.724l-2.412,7.235C47.382,12.918,46.659,13.4,46.176,13.159Z" transform="translate(-45.362 -3.662)" fill="#ffd55f"/>
        </g>
      </g>
      <g id="Grupo_1200887" data-name="Grupo 1200887" transform="translate(109.648 9.397)">
        <g id="Grupo_1200886" data-name="Grupo 1200886">
          <path id="Trazado_1046299" data-name="Trazado 1046299" d="M49.6,15.832a1.192,1.192,0,0,1-.241-1.688L54.9,6.667a1.512,1.512,0,0,1,1.929-.482,1.192,1.192,0,0,1,.241,1.688L51.283,15.59a1.125,1.125,0,0,1-1.688.241Z" transform="translate(-49.091 -6.04)" fill="#ffd55f"/>
        </g>
      </g>
      <g id="Grupo_1200889" data-name="Grupo 1200889" transform="translate(114.101 22.985)">
        <g id="Grupo_1200888" data-name="Grupo 1200888">
          <path id="Trazado_1046300" data-name="Trazado 1046300" d="M51.811,13.666l7.959-1.929c.724-.241,1.206.241,1.447.965s-.241,1.206-.965,1.447l-7.959,1.929c-1.447.241-1.929-2.171-.482-2.412Z" transform="translate(-50.938 -11.674)" fill="#ffd55f"/>
        </g>
      </g>
      <g id="Grupo_1200891" data-name="Grupo 1200891" transform="translate(87.868 13.096)">
        <g id="Grupo_1200890" data-name="Grupo 1200890">
          <path id="Trazado_1046301" data-name="Trazado 1046301" d="M55.35,33.443c.241,1.688.482,3.618,0,4.582-.482.724-1.447,1.206-2.171.482C51.732,37.06,51.009,22.59,42.809,14.148c-.724-.965-1.688-1.688-2.412-2.653a3.4,3.4,0,0,1,.241-3.377c3.135-3.135,8.682,8.2,9.888,10.13A43.048,43.048,0,0,1,55.35,33.443Z" transform="translate(-40.061 -7.574)" fill="#ffd55f"/>
        </g>
      </g>
    </g>
  </g>
</svg>
