<svg xmlns="http://www.w3.org/2000/svg" xmlns:xlink="http://www.w3.org/1999/xlink" width="113" height="113" viewBox="0 0 113 113">
  <defs>
    <filter id="Trazado_982547" x="0" y="0" width="113" height="113" filterUnits="userSpaceOnUse">
      <feOffset dy="3" input="SourceAlpha"/>
      <feGaussianBlur stdDeviation="3" result="blur"/>
      <feFlood flood-opacity="0.161"/>
      <feComposite operator="in" in2="blur"/>
      <feComposite in="SourceGraphic"/>
    </filter>
  </defs>
  <g id="Grupo_1200736" data-name="Grupo 1200736" transform="translate(-155 -5639)">
    <g id="Grupo_1200342" data-name="Grupo 1200342" transform="translate(0 606)">
      <g id="Grupo_1185978" data-name="Grupo 1185978" transform="translate(164 5039)">
        <g id="Grupo_1180760" data-name="Grupo 1180760">
          <g id="Grupo_1174888" data-name="Grupo 1174888">
            <g id="Grupo_1166845" data-name="Grupo 1166845">
              <g id="Grupo_1166720" data-name="Grupo 1166720">
                <g id="Grupo_1164305" data-name="Grupo 1164305">
                  <g id="Grupo_1163948" data-name="Grupo 1163948">
                    <g id="Grupo_1158168" data-name="Grupo 1158168">
                      <g id="Grupo_1152576" data-name="Grupo 1152576">
                        <g id="Grupo_1148633" data-name="Grupo 1148633">
                          <g id="Grupo_1148525" data-name="Grupo 1148525">
                            <g transform="matrix(1, 0, 0, 1, -9, -6)" filter="url(#Trazado_982547)">
                              <g id="Trazado_982547-2" data-name="Trazado 982547" transform="translate(9 6)" fill="#f2f7e5">
                                <path d="M 47.5 93.5 C 41.28937149047852 93.5 35.26533508300781 92.28397369384766 29.59518623352051 89.88570404052734 C 24.11771965026855 87.56893157958984 19.19813346862793 84.25196075439453 14.97309303283691 80.02691650390625 C 10.74804019927979 75.80186462402344 7.431066513061523 70.88229370117188 5.114293098449707 65.40481567382812 C 2.716026782989502 59.73468017578125 1.5 53.71062850952148 1.5 47.5 C 1.5 41.28937149047852 2.716026782989502 35.26533508300781 5.114293098449707 29.59518623352051 C 7.431066513061523 24.11771965026855 10.74804019927979 19.19813346862793 14.97309303283691 14.97309303283691 C 19.19813346862793 10.74804019927979 24.11771965026855 7.431066513061523 29.59518623352051 5.114293098449707 C 35.26533508300781 2.716026782989502 41.28937149047852 1.5 47.5 1.5 C 53.71062850952148 1.5 59.73468017578125 2.716026782989502 65.40481567382812 5.114293098449707 C 70.88229370117188 7.431066513061523 75.80186462402344 10.74804019927979 80.02691650390625 14.97309303283691 C 84.25196075439453 19.19813346862793 87.56893157958984 24.11771965026855 89.88570404052734 29.59518623352051 C 92.28397369384766 35.26533508300781 93.5 41.28937149047852 93.5 47.5 C 93.5 53.71062850952148 92.28397369384766 59.73468017578125 89.88570404052734 65.40481567382812 C 87.56893157958984 70.88229370117188 84.25196075439453 75.80186462402344 80.02691650390625 80.02691650390625 C 75.80186462402344 84.25196075439453 70.88229370117188 87.56893157958984 65.40481567382812 89.88570404052734 C 59.73468017578125 92.28397369384766 53.71062850952148 93.5 47.5 93.5 Z" stroke="none"/>
                                <path d="M 47.5 3 C 41.49121475219727 3 35.66376876831055 4.176155090332031 30.17950439453125 6.495796203613281 C 24.88084411621094 8.736953735351562 20.12152099609375 11.94598388671875 16.03375244140625 16.03375244140625 C 11.94598388671875 20.12152099609375 8.736953735351562 24.88084411621094 6.495796203613281 30.17950439453125 C 4.176155090332031 35.66376876831055 3 41.49121475219727 3 47.5 C 3 53.50878524780273 4.176155090332031 59.33623123168945 6.495796203613281 64.82049560546875 C 8.736953735351562 70.11915588378906 11.94598388671875 74.87847900390625 16.03375244140625 78.96624755859375 C 20.12152099609375 83.05401611328125 24.88084411621094 86.26304626464844 30.17950439453125 88.50419616699219 C 35.66376876831055 90.82384490966797 41.49121475219727 92 47.5 92 C 53.50878524780273 92 59.33623123168945 90.82384490966797 64.82049560546875 88.50419616699219 C 70.11915588378906 86.26304626464844 74.87847900390625 83.05401611328125 78.96624755859375 78.96624755859375 C 83.05401611328125 74.87847900390625 86.26304626464844 70.11915588378906 88.50419616699219 64.82049560546875 C 90.82384490966797 59.33623123168945 92 53.50878524780273 92 47.5 C 92 41.49121475219727 90.82384490966797 35.66376876831055 88.50419616699219 30.17950439453125 C 86.26304626464844 24.88084411621094 83.05401611328125 20.12152099609375 78.96624755859375 16.03375244140625 C 74.87847900390625 11.94598388671875 70.11915588378906 8.736953735351562 64.82049560546875 6.495796203613281 C 59.33623123168945 4.176155090332031 53.50878524780273 3 47.5 3 M 47.5 0 C 73.7335205078125 0 95 21.2664794921875 95 47.5 C 95 73.7335205078125 73.7335205078125 95 47.5 95 C 21.2664794921875 95 0 73.7335205078125 0 47.5 C 0 21.2664794921875 21.2664794921875 0 47.5 0 Z" stroke="none" fill="#496406"/>
                              </g>
                            </g>
                          </g>
                        </g>
                      </g>
                    </g>
                  </g>
                </g>
              </g>
            </g>
          </g>
        </g>
      </g>
    </g>
    <g id="iniciativas-de-rse" transform="translate(150.346 5645.898)">
      <path id="Trazado_1046030" data-name="Trazado 1046030" d="M50.5,53.254a19.558,19.558,0,0,1-1.789-2.8q-.413-.787-.756-1.617-.148.124-.313.237a5.853,5.853,0,0,1-6.219,0,3.219,3.219,0,0,1-1.332-1.74h-.534a2.256,2.256,0,0,1-2.2-1.443,2.565,2.565,0,0,1,0-1.908,2.368,2.368,0,0,1,.47-.743,2.366,2.366,0,0,1-.47-.743,2.564,2.564,0,0,1,0-1.908,2.387,2.387,0,0,1,.418-.686q-.06-.046-.118-.094a2.489,2.489,0,0,1-.93-1.906c0-.124.006-.493.011-.854.028-1.815.051-3.26-1.419-4.807a9.724,9.724,0,0,1-1.943-2.954,8.708,8.708,0,0,1-.675-3.357c0-4.782,3.077-7.829,7.023-9.156a15.368,15.368,0,0,1,9.548.008c3.525,1.187,6.37,3.734,6.972,7.638A19.573,19.573,0,0,1,81.6,53.255a6.088,6.088,0,0,1,.592.888,4.711,4.711,0,0,1,4.794-.368,5.025,5.025,0,0,1,1.468,1.054,4.26,4.26,0,0,1,.942,1.495,3.605,3.605,0,0,1-1.2,4.074L74.413,72.675l0,0c-1.457,1.33-4.275,2.371-7.23,3.024-3.414.754-7.062,1.006-9,.591L48.077,74.117,44.2,74.053l-.037,1.686A1.425,1.425,0,0,1,43.65,76.8a1.654,1.654,0,0,1-1.092.382c-2.645-.044-5.3-.068-7.942-.133a1.645,1.645,0,0,1-1.072-.419,1.416,1.416,0,0,1-.475-1.076c.114-6.165.268-12.332.4-18.5A1.425,1.425,0,0,1,33.989,56a1.655,1.655,0,0,1,1.092-.382c2.645.044,5.3.068,7.942.133a1.645,1.645,0,0,1,1.072.419,1.417,1.417,0,0,1,.475,1.076c-.01.512-.022,1.023-.033,1.535l3.794.063q.434-.176.838-.334V57.021A6.008,6.008,0,0,1,50.5,53.254Z" fill-rule="evenodd"/>
      <path id="Trazado_1046031" data-name="Trazado 1046031" d="M308.454,86.049a4.894,4.894,0,0,0-.51.268,2.794,2.794,0,0,1-.83.365,2.215,2.215,0,0,0-.718.261,1.6,1.6,0,0,0-.487.424,1.749,1.749,0,0,0-.247.66c-.02.085-.04.172-.074.3a5.065,5.065,0,0,1-.337.913,3.344,3.344,0,0,1-.49.748,4.487,4.487,0,0,1-.807.682l-.106.076c.346-.02.748-.061,1.085-.1l.1-.01c.408-.042.695-.069.9-.085s.43-.029.667-.037a4.969,4.969,0,0,1,.716.014,3.016,3.016,0,0,1,.862.217h0a3.994,3.994,0,0,1,.841.5,3.583,3.583,0,0,1,.687.672,1.959,1.959,0,0,1,.356.743,1.469,1.469,0,0,1-.051.847,1.265,1.265,0,0,1-.5.633,1.945,1.945,0,0,1-.745.277c-.23.041-.5.061-.812.084h0c-.3.022-.637.047-.989.1-.465.066-1,.185-1.551.3-.2.045-.411.09-.786.166-.391.08-.125.027-.235.049a4.081,4.081,0,0,0-1.642.553,2.251,2.251,0,0,0-.482.545,4.148,4.148,0,0,0-.426.87,2.5,2.5,0,0,0-.139.623c-.01.093-.02.179-.039.277-.012.063-.028.129-.045.2a1.135,1.135,0,0,0-.034.527,3.322,3.322,0,0,0,.2.617,8.727,8.727,0,0,0,.435.877,4.39,4.39,0,0,0,.453.679,1.029,1.029,0,0,0,.368.3,2.339,2.339,0,0,0,1.066-.022l.12-.019a4.136,4.136,0,0,1,.753-.066,1.318,1.318,0,0,1,.855.3,1.47,1.47,0,0,1,.435.724,4.117,4.117,0,0,1,.117.59l.006.042a2.634,2.634,0,0,0,.157.676c.053.129.152.325.264.548.1.2.211.419.338.7a5.894,5.894,0,0,1,.359.967,3.1,3.1,0,0,1,.087,1.213,2.113,2.113,0,0,1-.308.847,1.258,1.258,0,0,0-.189.691.635.635,0,0,0,.008.118.624.624,0,0,0,.261.4,1.065,1.065,0,0,0,.406.178,3.721,3.721,0,0,1,3.72-3.639h.02c.017-.168.031-.336.044-.5a8.313,8.313,0,0,1,.167-1.259,10.2,10.2,0,0,1,.676-1.822c.07-.156.136-.3.212-.488a3.814,3.814,0,0,0,.22-.655.606.606,0,0,0,.017-.238.756.756,0,0,0-.045-.112,1.073,1.073,0,0,1,.074-1.28,4.615,4.615,0,0,1,.648-.67,5.024,5.024,0,0,0,.67-.693,1.2,1.2,0,0,0,.2-.469,2.543,2.543,0,0,0,.031-.474c0-1.028,0-1.495,1.338-.98a4.836,4.836,0,0,1,1.133.659,5.661,5.661,0,0,1,.957.93,1.373,1.373,0,0,0,.323.291,18.221,18.221,0,0,0-9.736-11.615Z" transform="translate(-234.61 -61.105)" fill="#337a2e" fill-rule="evenodd"/>
      <path id="Trazado_1046032" data-name="Trazado 1046032" d="M307.731,89.08a2.135,2.135,0,0,1-.618.246,2.215,2.215,0,0,0-.718.261,1.6,1.6,0,0,0-.487.424,1.749,1.749,0,0,0-.247.66c-.02.085-.04.172-.074.3a5.065,5.065,0,0,1-.337.913,3.344,3.344,0,0,1-.49.748,4.487,4.487,0,0,1-.807.682l-.106.076c.346-.02.748-.061,1.085-.1l.1-.01c.408-.042.695-.069.9-.085s.43-.029.667-.037a4.969,4.969,0,0,1,.716.014,3.016,3.016,0,0,1,.862.217h0a3.994,3.994,0,0,1,.841.5,3.583,3.583,0,0,1,.687.672,1.959,1.959,0,0,1,.356.743,1.469,1.469,0,0,1-.051.847,1.265,1.265,0,0,1-.5.633,1.945,1.945,0,0,1-.745.277c-.23.041-.5.061-.812.084h0c-.3.022-.637.047-.989.1-.465.066-1,.185-1.551.3-.2.045-.411.09-.786.166-.391.08-.125.027-.235.049a4.081,4.081,0,0,0-1.642.553,2.251,2.251,0,0,0-.482.545,4.148,4.148,0,0,0-.426.87,2.5,2.5,0,0,0-.139.623c-.01.093-.02.179-.039.277-.012.063-.028.129-.045.2a1.135,1.135,0,0,0-.034.527,3.322,3.322,0,0,0,.2.617,8.727,8.727,0,0,0,.435.877,4.39,4.39,0,0,0,.453.679,1.029,1.029,0,0,0,.368.3,2.339,2.339,0,0,0,1.066-.022l.12-.019a4.136,4.136,0,0,1,.753-.066,1.318,1.318,0,0,1,.855.3,1.47,1.47,0,0,1,.435.724,4.117,4.117,0,0,1,.117.59l.006.042a2.634,2.634,0,0,0,.157.676c.053.129.152.325.264.548.1.2.211.419.338.7a5.894,5.894,0,0,1,.359.967,3.1,3.1,0,0,1,.087,1.213,2.113,2.113,0,0,1-.308.847,1.258,1.258,0,0,0-.189.691.635.635,0,0,0,.008.118.624.624,0,0,0,.261.4,1.065,1.065,0,0,0,.406.178,3.721,3.721,0,0,1,3.72-3.639h.02c.017-.168.031-.336.044-.5a8.313,8.313,0,0,1,.167-1.259,10.2,10.2,0,0,1,.676-1.822c.07-.156.136-.3.212-.488q.044-.106.08-.2a29.1,29.1,0,0,0-4.973-14.719Z" transform="translate(-234.61 -63.75)" fill="#4caa46" fill-rule="evenodd"/>
      <path id="Trazado_1046033" data-name="Trazado 1046033" d="M231.527,98.492h-.037a2.549,2.549,0,0,1-1.444-.475,1.984,1.984,0,0,1-.838-1.675,2.455,2.455,0,0,1,.369-1.347.944.944,0,0,0,.138-.349,1.734,1.734,0,0,0-.055-.671,4.572,4.572,0,0,0-.277-.737c-.1-.215-.213-.442-.316-.647-.116-.23-.218-.432-.308-.652a3.673,3.673,0,0,1-.25-1l-.006-.042a3.092,3.092,0,0,0-.073-.393.08.08,0,0,1,0-.023,3.12,3.12,0,0,0-.485.05l-.114.019a3.313,3.313,0,0,1-1.81-.06,2.385,2.385,0,0,1-.91-.694,5.767,5.767,0,0,1-.6-.9A10.143,10.143,0,0,1,224,87.873a4.733,4.733,0,0,1-.291-.9,2.33,2.33,0,0,1,.05-1.124c.01-.043.021-.083.029-.126s.016-.106.023-.168a3.739,3.739,0,0,1,.211-.935,5.57,5.57,0,0,1,.579-1.171,3.64,3.64,0,0,1,.794-.884,5.038,5.038,0,0,1,2.227-.821c.263-.052-.013,0,.224-.043.141-.029.455-.1.769-.166.561-.123,1.116-.244,1.649-.32.4-.058.767-.085,1.085-.109.265-.02.5-.037.67-.068a.993.993,0,0,0,.187-.047c0-.007,0-.015,0-.024a.582.582,0,0,0-.11-.212,2.162,2.162,0,0,0-.414-.4,2.555,2.555,0,0,0-.54-.317h0a1.633,1.633,0,0,0-.466-.118,3.7,3.7,0,0,0-.525-.008c-.168.006-.355.017-.612.037s-.543.046-.867.079l-.1.011a7.145,7.145,0,0,1-2.433,0,1.071,1.071,0,0,1-.438-.283v0a.915.915,0,0,1-.242-.537v0a1.061,1.061,0,0,1,.06-.468,2.09,2.09,0,0,1,.564-.777,5.566,5.566,0,0,1,.558-.436,3.481,3.481,0,0,0,.572-.469,1.959,1.959,0,0,0,.282-.436,3.664,3.664,0,0,0,.238-.655c.018-.067.041-.166.063-.262a2.834,2.834,0,0,1,.482-1.169,3,3,0,0,1,.908-.807,3.566,3.566,0,0,1,1.038-.4,18.143,18.143,0,0,0-6.07-1.038q-.333,0-.663.012a5.416,5.416,0,0,1,.6.351l.005,0,.02.014.005.005a1.508,1.508,0,0,1,.677,1.3,2.343,2.343,0,0,1-.467,1.279l-.042.059a4.862,4.862,0,0,1-1.144,1.113,3.281,3.281,0,0,1-1.357.577,3.192,3.192,0,0,1-1.95-.468c-.132-.065-.261-.129-.381-.18a1.89,1.89,0,0,0-.629-.167.4.4,0,0,0-.138.006.439.439,0,0,0-.057.175,2.636,2.636,0,0,0-.029.638c0,.052.014.181.024.31a2.667,2.667,0,0,1-.224,1.663,3.523,3.523,0,0,1-.926.957,6.926,6.926,0,0,0-.616.539,8.839,8.839,0,0,0-.855,1.109c-.176.254-.345.5-.5.7a8.583,8.583,0,0,1-.853.915c-.123.118-.238.229-.341.342a1.934,1.934,0,0,0-.286.39,1.112,1.112,0,0,0-.122.372,1.767,1.767,0,0,0,.008.472,3.606,3.606,0,0,0,.156.649,5.093,5.093,0,0,0,.258.625,5.739,5.739,0,0,0,.354.616,4.011,4.011,0,0,0,.4.53,3.55,3.55,0,0,0,.551.48c.15.107.324.217.5.331a5.55,5.55,0,0,1,2.124,2.015,7.675,7.675,0,0,0,.709.932,4.712,4.712,0,0,1,.787,1.185,3.013,3.013,0,0,0,.369.6,2.572,2.572,0,0,1,.449,2.311A8.988,8.988,0,0,1,219.851,97a4.252,4.252,0,0,1-1.588,1.715,5.93,5.93,0,0,1-2.082.817q-.108.129-.227.248a3.737,3.737,0,0,1-.786.6,6.092,6.092,0,0,1,3.564,3.085,6.09,6.09,0,0,1,3.576-3.089,3.718,3.718,0,1,1,3.7,0,6.092,6.092,0,0,1,3.564,3.084,6.09,6.09,0,0,1,3.576-3.089,3.736,3.736,0,0,1-1.619-1.885Z" transform="translate(-158.103 -49.108)" fill="#65ade0" fill-rule="evenodd"/>
      <path id="Trazado_1046034" data-name="Trazado 1046034" d="M327.907,214.612c-.016-.014-.006,0,0,.012C327.912,214.62,327.912,214.617,327.907,214.612Z" transform="translate(-257.582 -173.279)" fill="#ccc" fill-rule="evenodd"/>
      <path id="Trazado_1046035" data-name="Trazado 1046035" d="M396.138,176.815l-.1-.031a2.982,2.982,0,0,1-1.677-1.029,4.234,4.234,0,0,0-.716-.695c-.09-.069-.176-.13-.258-.184-.006.043-.014.086-.022.132a2.572,2.572,0,0,1-.429,1.011,6.144,6.144,0,0,1-.873.917c-.152.14-.294.269-.382.368a1.833,1.833,0,0,1,.12.326,1.914,1.914,0,0,1-.006.857,5.09,5.09,0,0,1-.3.912c-.054.13-.139.32-.229.521a9.115,9.115,0,0,0-.588,1.565,7.364,7.364,0,0,0-.134,1.057c-.017.212-.034.429-.062.662a3.723,3.723,0,0,1,.446,6.683,6.053,6.053,0,0,1,1.632.823q.115.082.226.168a18.226,18.226,0,0,0,3.351-14.062Z" transform="translate(-312.19 -138.612)" fill="#4394cf" fill-rule="evenodd"/>
      <path id="Trazado_1046036" data-name="Trazado 1046036" d="M186.187,88.941l.07.042c.166.1.333.211.5.333a7.31,7.31,0,0,1,.977.866,5.72,5.72,0,0,1,.752.972,2.99,2.99,0,0,1,.422,1.975c-.022.191-.058.375-.094.567a4.395,4.395,0,0,0-.112,1.029,3.417,3.417,0,0,0,.083.583c.008.036.016.071.025.107q.16-.014.324-.014a3.724,3.724,0,0,1,3.66,4.4,4.278,4.278,0,0,0,.53-.286,2.864,2.864,0,0,0,1.074-1.135,7.846,7.846,0,0,0,.621-1.631,1.3,1.3,0,0,0-.143-1.118,4.133,4.133,0,0,1-.549-.877,3.516,3.516,0,0,0-.568-.867,8.76,8.76,0,0,1-.841-1.1,6.122,6.122,0,0,0-.614-.807,6.06,6.06,0,0,0-1.1-.814c-.2-.126-.392-.248-.57-.375a4.93,4.93,0,0,1-.765-.671,5.333,5.333,0,0,1-.552-.711,7.1,7.1,0,0,1-.436-.769,6.528,6.528,0,0,1-.329-.8,5.008,5.008,0,0,1-.216-.9,3.149,3.149,0,0,1-.008-.849,2.479,2.479,0,0,1,.27-.832,3.308,3.308,0,0,1,.488-.68c.122-.133.259-.266.407-.408a7.311,7.311,0,0,0,.722-.773c.156-.2.3-.409.452-.626a9.907,9.907,0,0,1,1-1.29,7.984,7.984,0,0,1,.742-.654,2.736,2.736,0,0,0,.587-.557,1.777,1.777,0,0,0,.044-.858c-.008-.091-.015-.184-.024-.354a3.956,3.956,0,0,1,.057-.988,1.642,1.642,0,0,1,.544-.98,1.562,1.562,0,0,1,1.073-.318,3.271,3.271,0,0,1,1.121.277c.154.065.3.138.452.213a2.155,2.155,0,0,0,1.135.336,1.9,1.9,0,0,0,.761-.342,3.411,3.411,0,0,0,.8-.779l.026-.037a1.031,1.031,0,0,0,.22-.5.184.184,0,0,0-.091-.143h0l-.02-.014h0a9,9,0,0,0-1.09-.568c-.414-.2-.862-.408-1.3-.653a18.044,18.044,0,0,0-6.443,2.5v.009a8.71,8.71,0,0,1-.675,3.357,9.73,9.73,0,0,1-1.943,2.954c-1.528,1.61-1.507,2.9-1.478,4.717.005.329.011.67.012.838Z" transform="translate(-133.913 -51.081)" fill="#4caa46" fill-rule="evenodd"/>
      <path id="Trazado_1046037" data-name="Trazado 1046037" d="M164.659,203.754q-.024-.09-.044-.18a4.818,4.818,0,0,1-.116-.829,5.486,5.486,0,0,1,.134-1.351c.031-.162.061-.319.078-.463a1.6,1.6,0,0,0-.236-1.105,4.306,4.306,0,0,0-.566-.726,5.885,5.885,0,0,0-.786-.7q-.081-.06-.163-.115a2.765,2.765,0,0,1-.51.563l-.064.053a2.368,2.368,0,0,1,.455.727,2.564,2.564,0,0,1,0,1.908,2.367,2.367,0,0,1-.47.743,2.366,2.366,0,0,1,.47.743,2.565,2.565,0,0,1,0,1.908,2.256,2.256,0,0,1-2.2,1.443h-.566q-.021.074-.046.146A18.184,18.184,0,0,0,162.6,211.3a6.043,6.043,0,0,1,1.871-.995,3.723,3.723,0,0,1,.184-6.555Z" transform="translate(-111.106 -159.041)" fill="#65ade0" fill-rule="evenodd"/>
      <path id="Trazado_1046038" data-name="Trazado 1046038" d="M108.442,261.795l-.014-.045h-5.791a2.2,2.2,0,0,0,.6.585,4.482,4.482,0,0,0,4.643,0A2.243,2.243,0,0,0,108.442,261.795Z" transform="translate(-61.026 -214.415)" fill="#ccc" fill-rule="evenodd"/>
      <path id="Trazado_1046039" data-name="Trazado 1046039" d="M123.239,337.465l3.94.066a.7.7,0,0,1,.134.015h0l10.167,2.184a23.691,23.691,0,0,0,8.4-.586c2.752-.608,5.338-1.543,6.6-2.7l.007-.006,0,0,13.778-12.277a2.285,2.285,0,0,0,.819-2.558,2.856,2.856,0,0,0-.635-1,3.617,3.617,0,0,0-1.057-.758,3.362,3.362,0,0,0-3.768.544l-7.264,6.454a3.2,3.2,0,0,1-.367,1.277,3.561,3.561,0,0,1-3.39,1.779l-8.962-.15a.7.7,0,0,1,.022-1.4l8.962.15a2.225,2.225,0,0,0,2.137-1.04,1.8,1.8,0,0,0,.209-.785q0-.047,0-.094a.7.7,0,0,1,0-.075,1.878,1.878,0,0,0-.155-.648,2.322,2.322,0,0,0-2.126-1.266l-.136-.008h0a.7.7,0,0,1-.09-.006l-.062,0h0a.716.716,0,0,1-.091-.006l-8.271-.51a.7.7,0,0,1-.108-.015c-.615-.116-1.009-.191-1.377-.262l-.923-.176a.7.7,0,0,1-.082-.016l-.075-.014a.717.717,0,0,1-.08-.015c-4.016-.753-5.691-.857-10.238.873l-.049.018c-.428.163-.881.343-1.364.539a.694.694,0,0,1-.326.048l-3.9-.065-.272,12.485Z" transform="translate(-79.004 -264.807)" fill="#eec3a1" fill-rule="evenodd"/>
      <path id="Trazado_1046040" data-name="Trazado 1046040" d="M145.907,354.1l-3.963-.066a.7.7,0,0,1,.022-1.4l5.606.094a29.443,29.443,0,0,0,3.622-3.833q-.1-.011-.2-.018l-.136-.008h0a.7.7,0,0,1-.09-.006l-.062,0h0a.717.717,0,0,1-.091-.006l-8.271-.51a.707.707,0,0,1-.108-.015c-.615-.116-1.009-.191-1.377-.262l-.923-.176a.7.7,0,0,1-.082-.016l-.075-.014a.716.716,0,0,1-.08-.015c-4.016-.753-5.691-.857-10.238.873l-.049.018c-.428.163-.881.343-1.364.539a.7.7,0,0,1-.326.048l-3.9-.065-.227,10.448a29.461,29.461,0,0,0,4.605.362,29.127,29.127,0,0,0,17.714-5.972Z" transform="translate(-79.308 -289.094)" fill="#fad4b6" fill-rule="evenodd"/>
      <path id="Trazado_1046041" data-name="Trazado 1046041" d="M172.948,306.945a14.828,14.828,0,0,1,9.28-.741v-.218a4.64,4.64,0,0,0-9.28,0v.959Z" transform="translate(-122.378 -248.965)" fill="#66b8de" fill-rule="evenodd"/>
      <path id="Trazado_1046042" data-name="Trazado 1046042" d="M257.989,306.5l.4.076,1.349.258,7.536.465v-1.308a4.64,4.64,0,0,0-9.28,0Z" transform="translate(-196.582 -248.966)" fill="#66b8de" fill-rule="evenodd"/>
      <path id="Trazado_1046043" data-name="Trazado 1046043" d="M343.028,307.413a3.579,3.579,0,0,1,2.813,1.983l6.035-5.362a4.7,4.7,0,0,0-1.532-1.833,4.643,4.643,0,0,0-7.316,3.786v1.426Z" transform="translate(-270.784 -248.966)" fill="#4a8aa8" fill-rule="evenodd"/>
      <path id="Trazado_1046044" data-name="Trazado 1046044" d="M343.029,307.853a4.562,4.562,0,0,1,.563.124,29.2,29.2,0,0,0,3.309-6.126,4.661,4.661,0,0,0-3.872,4.576v1.426Z" transform="translate(-270.784 -249.406)" fill="#66b8de" fill-rule="evenodd"/>
      <path id="Trazado_1046045" data-name="Trazado 1046045" d="M55.231,340.108l.049-2.229-.021-.02a.242.242,0,0,0-.158-.058l-7.936-.133a.253.253,0,0,0-.168.053.185.185,0,0,0-.025.023l-.4,18.492.021.02a.241.241,0,0,0,.158.058l7.936.133a.253.253,0,0,0,.168-.053.183.183,0,0,0,.026-.024l.354-16.262Z" transform="translate(-12.104 -280.659)" fill="#5296c7" fill-rule="evenodd"/>
      <path id="Trazado_1046046" data-name="Trazado 1046046" d="M56.466,340.108l.049-2.229-.021-.02a.242.242,0,0,0-.158-.058l-7.936-.133a.253.253,0,0,0-.168.053.185.185,0,0,0-.025.023l-.222,10.2a29.08,29.08,0,0,0,8.244,3.08l.238-10.917Z" transform="translate(-13.339 -280.659)" fill="#6db2e3" fill-rule="evenodd"/>
      <path id="Trazado_1046047" data-name="Trazado 1046047" d="M79.758,235.121a.912.912,0,0,0-.9.562,1.217,1.217,0,0,0,0,.868.913.913,0,0,0,.9.562h9.983a.912.912,0,0,0,.9-.562,1.217,1.217,0,0,0,0-.868.912.912,0,0,0-.9-.562Z" transform="translate(-40.206 -191.18)" fill="#ccc" fill-rule="evenodd"/>
      <path id="Trazado_1046048" data-name="Trazado 1046048" d="M89.742,208.458a.713.713,0,0,1-.084-.005q-.092,0-.185.005H79.938l-.122,0-.056,0a.912.912,0,0,0-.9.562,1.217,1.217,0,0,0,0,.868.912.912,0,0,0,.9.562h9.983a.912.912,0,0,0,.9-.562,1.217,1.217,0,0,0,0-.868.912.912,0,0,0-.9-.562Z" transform="translate(-40.207 -167.91)" fill="#ccc" fill-rule="evenodd"/>
      <path id="Trazado_1046049" data-name="Trazado 1046049" d="M60.038,48.3a1.109,1.109,0,0,0,.426-.839c0-.463,0-.666-.006-.861-.034-2.149-.059-3.68,1.861-5.7a8.328,8.328,0,0,0,1.664-2.527,7.317,7.317,0,0,0,.566-2.82c0-4.094-2.692-6.727-6.132-7.885a13.951,13.951,0,0,0-8.662-.008c-3.408,1.146-6.066,3.755-6.066,7.832a7.314,7.314,0,0,0,.566,2.82,8.324,8.324,0,0,0,1.664,2.527c1.861,1.961,1.835,3.656,1.8,5.787,0,.187-.006.38-.006.838a1.109,1.109,0,0,0,.426.839,1.834,1.834,0,0,0,1.181.4h9.535a1.834,1.834,0,0,0,1.181-.4Z" transform="translate(-9.591 -9.555)" fill="#ffd065" fill-rule="evenodd"/>
      <path id="Trazado_1046050" data-name="Trazado 1046050" d="M365.272,249.762a2.321,2.321,0,1,0,.68,1.641A2.313,2.313,0,0,0,365.272,249.762Z" transform="translate(-286.737 -203.362)" fill="#4a8aa8" fill-rule="evenodd"/>
      <g id="Grupo_1200735" data-name="Grupo 1200735" transform="translate(52.9 45.721)">
        <path id="Trazado_1046051" data-name="Trazado 1046051" d="M364.578,249.284a2.321,2.321,0,1,0-1,4.439,29.079,29.079,0,0,0,1-4.439Z" transform="translate(-339.637 -249.083)" fill="#66b8de" fill-rule="evenodd"/>
        <path id="Trazado_1046052" data-name="Trazado 1046052" d="M280.233,249.762a2.321,2.321,0,1,0,.68,1.641A2.313,2.313,0,0,0,280.233,249.762Z" transform="translate(-265.435 -249.083)" fill="#66b8de" fill-rule="evenodd"/>
        <path id="Trazado_1046053" data-name="Trazado 1046053" d="M195.193,249.762a2.321,2.321,0,1,0,.68,1.641A2.313,2.313,0,0,0,195.193,249.762Z" transform="translate(-191.232 -249.083)" fill="#66b8de" fill-rule="evenodd"/>
      </g>
    </g>
  </g>
</svg>
