<svg xmlns="http://www.w3.org/2000/svg" xmlns:xlink="http://www.w3.org/1999/xlink" width="118" height="118" viewBox="0 0 118 118">
  <defs>
    <filter id="Trazado_982547" x="0" y="0" width="118" height="118" filterUnits="userSpaceOnUse">
      <feOffset dy="3" input="SourceAlpha"/>
      <feGaussianBlur stdDeviation="3" result="blur"/>
      <feFlood flood-opacity="0.161"/>
      <feComposite operator="in" in2="blur"/>
      <feComposite in="SourceGraphic"/>
    </filter>
  </defs>
  <g id="Grupo_1200723" data-name="Grupo 1200723" transform="translate(-899 -3364)">
    <g id="Grupo_1176858" data-name="Grupo 1176858" transform="translate(0 -6294.328)">
      <g id="Grupo_1176358" data-name="Grupo 1176358" transform="translate(908 9664.328)">
        <g id="Grupo_1172970" data-name="Grupo 1172970" transform="translate(0)">
          <g id="Grupo_1171971" data-name="Grupo 1171971" transform="translate(0)">
            <g id="Grupo_1167337" data-name="Grupo 1167337">
              <g id="Grupo_1166720" data-name="Grupo 1166720">
                <g id="Grupo_1164305" data-name="Grupo 1164305">
                  <g id="Grupo_1163948" data-name="Grupo 1163948">
                    <g id="Grupo_1158168" data-name="Grupo 1158168">
                      <g id="Grupo_1152576" data-name="Grupo 1152576">
                        <g id="Grupo_1148633" data-name="Grupo 1148633">
                          <g id="Grupo_1148525" data-name="Grupo 1148525">
                            <g transform="matrix(1, 0, 0, 1, -9, -6)" filter="url(#Trazado_982547)">
                              <g id="Trazado_982547-2" data-name="Trazado 982547" transform="translate(9 6)" fill="#f2f7e5">
                                <path d="M 50 98.5 C 43.45188522338867 98.5 37.10042953491211 97.21787261962891 31.12207221984863 94.68923950195312 C 25.34691429138184 92.24655914306641 20.15995788574219 88.74932861328125 15.70532894134521 84.29468536376953 C 11.2506856918335 79.84004211425781 7.753442764282227 74.65309906005859 5.310757160186768 68.87794494628906 C 2.782128572463989 62.89958572387695 1.5 56.54813003540039 1.5 50 C 1.5 43.45188522338867 2.782128572463989 37.10042953491211 5.310757160186768 31.12207221984863 C 7.753442764282227 25.34691429138184 11.2506856918335 20.15997123718262 15.70532894134521 15.70532894134521 C 20.15997123718262 11.2506856918335 25.34691429138184 7.753442764282227 31.12207221984863 5.310757160186768 C 37.10042953491211 2.782128572463989 43.45188522338867 1.5 50 1.5 C 56.54813003540039 1.5 62.89958572387695 2.782128572463989 68.87794494628906 5.310757160186768 C 74.65309906005859 7.753442764282227 79.84004211425781 11.2506856918335 84.29468536376953 15.70532894134521 C 88.74932861328125 20.15995788574219 92.24655914306641 25.34691429138184 94.68923950195312 31.12207221984863 C 97.21787261962891 37.10042953491211 98.5 43.45188522338867 98.5 50 C 98.5 56.54813003540039 97.21787261962891 62.89958572387695 94.68923950195312 68.87794494628906 C 92.24655914306641 74.65309906005859 88.74932861328125 79.84004211425781 84.29468536376953 84.29468536376953 C 79.84004211425781 88.74932861328125 74.65309906005859 92.24655914306641 68.87794494628906 94.68923950195312 C 62.89958572387695 97.21787261962891 56.54813003540039 98.5 50 98.5 Z" stroke="none"/>
                                <path d="M 50 3 C 43.65372467041016 3 37.49886322021484 4.242263793945312 31.70639801025391 6.6922607421875 C 26.11003112792969 9.059326171875 21.08335113525391 12.44861602783203 16.76598358154297 16.76598358154297 C 12.44861602783203 21.08335113525391 9.059326171875 26.11003112792969 6.6922607421875 31.70639801025391 C 4.242263793945312 37.49886322021484 3 43.65372467041016 3 50 C 3 56.34629058837891 4.242263793945312 62.50115203857422 6.6922607421875 68.29361724853516 C 9.059326171875 73.88998413085938 12.44861602783203 78.91666412353516 16.76598358154297 83.23403167724609 C 21.08335113525391 87.55138397216797 26.11003112792969 90.940673828125 31.70639801025391 93.3077392578125 C 37.49886322021484 95.75773620605469 43.65372467041016 97 50 97 C 56.34629058837891 97 62.50115203857422 95.75773620605469 68.29361724853516 93.3077392578125 C 73.88998413085938 90.940673828125 78.91666412353516 87.55138397216797 83.23403167724609 83.23403167724609 C 87.55138397216797 78.91666412353516 90.940673828125 73.88998413085938 93.3077392578125 68.29361724853516 C 95.75773620605469 62.50115203857422 97 56.34629058837891 97 50 C 97 43.65372467041016 95.75773620605469 37.49886322021484 93.3077392578125 31.70639801025391 C 90.940673828125 26.11003112792969 87.55138397216797 21.08335113525391 83.23403167724609 16.76598358154297 C 78.91666412353516 12.44861602783203 73.88998413085938 9.059326171875 68.29361724853516 6.6922607421875 C 62.50115203857422 4.242263793945312 56.34629058837891 3 50 3 M 50 0 C 77.6142578125 0 100 22.38577270507812 100 50 C 100 77.6142578125 77.6142578125 100 50 100 C 22.38577270507812 100 0 77.6142578125 0 50 C 0 22.38577270507812 22.38577270507812 0 50 0 Z" stroke="none" fill="#86b60c"/>
                              </g>
                            </g>
                          </g>
                        </g>
                      </g>
                    </g>
                  </g>
                </g>
              </g>
            </g>
          </g>
        </g>
      </g>
    </g>
    <g id="compromiso" transform="translate(924.414 3390.001)">
      <path id="Trazado_1045582" data-name="Trazado 1045582" d="M261.581,133.631l-21.5,10,2.089,23.615a22.415,22.415,0,0,0,19.41-33.615Z" transform="translate(-208.585 -116.104)" fill="#80d261"/>
      <path id="Trazado_1045583" data-name="Trazado 1045583" d="M88.161,133.631a22.415,22.415,0,0,0,19.41,33.616V142.66Z" transform="translate(-73.985 -116.104)" fill="#01c0fa"/>
      <path id="Trazado_1045584" data-name="Trazado 1045584" d="M146.847,59.426a22.416,22.416,0,0,0-38.82,0l19.41,11.206Z" transform="translate(-93.851 -41.898)" fill="#ffc344"/>
      <path id="Trazado_1045585" data-name="Trazado 1045585" d="M274.111,133.631l-4.888,2.274A22.435,22.435,0,0,1,254.5,165.019l.2,2.227a22.415,22.415,0,0,0,19.41-33.615Z" transform="translate(-221.115 -116.104)" fill="#68ca44"/>
      <path id="Trazado_1045586" data-name="Trazado 1045586" d="M277.874,62.327,282.6,59.6A22.4,22.4,0,0,0,264.278,48.42,22.471,22.471,0,0,1,277.874,62.327Z" transform="translate(-229.607 -42.069)" fill="#feb237"/>
      <path id="Trazado_1045587" data-name="Trazado 1045587" d="M192.8,256.179a2.037,2.037,0,0,0-2.136,2.035v-3.959a2.075,2.075,0,0,0-1.939-2.092,2.037,2.037,0,0,0-2.136,2.035v-1.971a2.075,2.075,0,0,0-1.939-2.092,2.037,2.037,0,0,0-2.136,2.035V254.2a2.037,2.037,0,0,0-2.136-2.035,2.075,2.075,0,0,0-1.939,2.092v11.816l-1.026-1.026a2.623,2.623,0,0,0-3.71,0l-.562.562a.656.656,0,0,0,0,.927l7.63,7.63a8.2,8.2,0,0,0,.79.707.648.648,0,0,1,.245.51V277.6l4.074,3.091,6.112-3.091v-2.76a.651.651,0,0,1,.207-.471,8.126,8.126,0,0,0,2.538-5.909V258.272A2.075,2.075,0,0,0,192.8,256.179Z" transform="translate(-150.26 -217.323)" fill="#f1b0a2"/>
      <path id="Trazado_1045588" data-name="Trazado 1045588" d="M237.166,459.535H225.6a.656.656,0,0,0-.656.656v4.588a.656.656,0,0,0,.656.656H236.51a.656.656,0,0,0,.656-.656Z" transform="translate(-195.432 -399.26)" fill="#c8effe"/>
      <path id="Trazado_1045589" data-name="Trazado 1045589" d="M277.7,55.043a2.037,2.037,0,0,0,2.83.832l-3.429,1.98a2.075,2.075,0,0,0-.843,2.725,2.037,2.037,0,0,0,2.83.832l-1.707.986a2.075,2.075,0,0,0-.843,2.725,2.037,2.037,0,0,0,2.83.832l1.757-1.014a2.037,2.037,0,0,0-.694,2.867,2.075,2.075,0,0,0,2.781.633l10.232-5.908-.375,1.4a2.623,2.623,0,0,0,1.855,3.213l.768.206a.656.656,0,0,0,.8-.464l2.793-10.423a8.208,8.208,0,0,0,.217-1.038.647.647,0,0,1,.32-.467l1.92-1.108.639-5.074-5.732-3.747-2.39,1.38a.652.652,0,0,1-.512.056,8.126,8.126,0,0,0-6.387.757l-8.821,5.093A2.075,2.075,0,0,0,277.7,55.043Z" transform="translate(-239.827 -39.126)" fill="#ffcebf"/>
      <path id="Trazado_1045590" data-name="Trazado 1045590" d="M433.2,12.434l5.784,10.018a.656.656,0,0,0,.9.24l2.346-1.355a.656.656,0,0,0,.328-.568V8.169a.656.656,0,0,0-.984-.568Z" transform="translate(-376.369 -6.528)" fill="#d5efc8"/>
      <path id="Trazado_1045591" data-name="Trazado 1045591" d="M50.369,81.033a2.037,2.037,0,0,0-.695-2.867l3.429,1.98a2.075,2.075,0,0,0,2.781-.633,2.037,2.037,0,0,0-.694-2.867l1.707.986A2.075,2.075,0,0,0,59.679,77a2.037,2.037,0,0,0-.694-2.867l-1.757-1.014a2.037,2.037,0,0,0,2.83-.832,2.075,2.075,0,0,0-.843-2.725L48.983,63.652l1.4-.375a2.623,2.623,0,0,0,1.855-3.213l-.206-.768a.656.656,0,0,0-.8-.464L40.807,61.625a8.189,8.189,0,0,0-1.007.331.647.647,0,0,1-.564-.043L37.316,60.8,32.6,62.787l-.379,6.838,2.39,1.38a.651.651,0,0,1,.3.415,8.126,8.126,0,0,0,3.849,5.153l8.821,5.093a2.075,2.075,0,0,0,2.782-.633Z" transform="translate(-27.99 -51.096)" fill="#fff3de"/>
      <path id="Trazado_1045592" data-name="Trazado 1045592" d="M16.532,28.533,10.748,38.55,7.834,36.868a.656.656,0,0,1-.328-.568V23.7a.656.656,0,0,1,.984-.568l7.8,4.5A.656.656,0,0,1,16.532,28.533Z" transform="translate(-6.515 -20.021)" fill="#ffc344"/>
      <path id="Trazado_1045593" data-name="Trazado 1045593" d="M66.345.222a1.623,1.623,0,0,0-1.64,0l-8.366,4.83,0,0L54.072,6.361a9.048,9.048,0,0,0-7.025.886L45.1,8.369A23.443,23.443,0,0,0,24.52,7.163a1.657,1.657,0,0,0-.291-.213,1.63,1.63,0,0,0-1.244-.164L12.571,9.576a9.2,9.2,0,0,0-.971.309l-.931-.537.2-.344a1.64,1.64,0,0,0-.6-2.24l-7.8-4.5a1.623,1.623,0,0,0-1.64,0,1.623,1.623,0,0,0-.82,1.42v12.6a1.644,1.644,0,0,0,.82,1.42L6,20.688a9.048,9.048,0,0,0,4.28,5.641l.029.017a23.757,23.757,0,0,0-.121,2.389A23.358,23.358,0,0,0,16.1,44.279a.984.984,0,1,0,1.47-1.308A21.392,21.392,0,0,1,12.16,28.734c0-.433.013-.867.039-1.3l6.906,3.987a3.119,3.119,0,0,0,1.563.422,3.01,3.01,0,0,0,2.978-2.5l.975.563a3.046,3.046,0,0,0,4.1-.953A3.015,3.015,0,0,0,29.18,27.7a3.092,3.092,0,0,0,.836.1L32.6,29.3v3.04a3.03,3.03,0,0,0-1.23,1.738A3.026,3.026,0,0,0,27.2,36.932v9.576a3.614,3.614,0,0,0-4.448.518l-.123.123c-.594-.354-1.174-.739-1.73-1.148a.984.984,0,1,0-1.166,1.584,23.489,23.489,0,0,0,1.984,1.31,1.632,1.632,0,0,0,.473,1.012l7.623,7.623a9.215,9.215,0,0,0,.753.687v1.075h-.4a1.641,1.641,0,0,0-1.64,1.64v4.588a1.641,1.641,0,0,0,1.64,1.64H41.079a1.641,1.641,0,0,0,1.64-1.64V57.662a9.048,9.048,0,0,0,2.745-6.527V48.891A23.43,23.43,0,0,0,56.978,28.935a1.632,1.632,0,0,0,.643-.918L60.411,17.6a9.239,9.239,0,0,0,.218-1l.93-.537.2.344a1.641,1.641,0,0,0,2.24.6l2.346-1.355a1.644,1.644,0,0,0,.82-1.42V1.642a1.623,1.623,0,0,0-.82-1.42ZM31.194,20.738a1.053,1.053,0,0,1-1.464.431l0,0-7.053-4.072a.984.984,0,0,0-.984,1.7l7.057,4.074.006,0L30.5,23.887a1.053,1.053,0,0,1,.358,1.484,1.1,1.1,0,0,1-1.462.312l-8.764-5.06a.984.984,0,0,0-.984,1.7L26.709,26.4a1.053,1.053,0,0,1,.358,1.484,1.1,1.1,0,0,1-1.462.312L18.6,24.151a.984.984,0,1,0-.984,1.7l3.578,2.066a1.053,1.053,0,0,1,.358,1.484,1.1,1.1,0,0,1-1.462.312l-8.821-5.093a7.1,7.1,0,0,1-3.384-4.531,1.643,1.643,0,0,0-.769-1.037l-1.538-.888,1.477-2.558a.984.984,0,1,0-1.7-.984L3.873,17.185l-1.9-1.1V4.247L9,8.3,7.7,10.553a.984.984,0,1,0,1.7.984l.28-.485,1.068.616a1.621,1.621,0,0,0,1.423.1,7.262,7.262,0,0,1,.9-.293L23.177,8.771l.121.451a1.639,1.639,0,0,1-1.159,2.008l-1.4.376a.984.984,0,0,0-.237,1.8l10.232,5.908a1.1,1.1,0,0,1,.46,1.422Zm1.034,6.076a3.024,3.024,0,0,0,.684-2.727,3.035,3.035,0,0,0-.812-1.434,3.026,3.026,0,0,0-.383-5.041l-8.292-4.788a3.609,3.609,0,0,0,1.836-3.839,21.482,21.482,0,0,1,17.833.544L38.225,12.34a3.026,3.026,0,0,0-.467,4.974l-.975.563a3.025,3.025,0,0,0-.376,5.046,3.028,3.028,0,0,0-.626,3.407l-2.2,1.268Zm8.523,38.377H30.5V61.259H40.751ZM43.5,51.135a7.1,7.1,0,0,1-2.231,5.2,1.643,1.643,0,0,0-.514,1.185v1.776H32.532V58.059a1.622,1.622,0,0,0-.621-1.284,7.279,7.279,0,0,1-.7-.629l-7.4-7.4.33-.33a1.641,1.641,0,0,1,2.319,0l1.026,1.026a.984.984,0,0,0,1.679-.7V36.932a1.1,1.1,0,0,1,1-1.11,1.053,1.053,0,0,1,1.106,1.052v8.149a.984.984,0,0,0,1.968,0V34.846a1.053,1.053,0,0,1,1.106-1.052,1.1,1.1,0,0,1,1,1.11v10.12a.984.984,0,1,0,1.968,0V36.875a1.053,1.053,0,0,1,1.106-1.052,1.1,1.1,0,0,1,1,1.11v8.091a.984.984,0,1,0,1.968,0V40.891a1.053,1.053,0,0,1,1.106-1.052,1.1,1.1,0,0,1,1,1.11V51.135ZM59.509,14.984a1.621,1.621,0,0,0-.8,1.18,7.285,7.285,0,0,1-.194.922L55.805,27.192l-.451-.121a1.642,1.642,0,0,1-1.16-2.008l.375-1.4a.984.984,0,0,0-1.442-1.107l-2.947,1.7a.984.984,0,0,0,.984,1.7l1.008-.582a3.613,3.613,0,0,0,2.672,3.593l.164.044a21.461,21.461,0,0,1-9.546,17.553v-5.62a3.026,3.026,0,0,0-4.074-2.891V36.932a3.025,3.025,0,0,0-4.182-2.849,3.028,3.028,0,0,0-2.637-2.246V29.3l2.632-1.52a3.031,3.031,0,0,0,2.12.2,3.009,3.009,0,0,0,2.994,2.61,3.122,3.122,0,0,0,1.563-.422l3.254-1.879a.984.984,0,1,0-.984-1.7L42.9,28.463a1.1,1.1,0,0,1-1.462-.312,1.053,1.053,0,0,1,.358-1.483h0l7.057-4.074a.984.984,0,0,0-.984-1.7l-7.053,4.072,0,0,0,0-1.754,1.013a1.053,1.053,0,0,1-1.464-.431,1.1,1.1,0,0,1,.461-1.422l1.7-.984h0l7.057-4.074a.984.984,0,1,0-.984-1.7l-7.054,4.072,0,0A1.053,1.053,0,0,1,37.307,21a1.1,1.1,0,0,1,.461-1.422L41.193,17.6l0,0,3.578-2.066a.984.984,0,1,0-.984-1.7L40.213,15.9h0a1.053,1.053,0,0,1-1.462-.432,1.1,1.1,0,0,1,.46-1.422l8.821-5.093a7.1,7.1,0,0,1,5.616-.665,1.644,1.644,0,0,0,1.282-.148l1.538-.888,4.109,7.117Zm5.688-.932-1.9,1.1-.526-.911h0l-4.6-7.968L65.2,2.21V14.052Z" transform="translate(0 0)"/>
    </g>
  </g>
</svg>
